<svg width="777" height="525" viewBox="0 0 777 525" fill="none" xmlns="http://www.w3.org/2000/svg">
<path d="M1215.96 396.87C1194.35 407.04 1171.38 414.31 1147.81 418.22C1134.04 420.5 1118.51 421.25 1107.6 412.54C1083.27 393.12 1090.39 336.6 1059.5 340.45C1047.97 341.89 1039.99 353.42 1028.67 356.01C1009.69 360.35 995.11 337.82 993.88 318.38C992.65 298.94 997.95 278.37 990.06 260.56C979.59 236.92 950.29 227.76 935.15 206.8C908.39 169.76 932.05 106.63 895.39 79.3399C860.32 53.2399 806.26 88.8299 767.84 67.9899C739.45 52.5999 729.94 11.1999 699 1.9699C671.49 -6.2401 644.07 16.82 630.38 42.05C616.69 67.28 609.96 96.7199 590.96 118.24C561.66 151.44 511.5 156.46 467.66 150.18C423.83 143.9 380.85 128.72 336.6 130.41C259.85 133.33 188.92 193.3 173.29 268.5C161.68 324.35 178.03 381.94 177.9 438.98C177.74 507.38 153.87 573.43 126.48 636.11C104.85 685.6 79.2899 735.93 36.0499 768.29C25.4499 776.22 13.4999 782.71 0.909912 787.48C5.69991 792.43 10.3699 797.49 14.8999 802.68C30.6899 820.78 44.93 840.16 58.5 859.96C72.12 879.82 85.0699 900.13 98.3099 920.25C102.81 927.08 107.35 933.9 111.95 940.66C118.71 941.22 125.45 941.78 132.12 942.17C227.25 947.67 336.86 900.22 356.93 807.07C362.24 782.44 360.85 756.52 368.29 732.44C393.22 651.84 500.6 627.63 543.11 554.76C578.03 494.91 561.09 416.53 590.41 353.75C599.52 334.23 614.49 315.74 635.31 310.2C693.61 294.69 732.63 384.41 792.94 385.59C817.2 386.06 840.22 371.5 864.39 373.7C910.16 377.86 933.09 437.07 977.82 447.65C1004.2 453.89 1034.89 442.12 1057.5 457.06C1083.03 473.93 1084.84 517.17 1113.8 527.06C1155.88 541.43 1179.4 469.48 1223.28 462.33C1245.79 458.66 1263.28 472.31 1280.55 488.69C1288.11 495.86 1296.96 500.33 1306.14 502.39L1215.96 396.87Z" fill="#E96044"/>
</svg>
