<svg width="559" height="933" viewBox="0 0 559 933" fill="none" xmlns="http://www.w3.org/2000/svg">
<path d="M403.88 817.56C410.52 820.81 422.26 823.21 429.67 823.75C436.68 824.26 443.64 823 450.16 820.39C462.18 815.58 471.24 805.46 476.01 793.57C479.27 785.43 480.51 776.48 481.67 767.84C482.3 763.18 482.85 758.5 483.48 753.84C484.05 749.59 484.54 745.25 485.57 741.09C489.08 726.95 479.6 700.79 540.8 639.58C569.64 610.74 520.64 553.09 516.21 517.44C508.39 454.43 579.43 393.35 553.03 335.6C527.77 280.36 438.13 287.55 405.26 236.47C380.98 198.74 397.08 141.96 365.57 110.01C337.56 81.6099 288.74 91.3599 255.19 112.94C221.64 134.52 193.75 165.87 156.22 179.38C98.3201 200.22 33.87 172.79 -15.33 135.83C-64.52 98.8599 -106.71 51.6399 -161.74 24.0999C-257.18 -23.6701 -383.68 1.93992 -453.01 83.0799C-504.5 143.34 -523.1 224.42 -561.41 293.81C-607.35 377.01 -680.6 441.5 -755.88 499.52C-815.32 545.33 -880.12 589.55 -954.43 600.04C-972.65 602.61 -991.54 602.52 -1010.07 599.91C-1007.54 609.14 -1005.24 618.43 -1003.2 627.78C-996.07 660.38 -991.68 693.52 -988.39 726.71C-985.09 760.01 -982.9 793.41 -980.22 826.77C-979.31 838.1 -978.34 849.44 -977.26 860.76C-969.4 865.96 -961.57 871.15 -953.7 876.09C-841.51 946.41 -676.27 961.93 -589.52 861.89C-566.58 835.44 -550.94 802.94 -525.77 778.6C-441.49 697.1 -294.52 739.43 -194 679.1C-111.44 629.55 -79.66 522.76 -1.95996 465.89C22.1901 448.21 52.79 435.69 81.8501 442.87C163.23 462.97 150.75 598.34 223.43 640.12C252.66 656.92 290.45 654.58 318.41 673.42C357 699.42 361.29 752.89 379.1 796.56C387.85 811.42 393.06 812.27 403.88 817.56Z" fill="#E96044"/>
</svg>
