<svg width="197" height="187" viewBox="0 0 197 187" fill="none" xmlns="http://www.w3.org/2000/svg">
<path d="M59.221 74.986C60.7332 75.405 62.288 75.6103 63.8344 75.5846C61.6985 74.7636 59.7678 73.4722 57.9822 72.0012C55.069 70.1881 51.8055 68.8796 49.251 66.5277C47.5424 64.9882 45.996 63.2521 44.8171 61.2337L44.9452 61.114C49.9003 64.0389 53.5654 68.3579 58.2812 71.5137C60.9724 72.6341 63.5695 73.7288 65.9958 75.3708C67.0893 75.1912 68.1572 74.8919 69.1739 74.4643C67.2944 73.19 65.6712 71.6078 64.1248 69.9059C61.5704 67.7934 58.4777 66.3481 56.0002 64.1416C54.3343 62.6962 52.7538 61.1311 51.3783 59.3095L51.4894 59.1726C56.7349 61.4476 60.3231 65.7751 64.4836 69.4611C66.6365 70.7183 68.6955 72.0782 70.4127 73.8571C70.6348 73.7373 70.8569 73.6261 71.079 73.4979C71.66 73.1301 72.2067 72.7196 72.7279 72.2663C70.874 70.8039 69.3704 69.0079 67.9437 67.0921C65.6284 64.7744 62.7152 63.0725 60.4769 60.6693C58.9732 59.0871 57.5636 57.4023 56.3761 55.4694L56.4957 55.3412C61.4593 58.0437 64.5947 62.6705 68.3452 66.6902C70.276 68.0756 72.1213 69.5638 73.6249 71.394C74.1973 70.7953 74.7356 70.1624 75.2054 69.4355C73.2063 68.0585 72.1299 66.1343 71.2072 64.0133C69.8574 62.0804 67.807 60.6607 66.5511 58.6595C65.6968 57.3339 64.9364 55.9398 64.458 54.3234L64.5947 54.2122C68.1316 56.4615 69.5498 60.3272 71.6685 63.6883C73.3088 65.1678 74.7954 66.7842 75.4788 68.9565C76.2733 67.6395 76.9141 66.1086 77.3925 64.3383C76.5894 62.987 75.9231 61.5673 75.2738 60.1048C72.2153 55.9569 68.2256 52.6899 65.9189 47.9433L66.0471 47.8236C67.8582 48.944 69.3704 50.3808 70.7459 51.9288C72.839 54.2464 73.9923 57.2312 75.7437 59.7798C76.4955 60.5923 77.2131 61.439 77.8538 62.3284C78.1187 60.8831 78.3152 59.3437 78.3921 57.6161C78.4177 56.9319 78.4092 56.2563 78.3921 55.5806C76.6236 53.605 75.3336 51.3643 74.0777 49.0295C70.5921 44.873 66.2008 41.7001 63.3303 36.9792L63.4499 36.8509C65.4234 37.9028 67.1235 39.2883 68.6869 40.8192C71.062 43.1027 72.5229 46.1217 74.5305 48.6874C75.9231 50.0216 77.2046 51.4584 78.2041 53.0748C76.8799 42.3073 69.6523 32.4978 63.6977 28.0249C56.9229 22.9276 46.3378 19.4896 39.9047 23.8256C33.4631 28.1617 31.7032 33.9431 30.772 38.664C29.8322 43.3849 33.352 56.8891 40.1866 64.8771C44.7658 70.2907 53.8302 73.4807 59.221 74.986ZM51.0195 31.4971C51.1818 32.0359 51.1647 32.6431 50.8144 33.1563C50.6521 33.4129 50.524 33.6352 50.5496 33.8918C50.5581 34.1398 50.7632 34.4562 50.7803 34.7556C50.8059 35.3371 49.832 36.0641 49.3535 35.6536C49.1827 34.9181 49.157 34.5845 49.4219 34.2681C49.5842 34.1312 49.9089 33.9944 50.0028 33.7892C50.1053 33.5839 50.0199 33.3444 49.8747 33.1392C49.1314 32.1984 49.157 31.8649 49.439 30.6077C49.9772 30.2228 50.8828 31.0866 51.0195 31.4971ZM38.4182 36.5943C38.0935 34.2937 40.7505 32.1813 41.6219 31.0182C42.4933 29.8551 45.492 31.5057 45.7312 33.2247C45.9704 34.9437 43.2793 39.0061 41.0153 39.3225C38.7599 39.6561 38.4182 36.5943 38.4182 36.5943ZM35.7185 41.7172C35.0607 40.9646 34.0099 40.1949 34.2064 39.0061C34.2149 38.6384 34.4712 37.4068 34.9667 37.4923C35.428 38.4245 35.7954 39.0831 35.8723 40.058C35.7441 41.0074 36.2909 41.9567 37.2392 42.1192C38.9479 42.3757 40.6651 41.9481 42.5189 42.5553L42.5531 42.7264C40.366 44.6079 36.906 44.6165 35.7185 41.7172Z" fill="#1F644D"/>
<path d="M82.3476 6.33605C78.2212 11.8352 73.4883 20.7554 71.9077 28.8032C72.4118 28.2045 72.9415 27.6315 73.4882 27.0756C75.419 24.4757 76.8287 21.4652 79.2037 19.2074C80.7586 17.6936 82.4758 16.3338 84.4578 15.3503L84.5689 15.4786C81.63 20.0797 77.29 23.2099 73.941 27.4006C73.1551 28.9571 72.3776 30.4709 71.4635 31.9162C71.455 32.0103 71.4379 32.1129 71.4293 32.2156C71.4293 32.2156 76.897 37.022 77.6574 42.3501C77.6574 42.3501 82.7491 34.6102 89.1224 32.0531C90.4808 31.5057 92.0186 30.8728 93.676 30.2742C93.4966 29.4959 93.6162 28.863 93.9921 28.3499C94.573 27.888 95.1539 27.4604 95.0685 26.6137C95.0685 25.0487 95.658 23.8342 97.136 23.0902L97.2898 23.1671C97.5119 24.0138 97.4094 24.7151 97.1958 25.3651C96.8882 26.3828 95.7178 26.9216 95.3248 27.8624C95.3248 28.6834 95.2821 29.3505 94.8122 29.8893C98.0074 28.8374 101.578 28.0848 105.167 28.5295C105.141 28.4097 105.124 28.2986 105.064 28.1703C104.543 26.7762 104.936 25.3223 106.337 24.5868L106.499 24.6467C106.79 25.425 106.815 26.0236 106.756 26.6052C106.704 27.2894 106.115 27.9308 105.867 28.6064C107.653 28.9058 109.438 29.5387 111.173 30.5906C111.181 30.5821 111.19 30.5649 111.198 30.5564C111.361 29.7012 110.634 28.8032 110.891 27.8282C111.044 27.2466 111.318 26.6907 111.941 26.169L112.112 26.1947C112.591 26.8532 112.719 27.469 112.727 28.0676C112.736 29.0768 111.805 29.761 111.753 30.6334C111.813 30.7873 111.865 30.9413 111.916 31.0866C112.668 31.5998 113.402 32.1557 114.129 32.8484C114.129 32.8484 117.947 31.1038 119.041 25.9125C120.143 20.7212 117.845 4.06112 106.739 1.96579C95.6409 -0.146652 87.072 0.0415013 82.3476 6.33605ZM88.8747 22.8764C87.6188 26.6822 84.5005 28.9485 82.1597 31.959C81.3139 34.1227 80.3912 36.124 78.4092 37.6036L78.2554 37.518C78.5459 35.0378 79.9982 33.2504 81.6898 31.6425C82.9969 29.7781 83.6547 27.4519 85.1925 25.7414C86.2006 24.5954 87.3283 23.5434 88.738 22.7652L88.8747 22.8764ZM108.191 11.5872C109.601 12.6477 110.728 16.1114 109.131 18.2324C107.533 20.3619 102.706 16.5134 102.706 16.5134C100.673 15.1621 102.561 12.1773 103.518 10.903C104.475 9.62872 106.79 10.5267 108.191 11.5872ZM103.535 8.49124L103.518 8.6623C101.655 9.53465 100.22 9.44057 98.426 10.1333C97.4094 10.5524 97.4435 11.5616 97.7511 12.4253C97.8878 13.2549 97.8707 14.0246 97.7767 15.1364L97.6229 15.222C96.6319 14.6404 96.145 13.4773 96.3073 12.3826C96.7088 11.305 97.2812 10.5182 97.7511 9.45767C98.9044 7.41365 101.766 7.18273 103.535 8.49124Z" fill="#1F644D"/>
<path d="M141.612 104.209C141.612 104.209 137.306 109.401 131.138 111.556C131.779 112.043 132.291 112.676 132.77 113.378C133.966 114.353 135.7 114.626 136.836 115.695C137.605 116.388 138.297 117.175 138.776 118.244L138.673 118.381C136.435 117.987 134.812 116.713 133.539 114.917C133.223 114.481 132.881 114.079 132.428 113.822C131.3 113.429 130.275 112.933 129.549 112.026C129.045 112.146 128.532 112.249 128.011 112.326C126.234 112.574 124.543 112.753 122.911 112.882C123.116 113.018 123.312 113.164 123.492 113.335C124.116 114.182 124.731 115.011 125.833 115.251C127.883 115.883 129.549 117.021 130.574 118.997L130.472 119.142C129.327 119.031 128.387 118.629 127.516 118.116C126.183 117.38 125.423 115.841 124.167 115.011C122.885 114.643 121.74 114.122 120.98 112.993C116.341 113.207 112.505 112.899 110.011 112.146C106.346 111.043 103.689 111.188 103.689 111.188C103.689 111.188 107.089 113.583 110.241 119.227C111.6 119.638 112.779 120.45 113.881 121.4C115.743 122.392 117.973 122.691 119.707 123.957C120.861 124.769 121.937 125.727 122.757 126.984L122.655 127.13C118.99 126.429 116.64 123.735 113.624 121.904C112.813 121.708 112.018 121.502 111.266 121.22C112.018 122.794 112.736 124.573 113.351 126.574C116.743 137.572 117.887 145.671 117.887 145.671C117.887 145.671 126.294 153.197 135.734 151.863C145.175 150.521 155.281 142.516 156.255 133.108C157.229 123.709 152.411 111.727 149.199 109.315C146.012 106.912 141.612 104.209 141.612 104.209ZM118.528 133.253C117.742 132.894 117.751 131.919 117.17 131.654C116.956 131.586 116.615 131.705 116.375 131.68C115.974 131.654 115.376 130.782 115.666 130.294C116.931 129.841 117.067 130.346 117.469 131.175C117.956 131.577 118.844 131.141 119.502 131.68C119.741 131.868 120.382 132.723 120.1 133.245C119.434 133.484 118.947 133.416 118.528 133.253ZM140.143 141.173C140.459 141.335 140.835 141.318 141.193 141.233C142.757 140.805 143.739 140.754 145.363 141.241L145.422 141.404C144.935 142.191 144.149 142.584 143.355 142.729C142.005 142.969 141.125 142.045 139.972 141.712C138.665 141.831 137.46 141.506 137.17 139.924L137.281 139.796C138.87 139.787 139.203 140.309 140.143 141.173ZM126.875 142.336C127.909 142.841 128.908 143.439 129.797 144.363L129.737 144.525C126.294 144.927 124.329 142.9 121.629 141.404C119.827 141.139 118.144 140.643 117.025 138.966L117.102 138.812C119.109 138.735 120.493 139.71 121.86 140.899C123.415 141.635 125.337 141.549 126.875 142.336ZM145.234 136.11C143.329 138.65 139.297 135.716 139.297 135.716C139.109 134.365 139.604 131.312 140.57 130.021C141.535 128.729 143.91 128.515 145.064 129.379C146.217 130.26 147.14 133.57 145.234 136.11ZM144.654 124.923C146.097 125.111 147.746 124.889 148.882 126.095C149.6 126.848 150.036 127.857 149.908 128.917L149.745 128.986C148.079 127.9 147.276 127.13 145.79 125.933C145.439 125.659 145.021 125.462 144.585 125.479C143.201 125.83 142.202 126.249 140.638 125.565L140.595 125.394C141.749 124.137 143.321 124.239 144.654 124.923ZM129.011 124.017L128.917 124.162C124.167 122.973 120.638 119.741 116.495 117.423C113.727 116.636 111.096 115.747 108.849 113.754L108.917 113.591C111.933 113.771 114.419 115.208 116.751 116.918C119.289 118.21 122.176 118.8 124.585 120.356C126.192 121.374 127.721 122.537 129.011 124.017ZM141.082 104.996L141.202 104.868C142.569 104.74 142.731 105.338 143.022 106.296C143.509 106.852 144.551 106.673 145.14 107.391C145.363 107.639 145.952 108.725 145.576 109.178C144.824 109.238 144.312 109.042 143.885 108.751C143.124 108.203 143.227 107.16 142.637 106.707C141.663 106.493 141.048 106.373 141.082 104.996ZM141.373 111.847C140.715 112.052 140.271 111.975 139.903 111.795C139.203 111.393 139.357 110.461 138.844 110.196C138.648 110.119 138.323 110.222 138.101 110.188C137.725 110.145 137.289 109.281 137.622 108.819C138.938 108.434 138.912 108.965 139.186 109.751C139.579 110.162 140.442 109.76 141.014 110.324C141.228 110.513 141.698 111.368 141.373 111.847Z" fill="#1F644D"/>
<path d="M143.517 94.9814C146.909 78.4325 133.086 73.3011 130.233 71.1545C127.379 69.0078 114.906 69.4868 114.906 69.4868C114.906 69.4868 111.907 72.711 108.994 75.901C109.737 75.8412 110.506 75.8925 111.267 76.0122C113.146 75.8412 114.983 74.9346 116.914 75.157C118.178 75.2853 119.442 75.6017 120.596 76.3201L120.57 76.4912C117.366 77.603 114.487 76.4741 111.326 76.5596C110.045 77.0727 108.832 77.5174 107.49 77.5602C105.799 79.4332 104.346 81.0838 103.817 81.7851C103.783 81.8364 103.723 81.8877 103.68 81.939C104.953 81.9989 106.2 82.3239 107.456 82.7429C109.66 82.991 111.941 82.3581 114.137 82.7258C115.598 82.9396 117.05 83.2817 118.468 83.9745L118.451 84.1455C114.658 85.3429 111.096 83.9061 107.396 83.2988C105.654 83.5298 103.945 83.6153 102.279 83.1107C99.3572 85.1291 93.8468 87.5665 93.8468 87.5665C93.8468 87.5665 94.5901 89.5848 95.3248 91.8683C97.4093 92.3302 99.3999 93.0571 101.416 93.8525C106.764 94.7847 112.172 94.3485 117.426 96.0504L117.418 96.2215C115.239 96.7175 113.035 96.7688 110.848 96.6235C107.55 96.4353 104.483 95.0755 101.288 94.4084C99.4255 94.2887 97.5717 94.0235 95.8117 93.4591C96.2047 94.7847 96.5379 96.0761 96.6661 96.9912C96.743 97.5471 96.8369 98.2227 96.9395 98.9497C98.9557 99.1721 100.69 99.9845 102.458 100.917C106.277 101.695 110.156 101.225 113.812 102.978L113.804 103.149C112.223 103.619 110.634 103.662 109.062 103.517C106.687 103.337 104.577 102.037 102.313 101.456C100.468 101.353 98.6567 101.019 97.0932 100.044C97.3239 101.678 97.5717 103.397 97.734 104.577C99.5195 104.8 101.185 105.373 102.894 106.031C107.14 106.484 111.335 105.638 115.521 107.006L115.53 107.177C113.855 107.81 112.121 108.007 110.395 108.015C107.789 108.067 105.337 106.963 102.8 106.578C101.143 106.63 99.4853 106.519 97.9305 106.005V106.023C106.636 110.068 113.676 111.128 113.676 111.128C113.676 111.128 140.126 111.539 143.517 94.9814ZM107.815 90.5513C106.226 90.5513 104.739 89.5677 103.167 89.4566C101.544 89.8072 99.9809 89.9441 98.4772 88.8151L98.4943 88.6441C99.5964 88.148 100.656 88.0796 101.69 88.3105C102.689 88.7553 103.68 89.1743 104.808 88.8579C107.003 88.4217 109.105 88.6099 111.044 89.85L111.027 90.021C109.934 90.4743 108.866 90.5769 107.815 90.5513ZM128.643 92.467C128.011 90.6967 129.643 86.8395 130.608 85.5567C131.565 84.2824 133.898 86.2323 135.196 87.2073C136.495 88.1823 136.7 92.9459 133.12 95.1867C129.532 97.4359 128.643 92.467 128.643 92.467Z" fill="#1F644D"/>
<path d="M102.006 30.5735C93.4537 29.7183 83.1933 38.5785 79.3317 46.5323C79.3317 46.5323 80.8353 52.1426 81.0147 57.6504C81.3736 56.9405 81.7324 56.2307 82.1681 55.555C83.5435 53.3742 85.1411 51.3301 87.0719 49.5684L87.2171 49.671C85.5683 53.7932 83.1506 57.4109 80.9037 61.1483C80.8353 61.841 80.7328 62.5252 80.5876 63.1581C79.2634 68.8283 75.5727 74.4814 74.7354 75.713C74.6927 75.7985 74.65 75.8755 74.6073 75.961C74.8038 75.9439 76.5723 75.7899 79.0156 76.1662C79.6905 73.8913 81.0147 72.0098 82.5354 70.2223C83.9024 67.8961 84.5175 65.1337 85.9955 62.8673C86.9608 61.345 88.0202 59.874 89.4042 58.5911L89.558 58.6766C88.678 63.3377 85.5 66.6902 83.031 70.5046C82.2962 72.6256 81.4077 74.6354 79.9298 76.3287C81.2198 76.5853 82.638 77.0044 84.0818 77.6544C84.7396 76.5511 85.5 75.4992 86.3116 74.49C87.9177 71.7532 88.8916 68.6316 90.8224 66.083C92.0868 64.3811 93.4964 62.7732 95.2222 61.4391L95.3589 61.5417C93.4281 66.5961 89.6349 70.3079 86.79 74.7637C86.3372 75.9695 85.8588 77.1412 85.3205 78.2872C86.1322 78.7405 86.9352 79.2964 87.7127 79.9293C88.8489 77.834 90.455 76.1235 92.215 74.5071C94.0688 72.1723 95.2307 69.2987 97.1786 67.0409C98.4601 65.5185 99.8355 64.0646 101.493 62.8331L101.63 62.9443C99.827 67.8106 95.9142 71.0519 92.6592 74.8577C91.5315 76.9787 90.2671 78.98 88.5072 80.6049C89.558 81.5885 90.5319 82.7943 91.3948 84.2226C92.7959 82.897 94.3251 81.7253 95.9227 80.5878C99.7416 76.5169 102.595 71.6934 107.191 68.3237L107.328 68.4349C106.388 70.5302 105.124 72.4032 103.697 74.1393C101.587 76.782 98.6907 78.6379 96.3072 80.9984C95.1282 82.5549 93.8467 84.0173 92.3687 85.2574C93.4794 84.8726 97.3494 83.4443 100.246 81.272C103.663 78.7234 119.254 66.1771 119.297 53.0834C119.331 39.9982 111.591 31.5314 102.006 30.5735ZM108.054 51.3387C109.729 50.6887 111.01 50.4664 112.847 50.8598L112.907 51.0223C112.343 51.8518 111.523 52.2966 110.668 52.5275C109.344 52.9209 108.063 52.1341 106.781 52.0143C105.431 52.3735 104.039 52.3137 103.21 50.8769L103.278 50.7144C104.816 50.2868 105.679 50.8085 106.841 51.4499C107.234 51.5611 107.653 51.4841 108.054 51.3387ZM103.031 36.6457C104.381 36.4576 106.431 38.2878 107.883 39.3825C109.336 40.4772 108.216 45.0014 105.799 43.1883C103.381 41.3666 101.348 40.4087 100.399 39.1344C98.4174 36.449 101.689 36.8339 103.031 36.6457Z" fill="#1F644D"/>
<path d="M152.223 67.3572C152.223 67.3572 152.223 67.3572 150.497 69.6578C150.489 69.6663 150.489 69.6749 150.48 69.6749C150.958 69.6749 151.428 69.7433 151.881 69.8801C152.872 70.4018 153.829 70.915 154.999 70.7268C157.263 70.5387 159.408 71.0518 161.133 72.6426L161.082 72.8136C159.903 73.0616 158.835 72.9846 157.793 72.8136C156.221 72.5827 154.846 71.4281 153.274 71.1715C151.924 71.334 150.651 71.3768 149.438 70.761C146.866 73.0445 141.732 75.9694 141.732 75.9694L143.381 80.2969C143.381 80.2456 143.389 80.2029 143.389 80.2029C145.303 79.3134 147.105 79.7239 148.908 80.3825C150.745 80.5706 152.65 79.9206 154.478 80.2969C155.691 80.5193 156.896 80.8785 158.032 81.5969L158.007 81.7679C154.606 82.8798 152.052 81.4601 148.857 80.9469C146.994 81.2976 145.2 81.4515 143.415 80.3996L146.123 87.5151C147.396 96.5208 142.765 102.687 142.765 102.687C142.765 102.687 146.61 103.987 149.959 106.501C151.685 107.801 153.564 110.649 154.991 113.112C156.571 112.385 158.109 112.548 159.741 112.847C162.791 112.283 165.063 110.735 168.429 111.539L168.472 111.71C167.464 112.531 166.328 112.984 165.174 113.283C163.432 113.771 161.561 113.189 159.801 113.412C158.382 113.976 156.93 114.335 155.444 113.908C156.529 115.858 157.255 117.389 157.255 117.389C172.556 115.216 188.617 104.209 182.893 86.429C177.161 68.6315 152.223 67.3572 152.223 67.3572ZM148.028 92.1249L148.037 91.9538C148.677 91.3808 149.301 91.2354 149.908 91.3979C150.514 91.7571 151.027 92.1334 151.744 91.7229C153.069 91.1071 154.299 91.2012 155.418 92.2703L155.409 92.4413C154.769 92.9716 154.145 93.1512 153.53 93.2025C152.505 93.2965 151.702 92.4242 150.788 92.4413C149.771 92.9031 149.011 93.1854 148.028 92.1249ZM155.939 106.938C155.102 107.596 154.529 108.024 153.385 107.186L153.351 107.015C154.145 105.843 154.82 106.04 155.837 106.382C156.657 106.305 157.263 105.338 158.246 105.304C158.818 105.287 159.416 105.381 160.066 105.834L160.091 106.005C159.63 106.655 159.1 106.946 158.562 107.126C157.631 107.425 156.751 106.732 155.939 106.938ZM172.163 103.594C173.666 102.892 174.598 102.644 176.34 102.653L176.443 102.79C176.161 103.705 175.443 104.295 174.666 104.62C173.342 105.159 172.24 104.415 170.992 104.252C169.668 104.56 168.335 104.338 167.891 102.738L167.994 102.602C169.634 102.507 169.967 102.952 171.078 103.696C171.428 103.816 171.812 103.739 172.163 103.594ZM150.779 101.182C149.651 101.823 148.618 102.242 147.285 101.396L147.268 101.225C147.968 100.54 148.72 100.275 149.506 100.318C150.301 100.566 151.078 100.814 151.847 100.292C153.368 99.4543 154.914 99.2832 156.52 100.138L156.537 100.309C155.828 100.959 155.085 101.242 154.324 101.413C153.18 101.704 151.932 101.011 150.779 101.182ZM175.349 89.5249C175.512 90.6539 176.477 94.5281 174.452 97.2221C172.428 99.9246 168.558 96.9057 168.558 96.9057C167.746 94.0321 168.139 91.0644 170.147 88.396C172.146 85.7191 175.187 88.396 175.349 89.5249ZM153.752 87.3612C152.53 87.4895 151.351 86.6171 150.147 86.6257C148.917 87.1046 147.738 87.3612 146.524 86.3435V86.1724C147.345 85.5909 148.156 85.4455 148.959 85.5994C149.745 85.9586 150.506 86.3178 151.368 85.9073C153.043 85.2915 154.666 85.3343 156.195 86.4119L156.187 86.5829C155.367 87.1217 154.555 87.3013 153.752 87.3612ZM171.77 83.008C171.727 83.5297 170.693 84.0001 170.48 84.0685C169.865 84.2823 168.942 83.6495 168.429 83.983C168.241 84.1284 168.165 84.479 168.036 84.6672C167.857 84.9751 166.781 85.1632 166.464 84.7698C166.447 84.0001 166.823 83.5383 167.336 83.4015C167.942 83.4357 168.429 83.6324 168.831 83.0166C169.625 82.0416 170.933 81.939 171.77 83.008ZM163.466 79.168L163.397 79.3305C159.365 79.2963 156.084 77.2095 152.3 76.3457C149.942 76.4911 147.738 76.5681 145.439 75.5504V75.3793C147.806 74.43 150.164 74.9175 152.385 75.7898C154.683 76.2003 157.135 75.9096 159.365 76.7734C160.843 77.3207 162.261 78.0562 163.466 79.168Z" fill="#1F644D"/>
<path d="M168.968 39.9897C171.163 39.1344 173.496 39.0318 175.666 40.118V40.289C174.546 40.8278 173.461 41.0416 172.368 41.1699C170.736 41.3837 169.019 40.6824 167.387 40.9219C166.652 41.2469 165.926 41.5291 165.183 41.6831C164.141 43.6416 162.629 45.8139 160.45 47.9862C161.424 47.8664 162.415 47.9862 163.406 48.4138L163.423 48.5848C162.552 49.2434 161.672 49.5683 160.766 49.7993C160.006 50.0131 159.177 49.9361 158.365 49.8848C156.896 51.1078 155.222 52.3137 153.239 53.4426C153.239 53.4426 153.513 55.4182 153.564 57.8984C153.692 57.8813 153.812 57.8471 153.94 57.8385C155.093 57.9668 156.213 58.0865 157.272 57.4793C159.391 56.4701 161.646 56.1366 163.927 56.9576L163.944 57.1287C162.902 57.8043 161.843 58.1378 160.766 58.3687C159.151 58.7451 157.383 58.1806 155.768 58.5141C155.042 58.8904 154.316 59.2154 153.564 59.4036C153.513 61.5759 153.248 63.9021 152.471 65.5527C153.419 65.4843 154.367 65.4672 155.324 65.4843C158.186 65.0653 160.911 63.7824 163.799 63.4745C165.721 63.2522 167.652 63.141 169.651 63.389L169.677 63.56C165.482 65.6896 160.911 65.5527 156.392 65.9462C158.929 66.2711 162.423 66.9382 166.123 68.2724C166.635 68.05 167.174 67.9132 167.729 67.8619C168.882 67.9645 170.001 68.0586 171.052 67.4257C173.145 66.3567 175.384 65.9633 177.69 66.6902L177.716 66.8613C176.699 67.5711 175.648 67.9389 174.572 68.204C172.966 68.6316 171.18 68.1185 169.574 68.4948C169.147 68.7257 168.72 68.948 168.284 69.1276C171.069 70.3335 173.88 71.9499 176.392 74.1222C176.588 74.1393 176.81 74.1821 177.058 74.2249C177.827 74.0282 178.203 72.9933 179.16 72.8052C179.698 72.7111 180.313 72.694 181.005 73.1216L181.031 73.2927C180.339 74.5071 179.39 74.9262 178.075 74.6696C177.682 74.5584 177.408 74.6525 177.178 74.8321C179.339 76.8504 181.244 79.2964 182.68 82.2983C182.68 82.2983 199.783 74.5926 195.725 54.0498C191.667 33.507 167.524 34.405 167.524 34.405C167.524 34.405 167.396 36.8253 165.901 40.1864C166.951 40.3574 167.96 40.4772 168.968 39.9897ZM182.748 63.2693C184.533 63.6541 185.319 63.8679 187.233 63.9192L187.327 64.0646C186.413 66.1429 183.209 65.8093 182.175 64.0304C181.885 63.6285 181.646 63.2522 181.313 62.9528C179.997 62.2344 179.126 60.7976 179.929 59.2668L180.099 59.2496C180.809 60.0279 181.184 60.618 181.432 61.3621C181.483 62.1917 181.808 63.0897 182.748 63.2693ZM188.72 52.4762C190.488 53.8103 190.087 60.3016 187.387 60.6779C184.687 61.0627 183.278 57.5819 183.278 57.5819C182.919 55.059 183.79 53.186 184.568 52.1512C185.345 51.1249 186.951 51.142 188.72 52.4762ZM187.438 45.8994C188.241 46.2329 188.899 46.8572 189.164 47.7381L189.061 47.875C188.13 47.9006 187.498 47.7809 186.891 47.6697C186.071 47.5329 184.926 46.7375 184.046 47.2335C183.175 48.294 183.286 48.6361 181.654 49.269L181.501 49.192C181.244 47.5414 182.432 46.7974 183.816 46.7204C185.003 46.1987 186.028 45.352 187.438 45.8994Z" fill="#1F644D"/>
<path d="M129.199 159.082C129.532 158.201 129.857 157.346 129.421 156.413C129.079 155.481 128.917 154.566 128.968 153.651C127.49 153.104 125.987 152.445 124.543 151.752C124.474 152.325 124.355 152.898 124.201 153.48C124.056 154.044 123.953 154.6 124.03 155.156C124.56 156.832 124.859 158.474 123.893 160.185H123.723C122.723 158.5 122.979 156.85 123.466 155.165C123.483 153.736 122.894 152.325 122.8 150.897C120.989 149.973 119.34 149.05 118.016 148.271C118.221 149.469 118.144 150.7 117.853 151.958C117.734 152.496 117.665 153.027 117.759 153.548C118.366 155.105 118.75 156.627 117.87 158.295L117.7 158.303C116.615 156.764 116.794 155.199 117.204 153.582C117.144 152 116.205 150.478 116.256 148.887C116.264 148.357 116.299 147.835 116.392 147.296C115.444 146.715 114.872 146.339 114.872 146.339L113.565 155.019C110.575 171.5 93.3599 171.431 93.3599 171.431C103.039 184.747 117.033 183.644 125.722 177.29C135.692 169.995 132.975 154.865 132.975 154.865C132.266 154.72 131.531 154.506 130.788 154.275C130.728 155.43 130.156 156.593 130.198 157.739C130.72 159.073 131.019 160.365 130.045 161.733H129.874C129.259 160.852 129.079 159.971 129.199 159.082ZM113.872 174.989C114.197 175.126 114.564 175.075 114.906 174.955C116.384 174.339 117.221 174.16 118.904 174.211L119.007 174.348C118.75 175.246 118.033 175.827 117.264 176.118C115.923 176.606 114.94 175.802 113.736 175.545C112.411 175.75 111.147 175.425 110.925 173.792L111.044 173.672C112.676 173.749 112.847 174.168 113.872 174.989ZM121.578 164.29C122.535 165.008 122.714 169.079 119.067 170.824C115.41 172.577 114.146 170.063 114.146 170.063C113.855 168.036 116.196 165.376 117.187 164.059C118.169 162.742 120.621 163.572 121.578 164.29Z" fill="#1F644D"/>
<path d="M120.425 13.0325C121.664 12.3313 123.107 12.1859 124.551 12.2457C126.456 11.8694 128.259 10.7833 130.258 10.8346C131.574 10.8517 132.898 11.0484 134.145 11.6813L134.137 11.8523C131.001 13.2036 127.875 12.3655 124.671 12.7931C123.33 13.4858 122.048 14.093 120.562 14.2555C120.715 15.6752 120.886 17.4798 120.98 19.3442C122.091 18.7968 123.321 18.6515 124.602 18.6087C126.337 18.1041 127.815 16.7614 129.592 16.368C130.771 16.0772 131.975 15.9147 133.291 16.0857L133.342 16.2482C130.745 18.7113 127.892 18.4205 124.765 19.1475C123.594 19.9087 122.398 20.5501 121.023 20.6698C121.083 22.8421 121.023 24.9973 120.707 26.6479C122.561 25.4677 124.449 24.4329 126.61 23.8171C129.173 22.5257 131.505 20.6698 134.333 19.9429C136.187 19.4212 138.109 19.1389 140.074 19.2416L140.117 19.4126C138.4 20.3961 136.648 21.0547 134.897 21.7132C132.291 22.6967 129.344 22.9961 126.866 24.3217C124.919 25.767 122.86 27.5203 120.382 27.8453C119.767 29.7781 119.041 31.0866 118.392 31.9675C120.929 30.4281 123.688 29.4189 126.542 28.5722C130.096 27.0242 133.342 24.7664 137.076 23.6033C139.545 22.8079 142.108 22.2349 144.747 22.1408L144.79 22.3119C139.015 25.3394 132.77 26.6992 126.781 29.0854C123.654 31.0011 120.493 32.7714 116.854 33.5668L118.152 35.8931C118.152 35.8931 120.886 33.2504 127.259 32.7287C128.78 31.2662 130.728 30.7873 132.736 30.4879C134.76 29.7268 136.486 28.1703 138.545 27.5032C139.912 27.0328 141.296 26.6821 142.834 26.5624L142.911 26.7164C140.271 29.6584 136.426 29.8978 132.941 31.0096C132.018 31.6511 131.095 32.2241 130.104 32.6432C130.48 32.6517 130.848 32.6517 131.232 32.6774C132.736 32.7629 134.248 32.951 135.743 33.2418C136.076 32.9938 136.443 32.8142 136.845 32.7116C137.768 32.6859 138.648 32.6774 139.34 31.9504C140.758 30.7103 142.466 30.1373 144.355 30.6847L144.406 30.8557C143.739 31.6254 142.996 32.0616 142.219 32.4037C141.074 32.951 139.587 32.6089 138.425 33.1306C138.212 33.3444 137.99 33.5411 137.768 33.7207C139.75 34.2681 141.646 35.072 143.406 36.1838C144.243 35.4825 145.158 35.5424 146.217 35.7049C147.328 35.4654 148.19 34.3451 149.318 34.1569C150.061 34.0115 150.839 33.9688 151.736 34.251L151.796 34.4135C151.257 35.1918 150.583 35.6194 149.865 35.9273C148.788 36.4233 147.464 35.9273 146.362 36.2523C145.841 36.6542 145.32 36.9878 144.747 37.1246C146.14 38.2022 147.404 39.5107 148.489 41.1015C149.361 40.5541 150.36 40.3317 151.445 40.2035C152.915 39.5706 154.051 38.1252 155.572 37.595C156.571 37.2187 157.614 36.9621 158.801 37.0305L158.869 37.193C157.383 39.0232 155.444 39.9212 153.197 40.2377C152.659 40.3232 152.129 40.4429 151.668 40.7251C150.933 41.3922 150.155 41.9823 149.267 42.3159C149.916 43.4448 150.489 44.702 150.967 46.096C151.744 45.8566 152.539 45.8737 153.419 45.9165C153.872 45.8395 154.273 45.5829 154.641 45.2836C156.153 43.9922 157.579 43.2225 159.63 43.0428L159.732 43.1882C159.297 44.1803 158.57 44.8645 157.767 45.3862C156.537 46.2158 154.931 45.9934 153.59 46.4552C152.915 46.9684 152.18 47.3703 151.394 47.4901C151.744 48.7387 152.052 50.0558 152.257 51.5097C152.257 51.5097 163.893 43.7869 165.644 37.5693C167.396 31.3517 167.84 12.5793 154.256 8.99582C140.681 5.41238 124.978 9.52607 120.194 11.3306C120.194 11.3135 120.297 11.9806 120.425 13.0325ZM162.654 32.8399C162.065 33.2162 161.33 33.3444 160.672 33.0622C160.356 32.9425 160.083 32.8313 159.792 32.8741C158.827 33.3017 158.007 33.3958 157.417 32.1557L157.468 31.9932C158.81 31.2577 158.963 31.7366 159.835 32.3182C160.527 32.4892 161.159 31.4715 161.638 31.2919C161.996 31.1294 162.355 31.1037 163.056 30.8044C163.705 31.0011 163.261 32.4806 162.654 32.8399ZM159.544 21.1659C161.279 22.4658 160.382 26.7249 158.895 28.709C157.409 30.6932 156.11 27.563 156.11 27.563C156.11 27.563 156.11 27.563 154.581 24.9717C153.052 22.3803 153.786 19.7547 154.811 18.3949C155.828 17.0436 157.819 19.8659 159.544 21.1659ZM153.111 14.5378C153.128 15.0424 152.043 15.6667 151.83 15.7607C151.232 16.0686 150.138 15.6239 149.634 16.0772C149.455 16.2653 149.429 16.6331 149.327 16.864C149.199 17.2061 148.114 17.7021 147.729 17.3943C147.567 16.616 147.874 16.0259 148.395 15.7607C149.028 15.6496 149.6 15.7009 149.925 15.0167C150.617 13.8878 152.061 13.5371 153.111 14.5378Z" fill="#1F644D"/>
<path d="M149.771 64.5435C152.129 56.2306 151.463 42.6237 139.622 36.7482C127.781 30.8727 118.451 37.937 118.451 37.937C118.451 37.937 118.793 38.4416 119.263 39.2968C120.032 38.7409 120.878 38.4673 121.758 38.4502C122.834 38.6469 123.851 38.8607 124.893 38.3561C126.952 37.5607 129.156 37.5521 131.095 38.758L131.078 38.9291C130.01 39.408 129.011 39.5705 128.003 39.6475C126.508 39.8014 124.927 39.0403 123.415 39.2455C122.176 39.81 121.006 40.2547 119.639 40.0067C120.22 41.1185 120.895 42.6066 121.424 44.3C121.433 44.3 121.442 44.3085 121.45 44.3085C122.304 44.2487 122.971 43.3079 123.97 43.2994C124.56 43.2994 125.175 43.4105 125.833 43.8809L125.858 44.052C125.354 44.6848 124.808 44.9671 124.235 45.1296C123.287 45.3947 122.415 44.7276 121.587 44.8644C121.954 46.1473 122.228 47.5242 122.296 48.9354C122.561 48.8841 122.834 49.0808 123.201 49.2518C123.723 49.2433 123.953 48.3453 124.705 48.3025C124.978 48.2939 125.841 48.5249 125.987 49.0893C125.73 49.7051 125.406 49.9788 125.064 50.1242C124.346 50.3636 123.808 49.6196 123.313 49.8077C123.142 49.8932 123.013 50.2097 122.851 50.3465C122.74 50.4491 122.509 50.4491 122.279 50.3807C122.262 50.7228 122.236 51.0649 122.185 51.407C122.116 51.9202 122.014 52.4419 121.911 52.9721C122.116 52.9807 122.313 52.9806 122.518 52.9978C124.227 52.6386 125.73 51.4327 127.473 51.1847C128.626 50.9965 129.797 50.9281 131.053 51.2189L131.087 51.3899C129.096 52.9293 126.832 53.4425 124.38 53.3484C123.782 53.3313 123.193 53.3569 122.638 53.5537C122.313 53.7333 121.988 53.9043 121.664 54.0583C121.493 54.751 121.296 55.4523 121.091 56.1365C121.929 55.8115 122.954 55.6661 123.594 55.6661C124.551 55.8714 125.457 56.1023 126.38 55.5977C128.199 54.7937 130.147 54.7424 131.89 55.8628L131.881 56.0339C130.95 56.5555 130.062 56.7522 129.173 56.8549C127.84 57.043 126.422 56.2904 125.09 56.4871C123.962 57.0601 122.262 57.4022 120.809 57.0516C120.271 58.7022 119.665 60.2673 119.092 61.6271C120.211 61.1567 121.424 61.114 122.672 61.1824C124.38 60.8232 125.884 59.6173 127.627 59.3693C128.78 59.1811 129.951 59.1127 131.206 59.4035L131.241 59.5745C129.25 61.114 126.986 61.6271 124.534 61.533C123.936 61.5159 123.347 61.5416 122.791 61.7383C121.45 62.4909 120.092 63.0725 118.537 62.9014C117.717 64.7402 117.093 65.9375 117.093 65.9375L117.17 66.4506C118.426 66.0145 119.75 65.929 121.117 65.9375C123.116 65.5013 124.919 64.2099 126.952 63.8935C128.302 63.654 129.677 63.5343 131.138 63.7652L131.181 63.9362C128.242 66.2197 124.679 65.9375 121.254 66.4934C119.998 67.1348 118.733 67.6736 117.366 67.8276L117.409 68.1269C117.409 68.1269 125.064 65.8605 132.838 69.7433C133.248 68.8111 133.65 69.1275 134.342 69.3499C134.889 69.29 135.068 68.3578 135.837 68.2381C136.119 68.1953 137.05 68.3322 137.238 68.8795C137.024 69.5295 136.708 69.8288 136.358 70.017C135.64 70.3334 135 69.6492 134.496 69.8973C134.333 69.9999 134.231 70.2736 134.094 70.4446C134.752 70.838 135.418 71.2571 136.068 71.7446L138.887 73.8656C138.913 73.8313 147.413 72.8564 149.771 64.5435ZM136.734 45.9591L136.631 45.8223C136.708 45.0098 137.178 44.5138 137.768 44.3855C138.426 44.4283 139.006 44.6079 139.502 44.0178C140.502 43.0684 141.997 43.0428 142.885 44.2316L142.859 44.4026C142.244 44.873 141.766 45.0526 141.288 45.1552C140.587 45.3348 139.587 44.6592 138.93 44.9842C138.246 45.7881 138.152 46.2243 136.734 45.9591ZM139.972 59.3949C138.426 58.2318 139.246 55.153 138.989 53.3741C138.733 51.5952 139.468 49.4314 141.706 49.115C143.944 48.7985 143.825 50.5347 145.081 51.4754C146.337 52.4162 146.567 57.5476 145.226 59.3351C143.893 61.114 141.39 60.464 139.972 59.3949Z" fill="#1F644D"/>
<path d="M64.458 124.504C64.5691 124.085 64.347 123.641 63.9369 123.495C61.7669 122.7 55.2569 120.032 52.1814 115.533C52.113 115.439 52.0618 115.336 51.9934 115.234C51.3356 116.807 50.4642 118.253 49.4817 119.612C47.7218 122.11 45.1075 123.82 43.0486 126.027C41.3229 128.55 39.2896 130.85 36.3507 132.073L36.2396 131.945C37.8885 129.251 40.2037 127.446 42.6471 125.642C45.7739 122.041 47.9781 117.825 51.6517 114.678C50.4898 112.848 49.5244 110.88 48.7299 108.973C48.2002 110.128 47.5765 111.223 46.8931 112.283C45.3211 114.78 42.9119 116.628 41.152 118.98C39.768 121.614 38.1533 124.077 35.5135 125.702L35.3768 125.591C36.5045 122.708 38.5121 120.639 40.6992 118.637C43.2109 115.003 45.0307 110.94 48.2685 107.87C47.2092 105.125 46.5086 102.636 46.1327 101.148C46.0815 100.943 45.9875 100.763 45.8679 100.609C43.0657 103.491 39.4861 105.253 36.3849 107.793C34.7275 110.017 33.0786 112.069 30.6182 113.574L30.4815 113.463C31.4554 110.675 33.6425 108.862 36.009 107.374C38.0594 105.544 39.6313 103.149 41.9465 101.601C42.724 101.062 43.5356 100.566 44.3899 100.147C44.3728 100.147 44.3557 100.147 44.3472 100.156C42.3908 100.789 38.6916 102.106 34.5652 104.133C33.4973 104.834 32.4208 105.535 31.4042 106.331C29.9689 108.289 28.4824 110.085 26.1159 111.103L25.9877 110.983C26.6883 109.273 27.8758 108.041 29.2598 107.04C26.6028 108.674 23.9972 110.573 21.7503 112.771C12.6859 121.631 7.63682 131.304 13.207 144.739C13.207 144.739 18.7345 157.038 29.2427 155.55C39.5971 154.044 59.7165 141.926 64.458 124.504ZM26.2269 127.464C27.2949 123.76 29.6528 120.818 32.3268 118.184C34.6335 115.268 36.4447 111.932 39.1871 109.375C40.9897 107.656 42.9632 106.117 45.193 104.928L45.304 105.056C41.7159 110.171 36.7437 113.814 32.7711 118.535C30.9172 121.759 29.106 124.889 26.3807 127.558L26.2269 127.464ZM58.0335 122.418C57.3244 124.222 56.3248 125.796 55.2057 127.284C53.5568 129.55 51.122 131.124 49.3279 133.253C47.8841 135.691 46.2353 137.94 43.6125 139.326L43.4843 139.206C44.6633 136.495 46.6966 134.639 48.9007 132.877C51.7713 129.2 53.8473 124.958 57.8968 122.306L58.0335 122.418ZM47.9695 127.515C49.2339 126.172 49.8405 124.248 51.1989 122.974C52.0788 122.118 53.0528 121.34 54.2915 120.801L54.4197 120.921C53.4201 124.359 50.7375 125.668 48.3882 127.891C47.5253 129.602 46.5172 131.141 44.5351 131.868L44.407 131.748C44.9281 129.713 46.3549 128.55 47.9695 127.515ZM18.5722 139.762C17.6837 138.411 18.5722 134.827 19.922 134.63C21.2719 134.442 23.8519 136.503 24.1424 138.53C24.4329 140.557 24.8088 143.251 22.8353 143.533C20.8618 143.824 18.5722 139.762 18.5722 139.762ZM23.271 146.766L23.2881 146.595C28.6789 144.85 31.4383 146.056 28.5849 139.274C28.0979 137.932 27.5853 136.64 27.3119 135.186L27.4572 135.092C30.0202 137.017 31.857 140.6 30.4559 143.747C29.7724 144.936 29.0206 146.159 27.7818 146.869C26.3209 147.57 24.655 147.468 23.271 146.766ZM41.8696 149.187L41.7586 149.058C44.1934 145.595 47.2519 142.96 50.4044 140.266C54.8469 135.024 58.0933 128.96 63.0057 124.051L63.1509 124.145C62.1513 126.762 60.7673 129.183 59.1868 131.457C56.8374 134.904 53.5825 137.572 50.823 140.651C48.4052 144.038 45.6287 147.177 41.8696 149.187Z" fill="#1F644D"/>
<path d="M45.6884 96.9056C44.6205 97.3675 43.4501 97.624 42.2797 97.7694C40.0157 98.5135 37.9312 99.899 35.4963 100.113C33.8987 100.275 32.267 100.224 30.6779 99.7108L30.6694 99.5398C34.3857 97.8892 38.29 98.274 42.0917 97.2306C43.4074 96.4182 44.6889 95.6741 46.0985 95.1439C46.3633 94.2117 46.8076 92.963 47.5423 91.3381C45.1417 92.2275 42.6385 92.39 40.0926 92.3814C37.1025 92.8347 34.2576 94.1603 31.2503 94.5024C29.2512 94.7505 27.2265 94.8873 25.1504 94.6649L25.1248 94.4939C29.8236 92.142 34.9666 92.4157 40.0072 91.8341C42.5958 90.9446 45.2015 90.2433 47.978 90.4401C48.3796 89.6019 48.8324 88.7039 49.3877 87.6776C51.5149 83.7521 54.8981 81.2035 57.7173 79.6469C55.4192 80.2285 53.0613 80.3226 50.6777 80.2969C47.4313 80.7245 44.3044 81.9988 41.0324 82.3153C38.8624 82.5462 36.6668 82.6403 34.4199 82.4008L34.3942 82.2298C39.5715 79.9377 45.1246 80.2627 50.5923 79.7325C53.3945 78.8858 56.2052 78.2101 59.1526 78.4154C59.4004 77.6885 59.0672 76.799 58.1872 76.5681C47.2177 73.7458 41.0494 68.6828 37.6919 64.6204C36.3848 64.723 35.0948 64.5777 33.7535 64.3809C30.0628 64.954 26.7053 66.6559 22.8267 66.1171L22.784 65.946C24.0655 65.0138 25.4922 64.475 26.9531 64.1073C29.1572 63.5172 31.4725 64.0388 33.7022 63.8165C34.6505 63.5172 35.6245 63.2862 36.5899 63.2007C35.6245 61.858 34.9837 60.6949 34.5737 59.8482C34.1721 59.0015 33.2495 58.5568 32.3353 58.762C27.6109 59.8225 14.0015 63.1152 8.27752 67.2289C1.29768 72.2491 -1.45325 80.1943 2.76712 92.2189C6.99603 104.244 25.6118 104.586 30.1141 103.944C33.7193 103.431 41.562 99.6681 44.5436 98.1885C45.1075 97.9405 45.509 97.4701 45.6884 96.9056ZM50.242 84.8126L50.2591 84.9836C47.9011 86.1724 45.4834 86.104 43.0144 85.8047C40.5881 85.9757 38.2473 87.0191 35.8039 87.079C34.1807 87.1388 32.5489 87.079 30.8915 86.6599L30.8744 86.4889C34.7531 84.5988 38.8709 85.3514 42.9631 85.2487C45.3467 84.5303 47.7217 84.0514 50.242 84.8126ZM51.6431 75.3109L51.6687 75.4819C49.4304 76.7904 47.0554 76.8503 44.612 76.6793C42.2455 76.9786 40.0072 78.1417 37.6236 78.3213C36.0431 78.4667 34.437 78.4924 32.7881 78.1588L32.7625 77.9878C36.4532 75.901 40.5283 76.4312 44.5351 76.1234C46.8332 75.2852 49.1314 74.678 51.6431 75.3109ZM29.9005 72.3774L29.8749 72.2064C30.7548 71.5136 31.6775 71.1801 32.6258 70.9663C34.044 70.6071 35.5903 71.2314 37.017 70.9919C38.3839 70.2821 39.7423 69.8032 41.3399 70.5729L41.3655 70.7439C40.4941 71.4709 39.5629 71.7788 38.589 71.7788C37.598 71.5735 36.624 71.3768 35.6843 71.9412C33.8219 72.8649 31.9082 73.1471 29.9005 72.3774ZM7.32922 86.2494C7.32922 86.2494 5.86832 81.1693 7.26087 79.3048C8.65342 77.449 10.0118 80.5706 11.8144 81.9304C13.6171 83.2817 12.6431 86.6599 10.9259 88.9519C9.20019 91.244 7.32922 86.2494 7.32922 86.2494ZM10.7038 92.2104L10.738 92.0393C12.0024 91.6117 12.6858 91.0473 13.5402 90.4315C14.5995 89.944 15.3855 88.8579 15.3001 87.6349C15.2403 85.1718 15.1036 82.8626 15.8298 80.4851L16.0006 80.4594C17.9399 83.487 17.0087 86.7369 15.3684 89.6019C15.1121 90.1749 14.9925 90.8933 14.5483 91.4663C13.7025 92.5781 11.8828 93.0742 10.7038 92.2104Z" fill="#1F644D"/>
<path d="M78.9046 170.473C79.1694 169.909 79.084 169.259 78.6739 168.78C78.5629 168.643 78.4262 168.481 78.2895 168.318C78.2468 168.395 78.204 168.481 78.1528 168.566C76.9653 170.653 74.8636 171.953 73.2831 173.68C72.0444 175.725 70.4297 177.546 67.9521 178.162L67.8496 178.025C69.114 175.861 70.9252 174.621 72.8731 173.296C74.5304 171.286 75.6496 168.968 77.1191 166.873C74.1802 163.127 69.2336 156.063 68.3622 149.965C68.1999 148.836 68.0888 147.587 67.9949 146.279C66.252 149.229 64.2273 152.017 62.5528 155.036C61.4678 158.355 60.2974 161.553 58.0676 164.367L57.9053 164.299C58.341 160.707 60.0496 157.662 62.0488 154.78C63.6293 151.692 64.5519 148.254 66.4485 145.329C66.8928 144.628 67.3627 143.952 67.8496 143.285C67.7215 139.291 67.824 135.075 67.9692 131.782C65.9274 137.829 62.0402 142.832 58.9305 148.323C57.5635 152.052 56.0685 155.669 53.4713 158.799L53.3175 158.722C54.1548 154.737 56.171 151.333 58.435 148.066C60.2803 144.585 61.4165 140.72 63.4755 137.341C64.7911 135.118 66.2606 132.98 68.0119 131.021C68.0888 129.388 68.1657 128.028 68.2255 127.121C68.2682 126.471 67.7044 125.95 67.0551 126.044L65.4917 126.266C65.1927 126.309 64.9449 126.506 64.8253 126.788L63.4242 130.234C62.4759 133.288 59.144 137.718 55.8293 141.925C55.1629 145.517 52.9844 148.494 51.3697 151.744C50.8656 154.232 50.1651 156.61 48.2856 158.534L48.1232 158.466C48.1916 155.78 49.4047 153.617 50.8485 151.521C51.5918 149.836 51.8908 147.972 52.4461 146.21C52.019 146.758 51.6089 147.288 51.2244 147.801C50.3274 148.99 48.969 150.067 47.3885 151.017C46.389 153.48 44.612 155.498 43.3903 157.901C43.0656 160.005 42.6641 161.964 41.1349 163.683L40.964 163.631C40.6137 161.331 41.5962 159.424 42.8691 157.688C43.6039 156.02 43.8431 154.121 44.6632 152.471C42.9289 153.292 41.1263 153.984 39.4775 154.549C39.4433 154.686 39.4262 154.84 39.3835 154.968C39.093 156.045 37.9141 156.832 37.6407 157.927C37.803 159.184 37.8628 160.21 36.6753 161.22L36.5044 161.194C36.0431 160.339 36.0431 159.509 36.3677 158.782C36.8803 158.115 37.41 157.525 37.2648 156.601C37.2306 156.122 37.2819 155.669 37.3673 155.233C36.3079 155.558 35.3938 155.806 34.7274 155.986C34.061 156.157 33.6424 156.807 33.7364 157.491L34.4626 162.349C34.4626 162.349 35.9149 185.56 54.3684 186.15C70.2161 186.654 77.2301 174.082 78.9046 170.473ZM42.2455 169.661C41.9379 168.968 42.1259 168.378 42.5701 168.087C43.1511 167.916 43.6637 167.967 43.8687 167.266C44.3386 166.103 45.6628 165.658 46.6794 166.573C46.7392 167.069 45.8678 167.762 45.697 167.865C45.21 168.19 44.1506 167.831 43.7833 168.292C43.6551 168.481 43.6978 168.831 43.6466 169.054C43.5868 169.404 42.6556 169.9 42.2455 169.661ZM64.5519 166.531C64.475 165.41 64.7741 164.487 65.3464 163.708C66.0983 163.041 66.8244 162.383 66.9184 161.305C67.2687 159.278 68.1657 157.585 69.9683 156.439L70.1221 156.516C70.1648 157.619 69.8915 158.56 69.507 159.441C68.9602 160.784 67.5506 161.647 66.9099 162.922C66.6792 164.427 66.2691 165.795 64.7142 166.616L64.5519 166.531ZM73.7274 163.794L73.8812 163.879C73.8641 165 73.4967 165.949 73.0012 166.813C72.2665 168.139 70.7202 168.771 69.7804 169.909C69.1995 171.354 68.3622 172.629 66.6023 172.919L66.4827 172.791C66.8842 171.072 68.0205 170.302 69.3532 169.541C69.7206 169.216 69.9427 168.78 70.1307 168.31C70.8483 166.368 71.8735 164.872 73.7274 163.794ZM47.1664 174.852C45.8166 174.023 45.6286 170.422 47.9097 170.106C50.1907 169.781 52.7537 171.038 53.702 171.756C54.6503 172.475 54.5307 173.672 52.9331 175.793C51.3441 177.914 47.1664 174.852 47.1664 174.852ZM54.2146 180.659C52.4547 181.566 50.3189 181.831 48.6273 180.471L48.6615 180.3C50.635 179.693 52.2155 179.975 54.0864 180.103C55.7695 179.804 57.0509 178.153 58.0078 176.973C58.6912 176.152 59.2466 175.203 60.0325 174.091L60.2034 174.117C60.9638 176.811 58.8536 179.872 56.1026 180.232C55.4363 180.36 54.8126 180.445 54.2146 180.659Z" fill="#1F644D"/>
<path d="M72.856 133.826C72.8389 131.594 71.9419 129.388 72.0444 127.156C72.0615 126.651 72.0957 126.138 72.1469 125.633C71.6343 125.667 71.2072 125.693 70.8911 125.702C70.5152 125.719 70.1991 125.984 70.1222 126.352C68.7296 132.86 68.0462 153.112 75.7693 162.22C83.7572 171.645 96.5037 170.986 104.859 165.205C113.214 159.424 115.7 142.268 111.941 128.216C108.763 116.311 100.169 110.008 97.5204 108.306C97.1359 108.058 96.6404 108.28 96.5208 108.725C96.2645 109.649 95.863 110.641 95.3589 111.659C96.6319 112.967 97.6315 114.541 98.3662 116.208C99.8271 119.458 99.7245 122.99 100.135 126.429C101.015 129.781 101.365 133.219 100.451 136.649H100.28C99.229 133.253 99.4426 129.918 99.5793 126.488C98.8104 121.588 96.8113 117.132 94.8805 112.591C93.8639 114.447 92.5311 116.345 91.019 118.09C91.7708 119.347 92.3432 120.698 92.8045 122.075C93.7784 124.889 93.5905 127.925 94.0775 130.816C95.0258 133.638 95.5811 136.58 94.6669 139.556L94.4961 139.565C93.4453 136.683 93.4538 133.852 93.5221 130.91C92.6678 126.839 90.8994 123.102 90.2244 118.997C89.2676 120.014 88.268 120.964 87.2428 121.785C86.6534 122.255 85.9272 122.665 85.1241 123.025C86.5765 126.548 86.1237 130.32 86.3544 134.049C87.1574 136.401 87.7298 138.761 87.0549 141.31L86.884 141.327C85.6111 139.018 85.594 136.597 85.799 134.117C85.5427 131.705 84.4065 129.396 84.2698 126.959C84.1844 125.779 84.1673 124.581 84.2954 123.375C82.8687 123.923 81.254 124.35 79.6223 124.675C79.9469 125.616 80.1947 126.565 80.3826 127.532C80.9208 130.115 80.4082 132.8 80.6902 135.391C81.442 137.949 81.9033 140.54 81.0319 143.208L80.861 143.217C79.776 140.651 79.87 138.085 80.1349 135.451C79.5881 131.894 78.375 128.498 78.3664 124.915C76.7005 125.197 75.0943 125.385 73.753 125.505C74.129 128.242 73.548 131.021 73.4284 133.818C73.9923 136.041 74.3254 138.239 73.4028 140.514H73.2319C72.1811 138.291 72.4032 136.076 72.856 133.826ZM88.2424 164.649C89.6093 164.358 90.3697 164.487 91.5743 165.35L91.5999 165.521C91.0788 166.163 90.3953 166.377 89.7289 166.394C88.4816 166.368 88.0886 165.427 87.1489 165.034C86.0041 165.06 85.0985 164.837 85.0216 163.349L85.1412 163.221C86.6363 163.178 86.7046 163.623 87.3795 164.521C87.6188 164.7 87.9263 164.709 88.2424 164.649ZM94.5559 162.289C92.6593 164.812 86.8242 160.963 86.8242 160.963C86.8242 160.963 85.4744 158.149 86.8499 156.319C88.2253 154.489 92.5397 156.832 94.1971 157.679C95.8545 158.526 96.4525 159.766 94.5559 162.289ZM89.1736 150.974C92.1296 151.23 94.872 152.376 97.7511 153.044C99.5537 153.839 101.143 155.464 101.604 157.439L101.45 157.525C99.2034 155.703 97.1616 154.181 94.7011 152.847C90.5918 151.65 85.1839 153.437 81.0234 153.916L80.9465 153.762C83.1763 151.812 86.2177 150.811 89.1736 150.974ZM107.721 132.467C107.362 129.858 104.244 124.35 103.185 121.913C102.151 119.578 101.151 117.201 100.425 114.66L100.579 114.575C104.97 119.595 107.046 125.898 108.268 132.338C109.643 136.033 110.199 140.224 108.516 143.944L108.345 143.91C108.114 141.19 108.02 135.084 107.721 132.467Z" fill="#1F644D"/>
<path d="M95.5127 99.2749C94.6499 93.2027 90.0023 83.0681 81.3737 78.7834C72.7364 74.4986 56.7862 79.7327 53.8815 83.6069C50.9768 87.4811 43.8175 100.19 54.7871 116.08C54.7871 116.08 65.338 127.438 81.3309 122.178C97.3239 116.927 95.6665 100.404 95.5127 99.2749ZM59.52 86.0615L59.4175 85.9246C59.8959 84.3766 61.1689 84.0431 62.5187 84.103C63.6891 83.7181 64.6887 82.6576 66.0043 82.7175C66.8501 82.7346 67.713 82.9569 68.4392 83.5984L68.4221 83.7694C67.5848 84.2398 66.8672 84.428 66.141 84.5648C65.0817 84.7872 63.7575 84.2056 62.7066 84.6332C61.7498 85.5141 61.092 86.1812 59.52 86.0615ZM61.596 95.4691L61.4764 95.3408C61.6131 93.8441 62.5614 93.5961 63.7318 93.5961C64.6887 93.1856 65.1329 92.1935 66.3802 92.1165C67.0637 92.0909 67.7813 92.2619 68.3879 92.852L68.3794 93.0231C67.7386 93.5533 67.2089 93.7843 66.6622 93.9468C65.8847 94.2119 64.7485 93.6731 63.9796 94.1007C63.279 95.0158 63.0911 95.5289 61.596 95.4691ZM83.014 91.9541L83.1592 91.8514C84.0648 92.1679 84.6457 92.8863 84.9704 93.6731C85.5086 94.9559 84.791 96.1362 84.6628 97.3763C85.0045 98.7019 84.8679 100.019 83.3044 100.592L83.1592 100.498C82.9456 98.8986 83.4155 98.4368 84.099 97.3078C84.21 96.9486 84.116 96.5638 83.9623 96.2131C83.2361 94.6994 82.9627 93.7073 83.014 91.9541ZM64.6887 102.148C63.5781 100.677 64.4409 97.8723 65.1842 96.8888C65.9275 95.9052 68.9347 96.2644 69.9428 97.0171C70.9423 97.7697 70.9851 101.995 69.2252 104.346C67.4567 106.69 64.6887 102.148 64.6887 102.148ZM67.5507 110.265C65.4234 110.692 63.0655 110.077 61.8694 108.092L61.9634 107.947C64.1505 108.204 65.6541 109.084 67.5763 109.7C70.9509 109.632 73.0525 106.818 75.9402 105.27L76.0854 105.373C75.026 109.452 71.3866 110.727 67.5507 110.265ZM68.7296 117.457L68.7467 117.286C70.4725 116.457 71.9077 116.611 73.6249 116.722C74.1717 116.645 74.6672 116.38 75.12 116.055C76.9739 114.661 78.5288 113.651 80.7671 112.856L80.8952 112.976C80.5193 114.173 79.7077 115.097 78.7594 115.798C77.3071 116.91 75.4276 116.816 73.7616 117.261C72.2324 118.167 70.3699 118.612 68.7296 117.457Z" fill="#1F644D"/>
</svg>
