<svg width="182" height="198" viewBox="0 0 182 198" fill="none" xmlns="http://www.w3.org/2000/svg">
<path d="M113.451 59.232C112.827 60.6684 112.408 62.1818 112.212 63.7209C113.323 61.7201 114.877 59.9844 116.577 58.4283C118.773 55.7948 120.533 52.7509 123.216 50.5449C124.976 49.0657 126.915 47.7831 129.076 46.8939L129.179 47.0307C125.591 51.5281 120.806 54.555 117.022 58.7873C115.535 61.2926 114.083 63.7209 112.118 65.8841C112.144 66.9956 112.289 68.0901 112.571 69.1674C114.091 67.483 115.885 66.0979 117.782 64.8068C120.234 62.5751 122.096 59.7108 124.625 57.5647C126.291 56.1111 128.06 54.7687 130.05 53.6657L130.17 53.794C127.188 58.6762 122.404 61.626 118.167 65.2257C116.62 67.1837 114.988 69.0306 112.989 70.4841C113.075 70.7236 113.152 70.963 113.254 71.1938C113.536 71.8266 113.869 72.4251 114.237 72.9979C115.945 71.3648 117.927 70.1251 120.029 68.9793C122.643 67.0127 124.736 64.3621 127.427 62.4811C129.204 61.2071 131.067 60.0528 133.151 59.1465L133.262 59.2833C129.896 63.8235 124.873 66.2774 120.371 69.4325C118.722 71.1511 116.996 72.7756 114.971 74.0069C115.475 74.6567 116.039 75.2809 116.689 75.8537C118.329 74.0667 120.388 73.2715 122.609 72.6474C124.711 71.5871 126.402 69.7488 128.564 68.7826C129.99 68.1243 131.477 67.5685 133.143 67.3206L133.228 67.4745C130.503 70.6552 126.488 71.5273 122.865 73.1519C121.165 74.5712 119.363 75.8195 117.124 76.1872C118.312 77.1619 119.739 78.0084 121.422 78.7266C122.865 78.1196 124.369 77.6664 125.907 77.2218C130.435 74.7678 134.236 71.2793 139.243 69.6633L139.345 69.8087C137.987 71.4418 136.355 72.75 134.621 73.8872C132.032 75.64 128.922 76.3668 126.154 77.7348C125.249 78.3675 124.309 78.9575 123.344 79.462C124.728 79.9322 126.231 80.3427 127.931 80.659C128.606 80.7873 129.273 80.8728 129.948 80.9412C132.152 79.462 134.544 78.5043 137.03 77.5894C141.626 74.7165 145.385 70.8176 150.46 68.6287L150.571 68.7656C149.255 70.5697 147.641 72.066 145.906 73.3913C143.318 75.4262 140.123 76.4523 137.303 78.0854C135.791 79.2739 134.185 80.3427 132.442 81.1122C143.275 81.3088 153.988 75.5203 159.26 70.2533C165.257 64.251 170.135 54.2557 166.752 47.2616C163.369 40.2674 157.901 37.7194 153.356 36.1291C148.811 34.5387 134.963 36.1291 126.112 41.7723C120.123 45.5771 115.689 54.1018 113.451 59.232ZM157.602 57.2141C157.047 57.2996 156.449 57.197 155.996 56.778C155.765 56.5814 155.56 56.4275 155.313 56.4104C155.065 56.3847 154.723 56.5472 154.424 56.513C153.852 56.4617 153.262 55.3929 153.732 54.9654C154.484 54.897 154.817 54.9226 155.09 55.2304C155.21 55.41 155.287 55.752 155.483 55.8717C155.671 56 155.919 55.9487 156.141 55.829C157.175 55.2304 157.5 55.2903 158.704 55.752C159.012 56.3591 158.029 57.1371 157.602 57.2141ZM154.33 44.0124C156.654 44.0124 158.371 46.9452 159.396 47.9712C160.421 48.9973 158.371 51.7334 156.637 51.7334C154.903 51.7334 151.263 48.4928 151.263 46.2099C151.263 43.9184 154.33 44.0124 154.33 44.0124ZM149.648 40.618C150.486 40.0708 151.4 39.1388 152.545 39.4979C152.912 39.5577 154.082 39.9853 153.937 40.4641C152.946 40.789 152.246 41.0626 151.272 41.0027C150.349 40.7462 149.332 41.1481 149.042 42.0715C148.546 43.7217 148.734 45.4916 147.863 47.2359L147.692 47.2445C146.137 44.8162 146.607 41.3875 149.648 40.618Z" fill="#CA4024"/>
<path d="M178.097 91.783C173.236 86.9179 165.078 80.984 157.337 78.2906C157.858 78.8721 158.354 79.4791 158.824 80.0948C161.122 82.3691 163.907 84.1903 165.804 86.8666C167.077 88.6194 168.179 90.509 168.879 92.6124L168.734 92.7065C164.599 89.1495 162.113 84.4041 158.431 80.5052C157.004 79.5133 155.612 78.5215 154.313 77.41C154.219 77.3843 154.117 77.3587 154.023 77.333C154.023 77.333 148.495 82.0784 143.121 82.0784C143.121 82.0784 150.058 88.2175 151.699 94.8868C152.049 96.3061 152.459 97.9307 152.818 99.6493C153.612 99.5809 154.219 99.7861 154.672 100.231C155.048 100.872 155.389 101.513 156.244 101.547C157.79 101.761 158.909 102.522 159.439 104.087L159.345 104.232C158.474 104.335 157.799 104.13 157.184 103.83C156.227 103.386 155.851 102.146 154.979 101.624C154.168 101.513 153.51 101.368 153.049 100.838C153.638 104.155 153.877 107.798 152.938 111.295C153.057 111.286 153.177 111.286 153.313 111.243C154.766 110.919 156.15 111.517 156.679 113.005L156.594 113.159C155.782 113.338 155.184 113.278 154.621 113.133C153.954 112.988 153.399 112.312 152.767 111.97C152.22 113.697 151.34 115.373 150.058 116.947C150.067 116.955 150.076 116.964 150.093 116.972C150.913 117.254 151.912 116.656 152.835 117.049C153.382 117.28 153.903 117.631 154.33 118.323L154.287 118.494C153.57 118.879 152.946 118.913 152.348 118.836C151.348 118.708 150.802 117.69 149.947 117.511C149.785 117.545 149.631 117.579 149.478 117.605C148.871 118.272 148.205 118.93 147.427 119.554C147.427 119.554 148.615 123.582 153.595 125.394C158.576 127.215 175.381 127.275 179.012 116.562C182.634 105.874 183.659 97.3492 178.097 91.783ZM160.823 95.9299C157.243 94.1514 155.432 90.7399 152.784 88.0038C150.768 86.8666 148.914 85.661 147.726 83.4892L147.829 83.3524C150.238 83.9851 151.81 85.6781 153.16 87.5848C154.826 89.141 157.03 90.1157 158.508 91.8856C159.499 93.0399 160.387 94.3053 160.951 95.8187L160.823 95.9299ZM169.272 116.664C168.025 117.913 164.445 118.545 162.566 116.664C160.686 114.783 165.171 110.542 165.171 110.542C166.786 108.721 169.486 111.004 170.605 112.133C171.724 113.253 170.52 115.416 169.272 116.664ZM172.989 112.483L172.818 112.441C172.22 110.474 172.51 109.063 172.074 107.191C171.81 106.122 170.793 106.011 169.904 106.199C169.067 106.216 168.307 106.096 167.222 105.84L167.162 105.677C167.88 104.779 169.093 104.455 170.152 104.771C171.16 105.318 171.861 106.002 172.843 106.609C174.697 108.037 174.535 110.91 172.989 112.483Z" fill="#CA4024"/>
<path d="M72.9727 136.775C72.9727 136.775 68.4362 131.781 67.1718 125.36C66.5994 125.924 65.8989 126.343 65.1385 126.72C64.0108 127.771 63.4897 129.456 62.2765 130.43C61.482 131.097 60.6106 131.67 59.4829 131.995L59.3633 131.875C60.0724 129.712 61.5589 128.284 63.5067 127.267C63.9766 127.01 64.4294 126.728 64.7455 126.326C65.2923 125.266 65.9245 124.317 66.924 123.727C66.8728 123.214 66.8386 122.692 66.8386 122.162C66.8386 120.367 66.8984 118.665 67.0095 117.032C66.8472 117.22 66.6677 117.391 66.4798 117.545C65.5486 118.041 64.6515 118.537 64.2586 119.597C63.3444 121.547 61.986 123.034 59.8844 123.761L59.7562 123.641C60.0296 122.521 60.5593 121.649 61.183 120.854C62.0971 119.64 63.7289 119.101 64.7199 117.964C65.2666 116.75 65.9416 115.69 67.1633 115.091C67.599 110.465 68.4447 106.703 69.5383 104.343C71.1444 100.863 71.3751 98.2129 71.3751 98.2129C71.3751 98.2129 68.5302 101.248 62.5072 103.582C61.9092 104.874 60.9438 105.925 59.8503 106.891C58.6115 108.593 57.9963 110.765 56.5013 112.304C55.5359 113.338 54.4424 114.262 53.0755 114.903L52.9473 114.783C54.1604 111.252 57.1506 109.303 59.3889 106.567C59.6964 105.788 60.0125 105.036 60.397 104.326C58.731 104.848 56.8772 105.31 54.8097 105.643C43.4557 107.464 35.2798 107.464 35.2798 107.464C35.2798 107.464 26.6511 114.732 26.6511 124.283C26.6511 133.825 33.1526 144.957 42.3195 147.249C51.4778 149.54 64.0023 146.437 66.8386 143.598C69.6835 140.751 72.9727 136.775 72.9727 136.775ZM47.4881 109.824C47.9495 109.097 48.9149 109.243 49.2651 108.704C49.3677 108.499 49.2908 108.148 49.3506 107.909C49.4275 107.516 50.3758 107.045 50.82 107.404C51.0849 108.721 50.5723 108.79 49.6923 109.063C49.2224 109.491 49.5385 110.431 48.9063 111.013C48.6842 111.226 47.753 111.731 47.2746 111.389C47.1379 110.688 47.266 110.217 47.4881 109.824ZM36.6211 130.123C36.4076 130.413 36.3819 130.79 36.4076 131.157C36.6126 132.765 36.5272 133.739 35.8095 135.287L35.6386 135.33C34.9296 134.731 34.6562 133.902 34.622 133.098C34.5707 131.73 35.613 130.986 36.1085 129.883C36.1769 128.575 36.6638 127.429 38.27 127.361L38.381 127.489C38.1675 129.062 37.6036 129.319 36.6211 130.123ZM37.3387 116.818C36.698 117.776 35.9633 118.674 34.9295 119.426L34.7758 119.341C34.8612 115.878 37.1423 114.21 39.0047 111.748C39.5173 110.004 40.2435 108.405 42.0632 107.524L42.2084 107.627C42.0034 109.628 40.8415 110.859 39.4746 112.056C38.5092 113.492 38.3298 115.408 37.3387 116.818ZM40.9098 135.885C38.6629 133.637 42.1315 130.054 42.1315 130.054C43.4984 130.054 46.4458 130.978 47.5821 132.115C48.7184 133.252 48.5987 135.638 47.5821 136.655C46.5655 137.673 43.1567 138.126 40.9098 135.885ZM52.0588 136.877C51.6744 138.28 51.6572 139.947 50.3074 140.904C49.4616 141.512 48.4023 141.802 47.3771 141.52L47.3258 141.349C48.6329 139.853 49.5043 139.16 50.8969 137.861C51.213 137.553 51.4693 137.168 51.512 136.723C51.3668 135.304 51.0849 134.252 51.9819 132.799L52.1528 132.782C53.2463 134.116 52.9217 135.655 52.0588 136.877ZM55.1515 121.512L55.0233 121.401C56.8686 116.861 60.5593 113.826 63.4384 110.038C64.6088 107.413 65.8561 104.925 68.1372 102.975L68.291 103.061C67.6844 106.019 65.9245 108.285 63.9083 110.354C62.2765 112.689 61.2855 115.467 59.406 117.631C58.1587 119.084 56.8003 120.435 55.1515 121.512ZM72.2636 136.142L72.3746 136.279C72.3063 137.655 71.6997 137.732 70.7087 137.878C70.0936 138.28 70.1192 139.34 69.3247 139.827C69.0513 140.007 67.8894 140.443 67.4964 140.007C67.5391 139.254 67.8126 138.775 68.1628 138.391C68.8121 137.707 69.8288 137.963 70.3584 137.442C70.7087 136.501 70.9137 135.911 72.2636 136.142ZM65.4461 135.467C65.335 134.791 65.4802 134.364 65.7024 134.022C66.1979 133.38 67.0949 133.662 67.4367 133.201C67.5392 133.021 67.4879 132.679 67.5477 132.465C67.6502 132.098 68.5558 131.79 68.9744 132.183C69.1709 133.543 68.6498 133.44 67.8382 133.603C67.3768 133.936 67.6502 134.851 67.018 135.338C66.7873 135.501 65.8818 135.851 65.4461 135.467Z" fill="#CA4024"/>
<path d="M81.8321 139.955C97.7226 145.633 104.737 132.662 107.257 130.14C109.777 127.617 111.059 115.185 111.059 115.185C111.059 115.185 108.291 111.756 105.54 108.43C105.497 109.174 105.335 109.927 105.112 110.662C105.019 112.552 105.659 114.501 105.164 116.374C104.856 117.613 104.369 118.819 103.489 119.862L103.318 119.811C102.669 116.485 104.19 113.783 104.549 110.636C104.224 109.294 103.951 108.029 104.104 106.695C102.49 104.762 101.054 103.078 100.439 102.462C100.397 102.42 100.354 102.351 100.311 102.3C100.072 103.557 99.5679 104.745 98.987 105.925C98.4317 108.071 98.7392 110.423 98.0643 112.552C97.6457 113.971 97.1075 115.365 96.219 116.673L96.0481 116.63C95.3988 112.706 97.321 109.371 98.4317 105.797C98.4488 104.044 98.6025 102.334 99.3372 100.752C97.7567 97.5715 96.1164 91.7744 96.1164 91.7744C96.1164 91.7744 94.0148 92.2276 91.6483 92.6294C90.8965 94.6302 89.897 96.5027 88.8291 98.3838C87.1546 103.548 86.8299 108.969 84.4122 113.945L84.2413 113.92C84.0619 111.688 84.3097 109.499 84.771 107.362C85.4203 104.121 87.1973 101.265 88.3079 98.1957C88.6924 96.3659 89.2135 94.5703 90.0166 92.903C88.6497 93.1082 87.3254 93.2536 86.4027 93.2536C85.8474 93.2536 85.164 93.2536 84.4293 93.2536C83.9252 95.2202 82.8829 96.8191 81.704 98.4522C80.3968 102.12 80.3199 106.036 78.0731 109.414L77.9022 109.379C77.663 107.746 77.8424 106.165 78.2012 104.634C78.7138 102.3 80.2943 100.402 81.1914 98.2384C81.5502 96.4258 82.1311 94.673 83.3186 93.2707C81.6698 93.2707 79.9355 93.2707 78.748 93.2707C78.2781 95.0064 77.4751 96.5797 76.5866 98.1871C75.5443 102.334 75.7921 106.601 73.8442 110.568L73.6733 110.551C73.2889 108.798 73.3316 107.054 73.5623 105.352C73.8784 102.762 75.3136 100.487 76.0483 98.0247C76.2363 96.3745 76.578 94.7499 77.3042 93.2792H77.2871C72.0672 101.342 70.0253 108.165 70.0253 108.165C70.0253 108.165 65.9331 134.278 81.8321 139.955ZM91.2212 105.198C91.4433 103.625 92.6223 102.291 92.9555 100.744C92.8359 99.0849 92.9213 97.5116 94.254 96.1863L94.4249 96.2291C94.7581 97.392 94.6812 98.4522 94.3053 99.444C93.7243 100.376 93.169 101.291 93.3314 102.454C93.451 104.694 92.9811 106.746 91.4774 108.499L91.3066 108.456C91.0076 107.31 91.0588 106.241 91.2212 105.198ZM86.4113 125.574C88.2481 125.198 91.8363 127.361 92.9725 128.489C94.1002 129.618 91.8448 131.653 90.7 132.799C89.5552 133.944 84.8137 133.483 83.0965 129.618C81.3708 125.753 86.4113 125.574 86.4113 125.574Z" fill="#CA4024"/>
<path d="M151.357 107.858C153.399 99.5039 146.077 88.0892 138.756 83.1471C138.756 83.1471 132.997 83.8568 127.521 83.2498C128.179 83.7029 128.828 84.1646 129.435 84.6948C131.4 86.3621 133.203 88.2346 134.663 90.3978L134.544 90.526C130.699 88.3115 127.461 85.4044 124.078 82.6598C123.403 82.4888 122.746 82.3007 122.139 82.0612C116.714 79.9493 111.648 75.5032 110.546 74.5028C110.469 74.4515 110.392 74.4002 110.315 74.3403C110.307 74.537 110.213 76.3069 109.495 78.6753C111.648 79.6672 113.322 81.2404 114.886 82.9932C116.996 84.6776 119.636 85.6695 121.678 87.4565C123.053 88.6279 124.352 89.8848 125.428 91.4324L125.326 91.5692C120.84 90.0472 117.97 86.4219 114.544 83.4379C112.553 82.4118 110.691 81.249 109.222 79.5475C108.786 80.7873 108.179 82.1382 107.325 83.472C108.325 84.2758 109.256 85.1821 110.144 86.1312C112.622 88.1063 115.578 89.5086 117.825 91.7829C119.337 93.2792 120.721 94.9038 121.797 96.7934L121.678 96.9131C116.953 94.2882 113.809 90.013 109.803 86.5672C108.675 85.9516 107.581 85.3104 106.522 84.6178C105.958 85.3617 105.3 86.0799 104.557 86.7554C106.471 88.1747 107.94 90.013 109.29 91.9796C111.34 94.1428 114.014 95.699 115.979 97.9477C117.303 99.4269 118.551 101 119.533 102.813L119.405 102.933C114.852 100.461 112.186 96.1265 108.88 92.3729C106.941 90.9536 105.138 89.4231 103.78 87.448C102.66 88.3543 101.328 89.1409 99.7899 89.7993C100.9 91.3725 101.84 93.0569 102.746 94.7927C106.24 99.1533 110.606 102.659 113.297 107.678L113.169 107.798C111.229 106.566 109.555 105.053 108.043 103.403C105.727 100.94 104.301 97.8109 102.293 95.1175C100.926 93.7324 99.6446 92.2618 98.6279 90.6201C98.8501 91.7744 99.73 95.8101 101.464 98.9909C103.506 102.736 113.724 119.948 126.667 121.82C139.61 123.71 149.067 117.229 151.357 107.858ZM129.973 110.936C130.383 112.688 130.417 113.988 129.777 115.749L129.606 115.792C128.863 115.117 128.538 114.236 128.427 113.364C128.222 111.996 129.187 110.842 129.478 109.585C129.307 108.2 129.563 106.831 131.109 106.207L131.255 106.301C131.46 107.883 130.827 108.67 130.024 109.73C129.862 110.106 129.888 110.525 129.973 110.936ZM145.214 108.028C145.214 109.388 143.113 111.166 141.831 112.458C140.541 113.749 136.227 111.996 138.363 109.858C140.498 107.721 141.737 105.84 143.13 105.079C146.052 103.48 145.214 106.669 145.214 108.028Z" fill="#CA4024"/>
<path d="M107.932 152.465C107.932 152.465 107.932 152.465 105.898 150.43C105.89 150.421 105.89 150.413 105.881 150.413C105.813 150.883 105.685 151.345 105.48 151.772C104.822 152.678 104.181 153.551 104.207 154.739C104.07 157.005 103.267 159.065 101.456 160.553L101.293 160.485C101.217 159.288 101.439 158.236 101.755 157.227C102.199 155.705 103.54 154.5 104.019 152.978C104.053 151.618 104.19 150.353 104.967 149.233C103.071 146.368 100.901 140.862 100.901 140.862L96.3897 141.888C96.4324 141.896 96.4837 141.905 96.4837 141.905C97.0902 143.923 96.4409 145.659 95.5268 147.352C95.0825 149.139 95.4584 151.122 94.8348 152.884C94.4418 154.055 93.9207 155.192 93.0493 156.218L92.8784 156.167C92.2547 152.636 94.0147 150.31 94.9801 147.215C94.8946 145.317 94.9971 143.521 96.2871 141.896L88.8716 143.581C79.7901 143.581 74.3395 138.126 74.3395 138.126C74.3395 138.126 72.5113 141.751 69.5553 144.718C68.0261 146.249 64.942 147.711 62.3106 148.779C62.8062 150.447 62.4302 151.952 61.9091 153.525C62.0458 156.62 63.2504 159.091 61.9775 162.323L61.8066 162.34C61.1317 161.22 60.8497 160.04 60.713 158.852C60.4738 157.056 61.3111 155.286 61.3367 153.508C60.9779 152.02 60.8327 150.532 61.4563 149.121C59.3718 149.925 57.7571 150.43 57.7571 150.43C57.7571 165.897 66.3858 183.357 84.7709 180.176C103.173 176.995 107.932 152.465 107.932 152.465ZM84.019 144.821L84.1899 144.855C84.6683 145.573 84.7196 146.206 84.4804 146.787C84.0447 147.334 83.6004 147.796 83.8994 148.557C84.318 149.951 84.0618 151.165 82.8486 152.123L82.6777 152.088C82.242 151.379 82.1566 150.737 82.1908 150.113C82.242 149.087 83.216 148.412 83.327 147.505C83.0109 146.445 82.8401 145.659 84.019 144.821ZM68.2653 150.592C67.727 149.669 67.3853 149.044 68.3763 148.027L68.5472 148.018C69.598 148.968 69.299 149.609 68.8291 150.566C68.7949 151.396 69.6578 152.123 69.5553 153.097C69.4955 153.67 69.3161 154.243 68.7693 154.833L68.5985 154.842C68.0261 154.294 67.804 153.73 67.7014 153.166C67.5391 152.191 68.3507 151.421 68.2653 150.592ZM69.2905 167.137C69.7689 168.727 69.8885 169.685 69.6322 171.404L69.4784 171.489C68.6155 171.087 68.1286 170.292 67.915 169.471C67.5648 168.086 68.4532 167.094 68.795 165.889C68.6839 164.529 69.0854 163.247 70.7257 163.024L70.8454 163.144C70.7087 164.786 70.2217 165.051 69.3332 166.042C69.1794 166.376 69.1965 166.769 69.2905 167.137ZM74.6813 146.283C74.2028 145.077 73.938 143.991 74.9632 142.794L75.134 142.803C75.715 143.598 75.8688 144.376 75.715 145.146C75.3562 145.898 74.9974 146.633 75.416 147.471C76.0311 149.096 75.9799 150.652 74.912 152.123H74.7411C74.2029 151.336 74.0234 150.549 73.9551 149.771C73.8269 148.591 74.6898 147.446 74.6813 146.283ZM82.7632 172.259C81.627 172.259 77.6543 172.678 75.2708 170.292C72.8872 167.906 76.4155 164.495 76.4155 164.495C79.3715 164.093 82.2506 164.897 84.6085 167.265C86.9665 169.625 83.8995 172.259 82.7632 172.259ZM87.9319 151.165C87.9746 149.942 89.0083 148.891 89.1621 147.694C88.8631 146.411 88.7691 145.205 89.9481 144.145L90.1189 144.171C90.5803 145.069 90.6144 145.889 90.3496 146.659C89.8882 147.386 89.4269 148.087 89.7088 149.002C90.0762 150.755 89.8114 152.345 88.5299 153.713L88.359 153.687C87.9404 152.807 87.8721 151.977 87.9319 151.165ZM89.7003 169.634C89.1963 169.514 88.8716 168.428 88.8375 168.206C88.7093 167.564 89.4697 166.735 89.2134 166.188C89.1023 165.983 88.7605 165.854 88.5897 165.7C88.3077 165.478 88.2821 164.392 88.7093 164.127C89.4696 164.221 89.8797 164.649 89.9395 165.179C89.8199 165.777 89.5636 166.231 90.1104 166.709C90.9647 167.641 90.8878 168.958 89.7003 169.634ZM94.664 161.947L94.5187 161.861C95.1253 157.877 97.637 154.91 99.0295 151.285C99.2175 148.933 99.4567 146.727 100.781 144.598L100.952 144.624C101.558 147.104 100.738 149.369 99.5678 151.447C98.8416 153.67 98.7818 156.141 97.6113 158.219C96.8681 159.604 95.9454 160.904 94.664 161.947Z" fill="#CA4024"/>
<path d="M132.647 172.891C133.177 175.191 132.963 177.517 131.579 179.509L131.408 179.483C131.033 178.304 130.973 177.192 131.007 176.098C131.024 174.456 131.955 172.848 131.955 171.198C131.733 170.42 131.554 169.668 131.511 168.907C129.717 167.599 127.786 165.794 125.941 163.332C125.924 164.307 125.659 165.281 125.104 166.205L124.933 166.196C124.403 165.247 124.206 164.324 124.104 163.4C124.001 162.614 124.198 161.81 124.36 161.006C123.361 159.382 122.404 157.552 121.558 155.431C121.558 155.431 119.567 155.423 117.107 155.124C117.107 155.252 117.116 155.38 117.107 155.508C116.825 156.629 116.543 157.723 116.996 158.86C117.697 161.1 117.705 163.383 116.577 165.529L116.406 165.521C115.885 164.392 115.706 163.298 115.629 162.195C115.484 160.545 116.287 158.869 116.184 157.218C115.911 156.44 115.689 155.679 115.612 154.91C113.468 154.559 111.212 153.961 109.683 152.96C109.615 153.91 109.495 154.85 109.35 155.799C109.358 158.698 110.247 161.579 110.144 164.478C110.102 166.41 109.931 168.342 109.401 170.283H109.23C107.709 165.829 108.487 161.314 108.735 156.782C108.06 159.253 106.906 162.622 105.061 166.102C105.206 166.641 105.266 167.197 105.24 167.752C104.976 168.881 104.728 169.976 105.206 171.104C105.967 173.327 106.052 175.602 105.001 177.782H104.83C104.267 176.679 104.053 175.576 103.942 174.482C103.745 172.831 104.506 171.138 104.352 169.488C104.181 169.035 104.027 168.573 103.908 168.12C102.327 170.711 100.328 173.267 97.8334 175.456C97.7907 175.653 97.7224 175.867 97.6455 176.098C97.7309 176.884 98.6963 177.406 98.7561 178.38C98.7732 178.928 98.7049 179.535 98.1837 180.167H98.0129C96.9108 179.312 96.6289 178.312 97.0646 177.047C97.2269 176.67 97.1756 176.388 97.0304 176.14C94.7322 177.996 92.0411 179.543 88.8801 180.544C88.8801 180.544 94.1001 198.568 114.988 197.431C135.877 196.293 138.371 172.25 138.371 172.25C138.371 172.25 135.996 171.788 132.878 169.83C132.562 170.848 132.305 171.831 132.647 172.891ZM107.692 183.288C107.069 185.007 106.736 185.759 106.419 187.64L106.266 187.717C104.335 186.52 105.112 183.391 107.026 182.621C107.462 182.391 107.872 182.202 108.214 181.912C109.111 180.706 110.648 180.039 112.049 181.057V181.228C111.187 181.818 110.546 182.108 109.777 182.254C108.931 182.177 107.991 182.373 107.692 183.288ZM117.526 190.719C115.962 192.283 109.598 190.975 109.598 188.248C109.598 185.52 113.237 184.614 113.237 184.614C115.783 184.614 117.509 185.742 118.423 186.657C119.337 187.563 119.089 189.154 117.526 190.719ZM124.206 190.377C123.762 191.129 123.053 191.685 122.139 191.83L122.019 191.71C122.122 190.787 122.336 190.171 122.532 189.59C122.788 188.803 123.737 187.769 123.369 186.828C122.447 185.819 122.088 185.879 121.686 184.169L121.789 184.024C123.455 183.998 124.027 185.281 123.907 186.666C124.258 187.923 124.95 189.051 124.206 190.377Z" fill="#CA4024"/>
<path d="M20.4488 116.776C21.2689 117.229 22.072 117.673 23.0544 117.366C24.0198 117.16 24.9596 117.126 25.8481 117.297C26.5999 115.903 27.4542 114.51 28.3427 113.176C27.7874 113.031 27.2321 112.834 26.6853 112.595C26.1556 112.372 25.6088 112.193 25.0535 112.184C23.3193 112.475 21.6533 112.535 20.0985 111.346L20.1241 111.175C21.9353 110.414 23.5243 110.91 25.1304 111.628C26.5401 111.842 28.0181 111.466 29.4448 111.568C30.6152 109.901 31.76 108.396 32.7169 107.191C31.5037 107.225 30.2991 106.977 29.0945 106.515C28.5819 106.327 28.0608 106.173 27.5311 106.199C25.9079 106.584 24.3445 106.746 22.8238 105.643L22.8409 105.472C24.5153 104.617 26.036 105.01 27.5824 105.643C29.1543 105.806 30.7861 105.087 32.3581 105.361C32.8792 105.438 33.3918 105.549 33.9129 105.72C34.622 104.865 35.0748 104.343 35.0748 104.343L26.6768 101.83C10.7949 96.5542 13.281 79.5049 13.281 79.5049C-1.25112 87.2344 -2.12256 101.248 2.94359 110.748C8.753 121.658 24.1052 121.085 24.1052 121.085C24.353 120.41 24.6605 119.708 24.9937 118.999C23.8575 118.776 22.7981 118.05 21.6448 117.93C20.2522 118.255 18.9366 118.375 17.7149 117.212L17.7405 117.041C18.6803 116.579 19.5859 116.528 20.4488 116.776ZM6.86496 99.3416C6.67701 99.6408 6.68555 100.017 6.7539 100.376C7.15543 101.932 7.21525 102.779 6.93333 104.446L6.77955 104.532C5.92523 104.155 5.45534 103.36 5.27593 102.556C4.98546 101.154 5.91667 100.299 6.33529 99.1449C6.3182 97.8025 6.82224 96.5969 8.46255 96.6055L8.56506 96.7423C8.25751 98.3412 7.82181 98.4523 6.86496 99.3416ZM16.3651 108.482C15.5193 109.328 11.4698 108.935 10.2481 105.07C9.02643 101.206 11.6919 100.299 11.6919 100.299C13.7338 100.299 16.0404 102.993 17.2023 104.155C18.3727 105.327 17.2108 107.635 16.3651 108.482Z" fill="#CA4024"/>
<path d="M166.12 128.584C166.641 129.909 166.581 131.362 166.325 132.79C166.427 134.731 167.248 136.672 166.914 138.647C166.718 139.947 166.325 141.23 165.53 142.375L165.36 142.341C164.463 139.049 165.735 136.065 165.761 132.833C165.266 131.405 164.838 130.054 164.898 128.558C163.471 128.515 161.669 128.43 159.806 128.259C160.191 129.439 160.165 130.678 160.02 131.952C160.276 133.748 161.395 135.398 161.541 137.211C161.66 138.416 161.652 139.639 161.302 140.922L161.131 140.947C159.055 138.032 159.747 135.244 159.465 132.038C158.875 130.773 158.414 129.498 158.491 128.122C156.338 127.882 154.211 127.515 152.63 126.968C153.536 128.968 154.296 130.986 154.595 133.218C155.509 135.937 157.021 138.511 157.346 141.418C157.602 143.324 157.611 145.274 157.235 147.206L157.064 147.223C156.329 145.385 155.928 143.555 155.526 141.725C154.92 139.006 155.039 136.048 154.074 133.406C152.921 131.268 151.468 128.985 151.502 126.489C149.674 125.608 148.487 124.702 147.709 123.941C148.871 126.668 149.486 129.55 149.922 132.491C150.947 136.228 152.733 139.759 153.356 143.624C153.8 146.18 154.006 148.805 153.724 151.43L153.553 151.447C151.366 145.299 150.904 138.921 149.384 132.645C147.931 129.276 146.616 125.89 146.342 122.171L143.856 123.129C143.856 123.129 146.086 126.207 145.71 132.602C146.94 134.321 147.145 136.313 147.162 138.348C147.624 140.46 148.931 142.392 149.298 144.521C149.572 145.941 149.725 147.369 149.623 148.908L149.461 148.959C146.923 145.932 147.231 142.085 146.616 138.476C146.112 137.476 145.676 136.476 145.394 135.432C145.334 135.8 145.274 136.168 145.206 136.553C144.907 138.032 144.514 139.502 144.01 140.947C144.206 141.315 144.335 141.7 144.386 142.11C144.283 143.025 144.164 143.897 144.787 144.684C145.813 146.266 146.146 148.036 145.334 149.831L145.163 149.857C144.497 149.087 144.164 148.292 143.933 147.48C143.557 146.266 144.104 144.838 143.745 143.624C143.566 143.376 143.403 143.136 143.258 142.888C142.438 144.769 141.379 146.548 140.029 148.13C140.601 149.062 140.422 149.959 140.106 150.977C140.191 152.105 141.174 153.123 141.199 154.269C141.242 155.03 141.174 155.799 140.772 156.654L140.601 156.688C139.909 156.039 139.576 155.312 139.379 154.559C139.038 153.422 139.713 152.182 139.55 151.037C139.226 150.464 138.969 149.9 138.918 149.318C137.662 150.541 136.193 151.618 134.467 152.473C134.886 153.414 134.963 154.44 134.946 155.526C135.364 157.073 136.637 158.398 136.953 159.98C137.184 161.023 137.295 162.101 137.056 163.255L136.885 163.298C135.287 161.571 134.672 159.519 134.672 157.244C134.664 156.697 134.621 156.158 134.399 155.662C133.843 154.842 133.365 153.987 133.16 153.063C131.955 153.55 130.631 153.935 129.187 154.217C129.316 155.021 129.187 155.808 129.017 156.671C129.034 157.133 129.23 157.561 129.469 157.971C130.537 159.647 131.101 161.177 130.981 163.229L130.828 163.306C129.905 162.733 129.333 161.921 128.923 161.049C128.273 159.715 128.726 158.159 128.453 156.765C128.043 156.03 127.744 155.243 127.735 154.448C126.454 154.628 125.104 154.739 123.643 154.739C123.643 154.739 129.649 167.359 135.552 169.967C141.464 172.575 159.96 175.644 165.411 162.699C170.861 149.746 168.99 133.611 167.88 128.618C167.854 128.592 167.179 128.601 166.12 128.584ZM140.601 167.641C140.311 167 140.285 166.256 140.661 165.649C140.823 165.35 140.969 165.093 140.969 164.803C140.687 163.785 140.704 162.964 142.011 162.545L142.165 162.614C142.703 164.042 142.216 164.136 141.515 164.914C141.25 165.572 142.165 166.35 142.276 166.846C142.378 167.222 142.361 167.581 142.558 168.317C142.276 168.941 140.875 168.3 140.601 167.641ZM152.587 166.205C151.058 167.735 146.974 166.256 145.223 164.503C143.472 162.751 146.744 161.904 146.744 161.904C146.744 161.904 146.744 161.904 149.52 160.758C152.297 159.613 154.792 160.707 155.996 161.904C157.192 163.101 154.117 164.674 152.587 166.205ZM160.046 160.758C159.55 160.699 159.08 159.536 159.012 159.313C158.79 158.681 159.379 157.655 159.003 157.09C158.841 156.885 158.482 156.808 158.269 156.671C157.953 156.5 157.611 155.355 157.97 155.013C158.764 154.961 159.302 155.346 159.49 155.902C159.516 156.543 159.379 157.107 160.011 157.526C161.045 158.381 161.182 159.852 160.046 160.758Z" fill="#CA4024"/>
<path d="M111.058 150.43C118.952 153.935 132.502 155.184 139.969 144.273C147.444 133.363 141.763 123.129 141.763 123.129C141.763 123.129 141.216 123.394 140.311 123.744C140.755 124.582 140.909 125.463 140.798 126.335C140.456 127.369 140.097 128.353 140.447 129.456C140.943 131.61 140.644 133.799 139.183 135.544L139.012 135.509C138.687 134.389 138.67 133.372 138.73 132.363C138.79 130.858 139.764 129.396 139.764 127.874C139.379 126.566 139.106 125.343 139.542 124.018C138.363 124.437 136.799 124.898 135.048 125.181C135.048 125.189 135.039 125.198 135.039 125.206C134.98 126.061 135.817 126.856 135.68 127.848C135.603 128.438 135.398 129.02 134.843 129.61H134.672C134.117 129.02 133.912 128.438 133.835 127.848C133.707 126.874 134.493 126.104 134.476 125.266C133.151 125.446 131.75 125.531 130.349 125.403C130.358 125.668 130.127 125.916 129.905 126.258C129.837 126.78 130.691 127.13 130.631 127.882C130.597 128.156 130.255 128.977 129.674 129.037C129.102 128.695 128.88 128.336 128.777 127.977C128.641 127.233 129.452 126.805 129.332 126.284C129.273 126.104 128.982 125.933 128.863 125.753C128.777 125.625 128.811 125.403 128.914 125.189C128.581 125.121 128.248 125.052 127.914 124.958C127.419 124.813 126.915 124.642 126.411 124.462C126.377 124.659 126.342 124.864 126.3 125.061C126.411 126.805 127.402 128.464 127.393 130.225C127.419 131.388 127.316 132.568 126.864 133.765L126.693 133.782C125.445 131.593 125.266 129.276 125.702 126.865C125.804 126.275 125.855 125.685 125.744 125.112C125.608 124.77 125.488 124.42 125.385 124.078C124.719 123.813 124.061 123.522 123.412 123.223C123.617 124.095 123.617 125.129 123.523 125.771C123.181 126.685 122.831 127.549 123.198 128.541C123.737 130.456 123.515 132.397 122.165 133.97L121.994 133.936C121.609 132.944 121.541 132.029 121.567 131.132C121.567 129.789 122.506 128.49 122.498 127.139C122.088 125.942 121.994 124.206 122.541 122.812C120.986 122.043 119.516 121.222 118.26 120.469C118.568 121.649 118.44 122.846 118.192 124.078C118.303 125.822 119.294 127.481 119.286 129.242C119.311 130.405 119.209 131.585 118.756 132.782L118.585 132.799C117.338 130.61 117.158 128.293 117.594 125.882C117.697 125.292 117.748 124.702 117.637 124.129C117.081 122.692 116.697 121.273 117.09 119.751C115.39 118.682 114.296 117.896 114.296 117.896H113.775C114.032 119.195 113.929 120.529 113.724 121.88C113.878 123.924 114.894 125.89 114.929 127.951C114.971 129.319 114.903 130.704 114.467 132.115L114.296 132.132C112.451 128.9 113.228 125.403 113.16 121.931C112.699 120.598 112.349 119.272 112.391 117.896H112.084C112.084 117.896 113.254 125.796 108.316 132.953C109.179 133.491 108.812 133.842 108.496 134.492C108.478 135.048 109.375 135.347 109.384 136.125C109.384 136.407 109.128 137.313 108.555 137.425C107.949 137.125 107.692 136.766 107.556 136.39C107.342 135.638 108.103 135.099 107.94 134.569C107.863 134.398 107.607 134.252 107.453 134.09C106.975 134.689 106.462 135.287 105.89 135.86L103.395 138.357C103.395 138.365 103.173 146.924 111.058 150.43ZM131.263 140.118L131.417 140.032C132.212 140.221 132.63 140.751 132.681 141.358C132.545 142.008 132.288 142.555 132.801 143.128C133.604 144.248 133.416 145.744 132.118 146.454L131.955 146.402C131.579 145.727 131.46 145.231 131.426 144.735C131.349 144.017 132.16 143.119 131.93 142.427C131.221 141.64 130.81 141.486 131.263 140.118ZM117.526 141.443C118.893 140.075 121.823 141.315 123.617 141.315C125.411 141.315 127.453 142.341 127.453 144.607C127.453 146.873 125.753 146.514 124.642 147.617C123.532 148.728 118.423 148.232 116.851 146.659C115.279 145.086 116.27 142.7 117.526 141.443Z" fill="#CA4024"/>
<path d="M63.7374 57.4706C64.1389 57.6416 64.6088 57.4792 64.8139 57.0944C65.8989 55.0595 69.4614 48.9802 74.3396 46.5605C74.4421 46.5092 74.5531 46.4664 74.6557 46.4151C73.1948 45.543 71.8791 44.4827 70.6745 43.3113C68.4533 41.2165 67.1291 38.3864 65.2325 36.035C62.9771 33.9659 60.9865 31.6316 60.2005 28.545L60.3457 28.4509C62.7805 30.4688 64.2415 33.0082 65.6767 35.6845C68.795 39.2841 72.6651 42.063 75.2537 46.1415C77.2272 45.2522 79.3032 44.5682 81.3023 44.0467C80.2344 43.3626 79.2348 42.5931 78.2865 41.7637C76.0397 39.857 74.5446 37.2064 72.4771 35.1372C70.0679 33.393 67.8553 31.4521 66.6165 28.6048L66.7447 28.4851C69.4358 30.0071 71.2042 32.29 72.8787 34.7439C76.1251 37.7451 79.8841 40.1135 82.4642 43.756C85.3347 43.089 87.8892 42.747 89.4099 42.5846C89.6235 42.5589 89.8114 42.4905 89.9823 42.3965C87.5304 39.2158 86.283 35.4194 84.207 31.9907C82.2421 30.0327 80.448 28.1175 79.2946 25.4583L79.4228 25.3386C82.0456 26.6896 83.5321 29.1178 84.6769 31.6658C86.2062 33.9573 88.3505 35.8469 89.5551 38.3607C89.9737 39.2072 90.3497 40.0793 90.6572 40.9856C90.6572 40.9685 90.6658 40.9515 90.6572 40.9429C90.2984 38.9165 89.521 35.0603 88.1028 30.6911C87.5646 29.5368 87.0178 28.3654 86.377 27.2539C84.6428 25.5524 83.0708 23.8337 82.4044 21.3456L82.5411 21.243C84.1387 22.175 85.181 23.5259 85.984 25.0393C84.7453 22.1835 83.2246 19.3278 81.3707 16.7969C73.8783 6.57072 65.0274 0.209278 50.9481 3.84315C50.9481 3.84315 38.0051 7.59676 38.0051 18.2162C38.0137 28.6903 47.172 50.3226 63.7374 57.4706ZM66.1808 19.1739C69.692 20.7471 72.2721 23.5003 74.5019 26.5186C77.0649 29.2119 80.1063 31.4777 82.2506 34.5558C83.6944 36.5822 84.9417 38.754 85.8132 41.131L85.6679 41.225C81.1144 36.9499 78.2097 31.5205 74.1004 26.9119C71.17 24.6204 68.3251 22.3888 66.0783 19.3107L66.1808 19.1739ZM66.7019 51.3914C65.0189 50.4423 63.6007 49.2196 62.285 47.9029C60.2774 45.9534 59.0557 43.3199 57.2104 41.2422C55.0062 39.4637 53.0071 37.5142 52.0075 34.7268L52.1442 34.6157C54.6645 36.1633 56.2108 38.4377 57.6375 40.8745C60.8669 44.2348 64.7711 46.8939 66.8301 51.2716L66.7019 51.3914ZM63.071 40.7121C64.2243 42.1485 66.0441 43.0292 67.1035 44.5426C67.8296 45.5344 68.4618 46.6117 68.8207 47.9114L68.6839 48.0225C65.4204 46.5519 64.5148 43.7046 62.6353 41.0712C61.0633 39.9767 59.6794 38.7626 59.2436 36.702L59.3803 36.5908C61.3282 37.3945 62.2765 38.9592 63.071 40.7121ZM55.0831 9.85404C56.544 9.16146 59.9613 10.5466 59.9613 11.9146C59.9613 13.2827 57.5606 15.5485 55.5103 15.5485C53.4599 15.5485 50.7516 15.5485 50.7516 13.5563C50.7516 11.5555 55.0831 9.85404 55.0831 9.85404ZM47.4967 13.5307L47.6675 13.5734C48.6329 19.1567 47.0524 21.7218 54.169 19.8493C55.5615 19.55 56.9113 19.2251 58.3979 19.1653L58.4662 19.3192C56.2023 21.5936 52.4005 22.9018 49.4873 21.072C48.4023 20.2255 47.3087 19.3106 46.7705 17.9854C46.275 16.4377 46.6082 14.8132 47.4967 13.5307ZM42.4903 31.6231L42.6356 31.529C45.7197 34.4276 47.8982 37.8306 50.1195 41.3277C54.6816 46.4664 60.2261 50.5278 64.3867 56.094L64.2756 56.2223C61.8237 54.8628 59.6281 53.1527 57.6034 51.2716C54.5192 48.4586 52.3492 44.8589 49.6837 41.6868C46.668 38.8224 43.9512 35.6246 42.4903 31.6231Z" fill="#CA4024"/>
<path d="M93.6643 42.7471C93.3567 41.6184 93.2713 40.43 93.2884 39.2415C92.8698 36.8987 91.7933 34.6329 91.9215 32.1875C91.9813 30.58 92.2632 28.9726 92.9894 27.4763L93.1603 27.4934C94.2709 31.4094 93.3397 35.2228 93.8352 39.1303C94.4503 40.5497 95.0141 41.9263 95.3302 43.3969C96.2102 43.7902 97.3892 44.4059 98.8843 45.3635C98.346 42.8583 98.534 40.353 98.9013 37.8307C98.8672 34.8039 97.9616 31.8027 98.047 28.7674C98.0812 26.7495 98.235 24.7231 98.7476 22.6967H98.9184C100.584 27.6815 99.5933 32.7433 99.4567 37.8221C99.9693 40.5155 100.294 43.1917 99.7129 45.9193C100.482 46.4323 101.311 47.0137 102.242 47.6977C105.821 50.3569 107.863 54.0677 109.017 57.0774C108.76 54.7175 108.999 52.3747 109.367 50.0063C109.401 46.723 108.572 43.4482 108.726 40.1649C108.803 37.976 109.017 35.7872 109.563 33.6068H109.734C111.272 39.0534 110.178 44.517 109.931 50.0063C110.375 52.9049 110.648 55.7777 110.033 58.6763C110.717 59.0269 111.648 58.8216 111.99 57.9837C116.321 47.5096 122.19 42.1058 126.684 39.3526C126.769 38.0444 127.094 36.7875 127.47 35.4879C127.427 31.7429 126.206 28.186 127.282 24.4153L127.453 24.3896C128.196 25.7919 128.529 27.2796 128.683 28.7845C128.957 31.0503 128.111 33.2734 128.025 35.5135C128.188 36.4968 128.282 37.4887 128.23 38.4634C129.691 37.6939 130.939 37.2236 131.836 36.9415C132.733 36.6593 133.296 35.8043 133.228 34.8723C132.844 30.0414 131.494 16.0958 128.23 9.84556C124.249 2.22725 116.774 -1.6204 104.284 0.884841C91.7933 3.38153 88.8459 21.7903 88.8459 26.3391C88.8459 29.9815 91.4687 38.2838 92.511 41.4389C92.7246 42.0289 93.1346 42.4906 93.6643 42.7471ZM104.984 48.9546L104.813 48.9461C103.968 46.4494 104.378 44.0553 105.018 41.6526C105.189 39.2244 104.489 36.7533 104.771 34.3336C104.941 32.7176 105.232 31.1102 105.873 29.5198L106.044 29.5283C107.368 33.6325 106.043 37.6084 105.574 41.6783C105.95 44.1408 106.095 46.5691 104.984 48.9546ZM114.185 51.6822H114.014C113.032 49.2795 113.314 46.9196 113.818 44.5256C113.852 42.14 113.015 39.7545 113.177 37.369C113.254 35.7786 113.459 34.1882 114.014 32.5979H114.185C115.732 36.5481 114.629 40.5155 114.382 44.5256C114.886 46.9111 115.168 49.2795 114.185 51.6822ZM120.14 30.5458H120.311C120.866 31.512 121.071 32.4782 121.148 33.4444C121.302 34.8979 120.465 36.3429 120.507 37.7879C121.011 39.2415 121.302 40.6608 120.311 42.1315H120.14C119.542 41.1653 119.371 40.1991 119.508 39.2329C119.849 38.2753 120.183 37.3433 119.755 36.3344C119.106 34.3678 119.098 32.4269 120.14 30.5458ZM109.597 6.23733C109.597 6.23733 114.826 5.50201 116.475 7.14366C118.115 8.78532 114.835 9.69165 113.237 11.282C111.648 12.8724 108.444 11.4359 106.419 9.41805C104.395 7.39163 109.597 6.23733 109.597 6.23733ZM103.216 8.74257L103.378 8.80242C103.617 10.1106 104.087 10.8716 104.574 11.8036C104.907 12.9237 105.864 13.8557 107.094 13.9412C109.538 14.2233 111.836 14.42 114.091 15.4716V15.6427C110.828 17.139 107.744 15.7624 105.138 13.7274C104.608 13.3939 103.916 13.1716 103.412 12.6586C102.438 11.6582 102.199 9.7857 103.216 8.74257Z" fill="#CA4024"/>
<path d="M16.237 65.3371C16.7581 65.6791 17.416 65.6791 17.9456 65.3456C18.0909 65.2516 18.2703 65.1404 18.4583 65.0293C18.3899 64.9694 18.3045 64.9181 18.2361 64.8668C16.3395 63.3962 15.3485 61.1303 13.862 59.3262C12.0081 57.8128 10.4362 55.9574 10.1799 53.418L10.3336 53.3324C12.29 54.8886 13.2725 56.8552 14.2977 58.9756C16.0576 60.8995 18.1849 62.3359 20.0559 64.0802C24.1737 61.6946 31.8541 57.7786 38.0138 57.7786C39.1586 57.7786 40.4059 57.8385 41.7044 57.9325C39.0304 55.7864 36.5528 53.4009 33.8019 51.3146C30.6751 49.767 27.6679 48.1681 25.2074 45.5602L25.2929 45.4149C28.7785 46.3469 31.555 48.4673 34.1266 50.8614C36.9544 52.8622 40.2265 54.2559 42.8578 56.5474C43.49 57.0775 44.088 57.6418 44.6775 58.2232C48.6501 58.6593 52.8021 59.3519 56.0315 59.9589C50.3331 57.086 45.9334 52.5373 40.9441 48.6811C37.4414 46.8086 34.0753 44.8164 31.35 41.7981L31.444 41.6527C35.2714 43.0379 38.347 45.5175 41.2688 48.2194C44.4554 50.5365 48.1119 52.2038 51.1704 54.7176C53.178 56.3336 55.0917 58.0864 56.7833 60.1043C58.3894 60.4121 59.7222 60.6771 60.6107 60.8653C61.2514 61.0021 61.8409 60.5147 61.8409 59.8563V58.2745C61.8409 57.9753 61.6786 57.6931 61.4223 57.5478L58.21 55.6752C55.3224 54.3072 51.4096 50.3826 47.7104 46.5093C44.2503 45.3379 41.619 42.7643 38.6289 40.7208C36.2368 39.8743 33.9814 38.8482 32.3496 36.7192L32.435 36.5739C35.0834 37.0185 37.0484 38.5233 38.9194 40.2419C40.4742 41.2081 42.2769 41.7724 43.9428 42.5676C43.4644 42.0717 42.9945 41.5844 42.5417 41.1397C41.4909 40.0881 40.6194 38.5832 39.8933 36.8902C37.5951 35.5478 35.8524 33.5043 33.6397 31.9567C31.5978 31.3411 29.7268 30.6656 28.2403 28.9128L28.3086 28.7503C30.6324 28.7332 32.3838 29.9645 33.9215 31.4694C35.4679 32.427 37.3132 32.94 38.8254 33.9746C38.253 32.1448 37.8173 30.2552 37.4926 28.5451C37.3645 28.4938 37.2193 28.4596 37.0911 28.3998C36.0659 27.9637 35.4508 26.6812 34.4085 26.2537C33.1356 26.2366 32.119 26.1511 31.2903 24.8429L31.3415 24.6804C32.2556 24.347 33.0672 24.4581 33.7422 24.8771C34.3231 25.4841 34.8357 26.0912 35.7669 26.0741C36.2453 26.1083 36.6896 26.2195 37.1082 26.3734C36.9373 25.2789 36.8177 24.3384 36.7408 23.6544C36.6639 22.9703 36.0745 22.4573 35.391 22.4659L30.4872 22.5086C30.4872 22.5086 7.32641 20.6874 4.14832 38.891C1.45719 54.4525 12.9051 63.1653 16.237 65.3371ZM22.1917 29.1266C22.9264 28.9128 23.4732 29.1864 23.7038 29.6738C23.7893 30.2723 23.6697 30.7768 24.336 31.076C25.421 31.7002 25.6688 33.0768 24.6265 33.9575C24.131 33.9404 23.5671 32.9828 23.4817 32.8032C23.2254 32.2731 23.7295 31.2727 23.3279 30.8452C23.1571 30.6913 22.8068 30.6827 22.5932 30.5972C22.26 30.4861 21.9012 29.4942 22.1917 29.1266ZM22.1575 51.6652C23.2767 51.7507 24.1481 52.1696 24.8401 52.8451C25.3954 53.683 25.9422 54.4953 27.0015 54.7347C28.9579 55.3674 30.5043 56.4961 31.3842 58.437L31.2817 58.5738C30.1796 58.4626 29.2911 58.0608 28.4795 57.5563C27.2322 56.8295 26.5744 55.3076 25.4039 54.4953C23.943 54.0507 22.653 53.4522 22.0635 51.7934L22.1575 51.6652ZM23.5757 61.1389L23.4646 61.2757C22.354 61.1047 21.474 60.6002 20.688 59.9931C19.4749 59.0783 19.0648 57.4537 18.0738 56.3678C16.724 55.5897 15.5877 54.5808 15.545 52.7938L15.6903 52.6912C17.3391 53.3324 17.9371 54.5637 18.501 55.9916C18.7658 56.3935 19.1759 56.6842 19.603 56.9321C21.4313 57.924 22.7641 59.1466 23.5757 61.1389ZM16.3652 33.2649C17.3733 32.0422 20.9614 32.3586 20.9614 34.6757C20.9614 36.9843 19.3553 39.3442 18.5095 40.1906C17.6637 41.0371 16.5019 40.7464 14.6224 38.8654C12.7514 36.9757 16.3652 33.2649 16.3652 33.2649ZM9.63307 39.4382C8.98379 37.5657 9.02651 35.411 10.5985 33.9233L10.7608 33.9831C11.0854 36.0266 10.5814 37.5486 10.1884 39.3869C10.2482 41.097 11.7005 42.6018 12.7257 43.7134C13.4434 44.5085 14.2977 45.1926 15.2887 46.116L15.2374 46.2785C12.4609 46.6461 9.73562 44.1323 9.76979 41.3535C9.75271 40.6951 9.75268 40.0624 9.63307 39.4382Z" fill="#CA4024"/>
<path d="M53.3317 64.4818C55.5358 64.7811 57.8425 64.1997 60.0467 64.6186C60.5422 64.7041 61.0462 64.8153 61.5417 64.935C61.5759 64.422 61.6186 63.9945 61.6443 63.6781C61.6784 63.3019 61.4649 62.9513 61.1146 62.8231C54.878 60.5316 34.938 57.0089 24.8399 63.3788C14.3915 69.9711 13.2638 82.694 17.8003 91.7829C22.3453 100.872 38.9619 105.746 53.3915 103.993C65.6084 102.514 73.0495 94.8867 75.1084 92.4926C75.4075 92.1421 75.2537 91.629 74.835 91.4495C73.9551 91.0647 73.0324 90.526 72.0926 89.8848C70.6232 90.9621 68.9231 91.7316 67.1718 92.2276C63.7545 93.2194 60.2688 92.6209 56.8173 92.5439C53.3829 92.9458 49.9315 92.809 46.668 91.4238L46.685 91.2528C50.1877 90.6885 53.4598 91.3725 56.8344 91.9796C61.7895 91.9112 66.4712 90.5517 71.2383 89.2777C69.5468 88.0123 67.8552 86.4219 66.343 84.6776C64.9932 85.2505 63.5836 85.6267 62.1568 85.8832C59.235 86.4561 56.262 85.8405 53.3317 85.9174C50.4099 86.4647 47.4197 86.5929 44.6005 85.2762L44.6176 85.1051C47.6162 84.4639 50.4099 84.8743 53.3146 85.3531C57.4581 85.0795 61.4051 83.8482 65.5571 83.7627C64.6771 82.6769 63.8826 81.5482 63.2162 80.4196C62.8318 79.7698 62.5328 78.9917 62.285 78.1452C58.5943 79.0858 54.9292 78.111 51.2129 77.8117C48.7696 78.2735 46.3604 78.5129 43.9341 77.4868V77.3158C46.3946 76.3753 48.7952 76.7002 51.2215 77.256C53.6478 77.3415 56.0912 76.5463 58.5174 76.743C59.6964 76.8199 60.8839 76.9738 62.0543 77.2731C61.7126 75.7853 61.5161 74.118 61.4307 72.4678C60.4567 72.6559 59.4743 72.7671 58.5003 72.8184C55.8776 72.9894 53.2889 72.1002 50.6832 72.0146C48.0519 72.3994 45.4206 72.4935 42.9089 71.2537L42.926 71.0827C45.6171 70.3644 48.1374 70.8262 50.7089 71.4503C54.2971 71.4076 57.834 70.6893 61.3794 71.1767C61.3367 69.4837 61.3709 67.8678 61.4392 66.5254C58.6798 66.5168 56.0143 65.5506 53.2633 65.0376C50.9823 65.2856 48.761 65.3027 46.6423 64.0714L46.6594 63.9004C49.0173 63.1907 51.1702 63.7209 53.3317 64.4818ZM20.6879 75.4006C20.7819 76.7943 20.5512 77.5296 19.526 78.6069H19.3551C18.7998 77.9998 18.6802 77.2902 18.7571 76.6318C18.9536 75.4006 19.9446 75.1441 20.4658 74.2634C20.6024 73.1176 20.9527 72.2626 22.4307 72.3909L22.5333 72.5277C22.3624 74.0154 21.9181 74.0154 20.9356 74.5626C20.722 74.7764 20.6793 75.0842 20.6879 75.4006ZM22.1403 81.9929C19.9105 79.7612 24.5324 74.5199 24.5324 74.5199C24.5324 74.5199 27.5054 73.5794 29.1286 75.1954C30.7433 76.8114 27.8215 80.7616 26.7536 82.2836C25.6771 83.8055 24.37 84.2245 22.1403 81.9929ZM34.0837 78.2393C33.4173 81.1293 31.8966 83.6858 30.8373 86.4476C29.795 88.1234 27.9668 89.4658 25.9506 89.6539L25.8908 89.4915C28.0095 87.5163 29.795 85.7122 31.4609 83.4635C33.2208 79.556 32.2127 73.947 32.3238 69.7574L32.4861 69.7061C34.1008 72.1857 34.6646 75.3322 34.0837 78.2393ZM49.7862 99.2303C52.4175 99.2388 58.2953 96.9217 60.8583 96.2205C63.3188 95.528 65.8048 94.861 68.4191 94.5105L68.4789 94.6729C62.9001 98.3239 56.3645 99.4953 49.8289 99.7946C45.9845 100.632 41.7641 100.607 38.3126 98.4094L38.3639 98.2469C41.0977 98.3838 47.1549 99.1533 49.7862 99.2303Z" fill="#CA4024"/>
<path d="M84.3266 91.7831C90.4606 91.7831 101.131 88.6024 106.573 80.6507C112.024 72.6989 109.085 56.1541 105.668 52.734C102.25 49.3138 90.6827 40.4386 73.4254 49.0659C73.4254 49.0659 60.713 57.924 63.6604 74.5116C66.6164 91.0991 83.1903 91.7831 84.3266 91.7831ZM102.447 57.9753L102.601 57.8983C104.07 58.5909 104.215 59.8991 103.967 61.2244C104.181 62.4385 105.087 63.5757 104.847 64.8754C104.711 65.7133 104.369 66.5341 103.634 67.1669L103.463 67.1241C103.113 66.2263 103.028 65.491 103.002 64.7471C102.925 63.6698 103.694 62.4385 103.412 61.3356C102.669 60.2668 102.114 59.5229 102.447 57.9753ZM92.8528 58.7192L92.998 58.6251C94.4589 58.9757 94.5699 59.9418 94.4076 61.1047C94.681 62.1136 95.5951 62.6951 95.5012 63.9349C95.4328 64.6189 95.1594 65.3029 94.4931 65.8159L94.3222 65.7817C93.8865 65.072 93.7327 64.5163 93.6473 63.9519C93.4935 63.1397 94.1855 62.0965 93.8694 61.2671C93.0578 60.4463 92.5879 60.1813 92.8528 58.7192ZM93.3226 80.4284L93.3995 80.5823C92.9638 81.4373 92.1693 81.9076 91.3406 82.1213C89.9993 82.4719 88.9314 81.5912 87.7268 81.2919C86.3684 81.4459 85.0869 81.1209 84.7367 79.4964L84.8477 79.3681C86.4624 79.3852 86.8468 79.9153 87.872 80.7533C88.2138 80.9072 88.6067 80.873 88.9741 80.7704C90.5802 80.2659 91.5884 80.1291 93.3226 80.4284ZM85.8131 60.8396C87.4278 59.9418 90.0762 61.1987 90.9476 62.0709C91.819 62.943 91.0416 65.8758 90.1531 66.765C89.2646 67.6542 85.0869 67.0985 83.0109 65.0293C80.9349 62.9516 85.8131 60.8396 85.8131 60.8396ZM77.3809 62.5326C77.2527 60.3608 78.1925 58.1121 80.3283 57.2057L80.4565 57.3255C79.8926 59.4545 78.8162 60.8225 77.9362 62.6437C77.5261 65.9955 80.0208 68.475 81.1399 71.5531L81.0203 71.6814C77.1331 70.0569 76.3899 66.2691 77.3809 62.5326ZM70.1021 62.695L70.2729 62.7378C70.8453 64.5676 70.5036 65.9698 70.1533 67.6542C70.1533 68.2014 70.3412 68.7315 70.5975 69.2275C71.7167 71.2624 72.4942 72.9383 72.964 75.2725L72.8274 75.3751C71.6997 74.8365 70.8966 73.8959 70.3327 72.8613C69.4357 71.271 69.7945 69.4156 69.5894 67.7055C68.906 66.0639 68.7352 64.1571 70.1021 62.695Z" fill="#CA4024"/>
</svg>
