<svg width="182" height="199" viewBox="0 0 182 199" fill="none" xmlns="http://www.w3.org/2000/svg">
<path d="M113.46 60.0334C112.836 61.4702 112.417 62.984 112.221 64.5234C113.332 62.5222 114.886 60.786 116.587 59.2295C118.782 56.5954 120.542 53.5507 123.225 51.3442C124.985 49.8646 126.924 48.5818 129.085 47.6923L129.188 47.8291C125.6 52.3277 120.815 55.3552 117.031 59.5887C115.544 62.0945 114.092 64.5234 112.127 66.6871C112.153 67.7989 112.298 68.8937 112.58 69.9713C114.1 68.2865 115.895 66.9009 117.791 65.6095C120.243 63.3774 122.105 60.5123 124.634 58.3657C126.3 56.9118 128.069 55.5691 130.059 54.4658L130.179 54.5941C127.197 59.4775 122.413 62.4281 118.176 66.0286C116.629 67.9871 114.998 69.8344 112.998 71.2883C113.084 71.5278 113.161 71.7673 113.263 71.9982C113.545 72.6311 113.878 73.2297 114.246 73.8027C115.954 72.1692 117.936 70.9291 120.038 69.7831C122.652 67.816 124.745 65.1648 127.437 63.2833C129.214 62.009 131.076 60.8544 133.16 59.9479L133.272 60.0847C129.905 64.626 124.882 67.0806 120.38 70.2364C118.731 71.9554 117.005 73.5804 114.98 74.8119C115.484 75.4619 116.048 76.0862 116.698 76.6592C118.338 74.8718 120.397 74.0764 122.618 73.4521C124.72 72.3916 126.411 70.5528 128.573 69.5864C129.999 68.9279 131.486 68.3719 133.152 68.1239L133.237 68.2779C130.512 71.4594 126.497 72.3317 122.874 73.9567C121.174 75.3764 119.372 76.625 117.133 76.9928C118.321 77.9678 119.748 78.8144 121.431 79.5328C122.874 78.9256 124.378 78.4723 125.916 78.0276C130.444 75.5731 134.245 72.0837 139.252 70.4673L139.354 70.6127C137.996 72.2462 136.364 73.5547 134.63 74.6922C132.041 76.4454 128.932 77.1724 126.164 78.5408C125.258 79.1736 124.318 79.7637 123.353 80.2683C124.737 80.7387 126.24 81.1492 127.941 81.4657C128.615 81.594 129.282 81.6795 129.957 81.7479C132.161 80.2684 134.553 79.3104 137.039 78.3953C141.635 75.5217 145.394 71.6219 150.469 69.4325L150.58 69.5693C149.264 71.3738 147.65 72.8705 145.916 74.1961C143.327 76.2316 140.132 77.2579 137.313 78.8914C135.8 80.0802 134.194 81.1492 132.451 81.9189C143.284 82.1156 153.997 76.3257 159.269 71.0574C165.266 65.0537 170.144 55.0559 166.761 48.0601C163.378 41.0642 157.91 38.5156 153.365 36.9249C148.82 35.3341 134.972 36.9249 126.121 42.5695C120.132 46.3667 115.698 54.902 113.46 60.0334ZM157.62 58.0065C157.064 58.092 156.466 57.9894 156.014 57.5703C155.783 57.3736 155.578 57.2197 155.33 57.2026C155.082 57.1769 154.741 57.3394 154.442 57.3052C153.869 57.2539 153.28 56.1848 153.75 55.7572C154.502 55.6888 154.835 55.7145 155.108 56.0223C155.228 56.2019 155.305 56.544 155.501 56.6638C155.689 56.7921 155.937 56.7408 156.159 56.621C157.193 56.0224 157.517 56.0822 158.722 56.544C159.021 57.1598 158.047 57.9295 157.62 58.0065ZM154.339 44.8016C156.663 44.8016 158.38 47.7351 159.405 48.7614C160.431 49.7877 158.38 52.5244 156.646 52.5244C154.912 52.5244 151.272 49.2831 151.272 46.9996C151.272 44.7076 154.339 44.8016 154.339 44.8016ZM149.657 41.4063C150.495 40.8589 151.409 39.9267 152.554 40.2859C152.921 40.3458 154.091 40.7734 153.946 41.2524C152.955 41.5774 152.255 41.851 151.281 41.7912C150.358 41.5346 149.341 41.9366 149.051 42.8602C148.555 44.5108 148.743 46.2811 147.872 48.0258L147.701 48.0344C146.146 45.6141 146.625 42.176 149.657 41.4063Z" fill="#1F644D"/>
<path d="M178.106 92.5837C173.245 87.7174 165.087 81.782 157.346 79.088C157.867 79.6696 158.363 80.2768 158.833 80.8926C161.131 83.1675 163.916 84.9892 165.813 87.6661C167.086 89.4193 168.188 91.3093 168.888 93.4132L168.743 93.5073C164.608 89.9496 162.122 85.203 158.44 81.3031C157.013 80.311 155.621 79.3189 154.322 78.2071C154.228 78.1815 154.126 78.1558 154.032 78.1301C154.032 78.1301 148.504 82.8767 143.13 82.8767C143.13 82.8767 150.067 89.0173 151.708 95.6882C152.058 97.1079 152.468 98.7328 152.827 100.452C153.621 100.383 154.228 100.589 154.681 101.033C155.057 101.675 155.398 102.316 156.253 102.35C157.799 102.564 158.918 103.325 159.448 104.891L159.354 105.036C158.483 105.139 157.808 104.933 157.193 104.634C156.236 104.189 155.86 102.949 154.988 102.427C154.177 102.316 153.519 102.171 153.058 101.641C153.647 104.959 153.886 108.602 152.947 112.1C153.066 112.092 153.186 112.092 153.322 112.049C154.775 111.724 156.159 112.323 156.689 113.811L156.603 113.965C155.791 114.144 155.193 114.084 154.63 113.939C153.963 113.794 153.408 113.118 152.776 112.776C152.229 114.503 151.349 116.18 150.067 117.753C150.076 117.762 150.085 117.77 150.102 117.779C150.922 118.061 151.921 117.463 152.844 117.856C153.391 118.087 153.912 118.437 154.339 119.13L154.296 119.301C153.579 119.686 152.955 119.72 152.357 119.643C151.358 119.515 150.811 118.497 149.956 118.318C149.794 118.352 149.64 118.386 149.487 118.412C148.88 119.079 148.214 119.737 147.436 120.362C147.436 120.362 148.624 124.39 153.604 126.203C158.585 128.025 175.39 128.085 179.021 117.368C182.643 106.678 183.668 98.1598 178.106 92.5837ZM160.832 96.7316C157.252 94.9527 155.441 91.5403 152.793 88.8035C150.777 87.6661 148.923 86.4602 147.735 84.2879L147.838 84.151C150.247 84.7839 151.819 86.4772 153.169 88.3844C154.835 89.941 157.039 90.916 158.517 92.6863C159.508 93.8409 160.396 95.1066 160.96 96.6204L160.832 96.7316ZM169.281 117.471C168.034 118.72 164.454 119.353 162.575 117.471C160.695 115.59 165.181 111.348 165.181 111.348C166.795 109.526 169.495 111.809 170.614 112.938C171.733 114.067 170.529 116.222 169.281 117.471ZM172.998 113.289L172.827 113.246C172.229 111.279 172.519 109.868 172.083 107.995C171.819 106.926 170.802 106.815 169.913 107.003C169.076 107.02 168.316 106.9 167.231 106.644L167.171 106.481C167.889 105.583 169.102 105.258 170.161 105.575C171.169 106.122 171.87 106.806 172.852 107.413C174.706 108.85 174.544 111.715 172.998 113.289Z" fill="#1F644D"/>
<path d="M72.9817 137.586C72.9817 137.586 68.4452 132.592 67.1808 126.169C66.6084 126.733 65.9079 127.152 65.1475 127.529C64.0198 128.581 63.4987 130.265 62.2855 131.24C61.491 131.907 60.6196 132.48 59.4919 132.805L59.3723 132.686C60.0814 130.522 61.5679 129.094 63.5158 128.076C63.9857 127.819 64.4385 127.537 64.7546 127.135C65.3013 126.075 65.9335 125.125 66.9331 124.535C66.8818 124.022 66.8476 123.5 66.8476 122.97C66.8476 121.174 66.9074 119.472 67.0185 117.839C66.8562 118.027 66.6768 118.198 66.4888 118.352C65.5576 118.848 64.6606 119.344 64.2676 120.404C63.3535 122.354 61.9951 123.843 59.8934 124.569L59.7653 124.45C60.0387 123.329 60.5683 122.457 61.192 121.662C62.1061 120.447 63.7379 119.908 64.7289 118.771C65.2757 117.557 65.9506 116.496 67.1723 115.897C67.608 111.271 68.4538 107.508 69.5473 105.147C71.1534 101.666 71.3841 99.015 71.3841 99.015C71.3841 99.015 68.5392 102.051 62.5162 104.386C61.9181 105.677 60.9528 106.729 59.8592 107.696C58.6205 109.398 58.0054 111.57 56.5103 113.109C55.5449 114.144 54.4514 115.068 53.0844 115.709L52.9563 115.589C54.1694 112.057 57.1596 110.107 59.3979 107.371C59.7055 106.592 60.0216 105.84 60.406 105.13C58.7401 105.652 56.8862 106.113 54.8187 106.447C43.4648 108.269 35.2888 108.269 35.2888 108.269C35.2888 108.269 26.6602 115.538 26.6602 125.091C26.6602 134.636 33.1616 145.771 42.3285 148.063C51.4869 150.355 64.0112 147.25 66.8476 144.411C69.6925 141.572 72.9817 137.586 72.9817 137.586ZM47.4972 110.629C47.9585 109.902 48.9239 110.048 49.2741 109.509C49.3766 109.303 49.2998 108.953 49.3596 108.713C49.4365 108.32 50.3848 107.85 50.829 108.209C51.0938 109.526 50.5812 109.594 49.7013 109.868C49.2314 110.296 49.5475 111.236 48.9153 111.818C48.6932 112.032 47.762 112.536 47.2836 112.194C47.1469 111.493 47.275 111.023 47.4972 110.629ZM36.6301 130.941C36.4165 131.232 36.3909 131.608 36.4165 131.976C36.6216 133.584 36.5361 134.559 35.8185 136.107L35.6477 136.149C34.9386 135.551 34.6652 134.721 34.631 133.917C34.5798 132.549 35.622 131.805 36.1175 130.702C36.1859 129.393 36.6728 128.247 38.279 128.179L38.39 128.307C38.1764 129.872 37.6126 130.129 36.6301 130.941ZM37.3478 117.625C36.707 118.583 35.9723 119.481 34.9386 120.233L34.7848 120.148C34.8702 116.684 37.1513 115.016 39.0137 112.553C39.5263 110.809 40.2525 109.209 42.0722 108.329L42.2174 108.431C42.0124 110.432 40.8505 111.664 39.4836 112.861C38.5182 114.298 38.3388 116.214 37.3478 117.625ZM40.9189 136.697C38.672 134.448 42.1405 130.864 42.1405 130.864C43.5075 130.864 46.4549 131.788 47.5911 132.925C48.7274 134.063 48.6078 136.449 47.5911 137.466C46.5745 138.484 43.1657 138.946 40.9189 136.697ZM52.0678 137.697C51.6833 139.1 51.6663 140.768 50.3164 141.726C49.4706 142.333 48.4113 142.624 47.3861 142.341L47.3348 142.17C48.642 140.674 49.5134 139.981 50.9059 138.681C51.222 138.373 51.4783 137.988 51.521 137.543C51.3758 136.124 51.0939 135.072 51.9909 133.618L52.1618 133.601C53.2553 134.926 52.9307 136.466 52.0678 137.697ZM55.1604 122.32L55.0323 122.209C56.8777 117.668 60.5683 114.632 63.4474 110.843C64.6178 108.217 65.8652 105.729 68.1462 103.779L68.3 103.864C67.6934 106.823 65.9335 109.09 63.9173 111.159C62.2855 113.494 61.2945 116.274 59.415 118.437C58.1677 119.891 56.8093 121.243 55.1604 122.32ZM72.2812 136.953L72.3922 137.09C72.3238 138.467 71.7173 138.544 70.7263 138.689C70.1112 139.091 70.1368 140.152 69.3423 140.639C69.0689 140.819 67.907 141.255 67.514 140.819C67.5567 140.066 67.8301 139.587 68.1804 139.203C68.8296 138.518 69.8463 138.775 70.376 138.253C70.7177 137.321 70.9228 136.731 72.2812 136.953ZM65.4551 136.278C65.344 135.602 65.4893 135.174 65.7114 134.832C66.2069 134.191 67.1039 134.473 67.4456 134.011C67.5482 133.832 67.4969 133.49 67.5567 133.276C67.6592 132.908 68.5648 132.6 68.9834 132.994C69.1799 134.353 68.6588 134.251 67.8472 134.413C67.3859 134.747 67.6592 135.662 67.027 136.149C66.7964 136.32 65.8908 136.671 65.4551 136.278Z" fill="#1F644D"/>
<path d="M81.8412 140.776C97.7316 146.455 104.746 133.481 107.266 130.958C109.786 128.435 111.068 116 111.068 116C111.068 116 108.3 112.571 105.549 109.244C105.506 109.988 105.344 110.74 105.122 111.476C105.028 113.366 105.668 115.316 105.173 117.189C104.865 118.429 104.378 119.635 103.498 120.678L103.327 120.627C102.678 117.3 104.199 114.598 104.558 111.45C104.233 110.108 103.96 108.842 104.113 107.508C102.499 105.575 101.063 103.89 100.448 103.274C100.406 103.231 100.363 103.163 100.32 103.112C100.081 104.369 99.5769 105.558 98.996 106.738C98.4407 108.885 98.7483 111.236 98.0733 113.366C97.6547 114.786 97.1165 116.18 96.228 117.488L96.0571 117.446C95.4078 113.52 97.3301 110.185 98.4407 106.61C98.4578 104.856 98.6116 103.146 99.3463 101.564C97.7658 98.3823 96.1255 92.5837 96.1255 92.5837C96.1255 92.5837 94.0238 93.037 91.6574 93.439C90.9055 95.4402 89.9059 97.3132 88.838 99.1947C87.1636 104.36 86.8389 109.783 84.4212 114.76L84.2503 114.734C84.0709 112.502 84.3187 110.313 84.78 108.175C85.4293 104.933 87.2063 102.077 88.3169 99.0066C88.7014 97.1764 89.2225 95.3804 90.0256 93.7127C88.6586 93.9179 87.3345 94.0633 86.4118 94.0633C85.8565 94.0633 85.173 94.0633 84.4383 94.0633C83.9342 96.0303 82.892 97.6296 81.713 99.2631C80.4059 102.932 80.329 106.849 78.0821 110.227L77.9112 110.193C77.672 108.56 77.8515 106.977 78.2103 105.447C78.7229 103.112 80.3034 101.213 81.2004 99.0493C81.5592 97.2362 82.1402 95.483 83.3277 94.0804C81.6788 94.0804 79.9445 94.0804 78.757 94.0804C78.2871 95.8165 77.4841 97.3902 76.5956 98.998C75.5533 103.146 75.801 107.414 73.8532 111.382L73.6823 111.365C73.2979 109.611 73.3406 107.867 73.5712 106.165C73.8873 103.574 75.3226 101.299 76.0574 98.8355C76.2453 97.1849 76.587 95.56 77.3132 94.089H77.2961C72.0762 102.154 70.0344 108.979 70.0344 108.979C70.0344 108.979 65.9422 135.089 81.8412 140.776ZM91.2302 106.011C91.4523 104.437 92.6313 103.103 92.9644 101.555C92.8448 99.896 92.9303 98.3224 94.263 96.9967L94.4339 97.0395C94.7671 98.2026 94.6902 99.2631 94.3143 100.255C93.7333 101.187 93.178 102.103 93.3403 103.266C93.46 105.506 92.9901 107.559 91.4865 109.312L91.3156 109.269C91.0166 108.115 91.0679 107.046 91.2302 106.011ZM86.4203 126.383C88.2571 126.006 91.8453 128.17 92.9815 129.299C94.1093 130.428 91.8538 132.463 90.709 133.609C89.5642 134.756 84.8227 134.294 83.1055 130.428C81.3798 126.571 86.4203 126.383 86.4203 126.383Z" fill="#1F644D"/>
<path d="M151.375 108.671C153.417 100.315 146.095 88.8975 138.773 83.9542C138.773 83.9542 133.015 84.664 127.539 84.0568C128.197 84.5101 128.846 84.9719 129.453 85.5022C131.418 87.1699 133.22 89.0429 134.681 91.2067L134.562 91.3349C130.717 89.1198 127.479 86.212 124.096 83.4667C123.421 83.2957 122.763 83.1076 122.157 82.8681C116.732 80.7556 111.666 76.3084 110.564 75.3078C110.487 75.2564 110.41 75.2051 110.333 75.1453C110.324 75.342 110.23 77.1123 109.513 79.4813C111.666 80.4734 113.34 82.047 114.904 83.8003C117.014 85.4851 119.654 86.4772 121.695 88.2646C123.071 89.4363 124.369 90.6935 125.446 92.2415L125.343 92.3783C120.858 90.856 117.988 87.2298 114.562 84.245C112.571 83.2187 110.709 82.0556 109.239 80.3537C108.804 81.5938 108.197 82.945 107.343 84.2792C108.342 85.0831 109.274 85.9897 110.162 86.939C112.64 88.9146 115.596 90.3172 117.842 92.5921C119.355 94.0888 120.739 95.7137 121.815 97.6038L121.695 97.7236C116.971 95.098 113.827 90.8218 109.82 87.3752C108.693 86.7594 107.599 86.118 106.54 85.4252C105.976 86.1693 105.318 86.8877 104.575 87.5633C106.488 88.983 107.958 90.8218 109.308 92.7888C111.358 94.9526 114.032 96.5091 115.997 98.7584C117.321 100.238 118.569 101.812 119.551 103.625L119.423 103.744C114.869 101.273 112.204 96.9368 108.898 93.1823C106.958 91.7626 105.156 90.2317 103.797 88.2561C102.678 89.1626 101.345 89.9494 99.8076 90.608C100.918 92.1816 101.858 93.8664 102.764 95.6025C106.258 99.9643 110.623 103.471 113.315 108.491L113.186 108.611C111.247 107.379 109.573 105.865 108.06 104.215C105.745 101.752 104.318 98.6215 102.311 95.9275C100.944 94.542 99.6624 93.071 98.6458 91.429C98.8679 92.5835 99.7478 96.6203 101.482 99.8018C103.524 103.548 113.742 120.764 126.685 122.637C139.619 124.518 149.077 118.044 151.375 108.671ZM129.982 111.749C130.392 113.503 130.427 114.803 129.786 116.564L129.615 116.607C128.872 115.932 128.547 115.051 128.436 114.178C128.231 112.81 129.196 111.655 129.487 110.398C129.316 109.013 129.572 107.644 131.119 107.02L131.264 107.114C131.469 108.696 130.837 109.483 130.034 110.544C129.88 110.911 129.897 111.33 129.982 111.749ZM145.224 108.842C145.224 110.201 143.122 111.98 141.84 113.272C140.55 114.563 136.236 112.81 138.372 110.672C140.508 108.534 141.746 106.652 143.139 105.891C146.061 104.292 145.224 107.473 145.224 108.842Z" fill="#1F644D"/>
<path d="M107.941 153.28C107.941 153.28 107.941 153.28 105.907 151.244C105.899 151.236 105.899 151.227 105.89 151.227C105.822 151.698 105.694 152.159 105.489 152.587C104.831 153.494 104.19 154.366 104.216 155.555C104.079 157.821 103.276 159.882 101.465 161.37L101.303 161.302C101.226 160.105 101.448 159.053 101.764 158.043C102.208 156.521 103.549 155.315 104.028 153.793C104.062 152.433 104.199 151.167 104.976 150.047C103.08 147.182 100.91 141.674 100.91 141.674L96.3987 142.701C96.4415 142.709 96.4927 142.718 96.4927 142.718C97.0993 144.736 96.45 146.472 95.5359 148.165C95.0916 149.953 95.4675 151.937 94.8439 153.699C94.4509 154.871 93.9297 156.008 93.0583 157.034L92.8875 156.983C92.2638 153.451 94.0237 151.125 94.9891 148.029C94.9037 146.13 95.0062 144.334 96.2962 142.709L88.8807 144.394C79.7992 144.394 74.3486 138.938 74.3486 138.938C74.3486 138.938 72.5203 142.564 69.5643 145.531C68.0351 147.062 64.951 148.525 62.3197 149.594C62.8152 151.261 62.4393 152.767 61.9182 154.34C62.0549 157.436 63.2594 159.908 61.9865 163.141L61.8157 163.158C61.1407 162.037 60.8588 160.857 60.7221 159.668C60.4829 157.872 61.3201 156.102 61.3457 154.323C60.9869 152.835 60.8417 151.347 61.4654 149.936C59.3808 150.74 57.7661 151.244 57.7661 151.244C57.7661 166.716 66.3948 184.18 84.7799 180.998C103.182 177.817 107.941 153.28 107.941 153.28ZM84.0281 145.643L84.1989 145.677C84.6774 146.395 84.7287 147.028 84.4894 147.61C84.0537 148.157 83.6095 148.619 83.9085 149.38C84.3271 150.774 84.0708 151.988 82.8577 152.946L82.6868 152.912C82.2511 152.202 82.1657 151.561 82.1999 150.936C82.2511 149.91 83.2251 149.235 83.3361 148.328C83.02 147.259 82.8492 146.472 84.0281 145.643ZM68.2744 151.407C67.7361 150.483 67.3944 149.859 68.3854 148.841L68.5562 148.833C69.6071 149.782 69.3081 150.423 68.8382 151.381C68.804 152.211 69.6669 152.938 69.5643 153.913C69.5045 154.486 69.3252 155.059 68.7784 155.649L68.6075 155.657C68.0351 155.11 67.813 154.546 67.7105 153.981C67.5482 153.006 68.3683 152.236 68.2744 151.407ZM69.2995 167.956C69.7779 169.546 69.8976 170.504 69.6413 172.223L69.4875 172.309C68.6246 171.907 68.1376 171.112 67.9241 170.291C67.5738 168.905 68.4623 167.913 68.804 166.707C68.693 165.347 69.0945 164.064 70.7348 163.842L70.8544 163.962C70.7177 165.604 70.2308 165.869 69.3423 166.861C69.1885 167.203 69.2141 167.588 69.2995 167.956ZM74.6903 147.105C74.2119 145.899 73.9471 144.813 74.9722 143.616L75.1431 143.624C75.7241 144.42 75.8778 145.198 75.7241 145.968C75.3652 146.72 75.0064 147.456 75.4251 148.294C76.0402 149.919 75.9889 151.475 74.921 152.946H74.7501C74.2119 152.159 74.0325 151.373 73.9641 150.594C73.836 149.406 74.6988 148.268 74.6903 147.105ZM82.7722 173.087C81.636 173.087 77.6634 173.506 75.2798 171.12C72.8962 168.734 76.4246 165.322 76.4246 165.322C79.3806 164.92 82.2597 165.724 84.6176 168.093C86.9841 170.453 83.9085 173.087 82.7722 173.087ZM87.9409 151.988C87.9836 150.765 89.0174 149.713 89.1711 148.516C88.8721 147.233 88.7782 146.027 89.9571 144.967L90.128 144.993C90.5893 145.891 90.6235 146.712 90.3587 147.481C89.8973 148.208 89.436 148.91 89.7179 149.825C90.0853 151.578 89.8204 153.169 88.5389 154.537L88.3681 154.511C87.9494 153.622 87.8811 152.792 87.9409 151.988ZM89.7094 170.462C89.2053 170.342 88.8807 169.256 88.8465 169.033C88.7183 168.392 89.4787 167.562 89.2224 167.015C89.1113 166.81 88.7696 166.681 88.5987 166.527C88.3168 166.305 88.2912 165.219 88.7184 164.954C89.4787 165.048 89.8888 165.476 89.9486 166.006C89.829 166.604 89.5727 167.058 90.1194 167.537C90.9737 168.46 90.8969 169.777 89.7094 170.462ZM94.6815 162.764L94.5363 162.679C95.1429 158.693 97.6546 155.726 99.0471 152.1C99.2351 149.748 99.4743 147.541 100.798 145.412L100.969 145.437C101.576 147.917 100.756 150.184 99.5854 152.262C98.8592 154.486 98.7994 156.957 97.629 159.036C96.8772 160.421 95.9545 161.73 94.6815 162.764Z" fill="#1F644D"/>
<path d="M132.656 173.711C133.186 176.012 132.972 178.338 131.588 180.331L131.417 180.305C131.042 179.125 130.982 178.013 131.016 176.919C131.033 175.277 131.964 173.669 131.964 172.018C131.742 171.24 131.563 170.487 131.52 169.726C129.726 168.418 127.795 166.613 125.95 164.15C125.933 165.125 125.668 166.1 125.113 167.024L124.942 167.015C124.412 166.066 124.216 165.142 124.113 164.218C124.01 163.432 124.207 162.628 124.369 161.824C123.37 160.199 122.413 158.369 121.567 156.248C121.567 156.248 119.577 156.239 117.116 155.94C117.116 156.068 117.125 156.196 117.116 156.324C116.834 157.445 116.552 158.54 117.005 159.677C117.706 161.918 117.714 164.201 116.586 166.348L116.416 166.339C115.894 165.21 115.715 164.116 115.638 163.012C115.493 161.362 116.296 159.686 116.193 158.035C115.92 157.257 115.698 156.496 115.621 155.726C113.477 155.375 111.221 154.777 109.692 153.776C109.624 154.725 109.504 155.666 109.359 156.615C109.367 159.515 110.256 162.397 110.153 165.296C110.111 167.229 109.94 169.162 109.41 171.103H109.239C107.718 166.647 108.496 162.132 108.744 157.599C108.069 160.07 106.915 163.44 105.07 166.921C105.215 167.46 105.275 168.016 105.249 168.571C104.985 169.7 104.737 170.795 105.215 171.924C105.976 174.148 106.061 176.423 105.01 178.603H104.839C104.276 177.5 104.062 176.397 103.951 175.302C103.754 173.652 104.515 171.958 104.361 170.308C104.19 169.854 104.036 169.393 103.917 168.939C102.336 171.531 100.337 174.088 97.8425 176.277C97.7998 176.474 97.7314 176.688 97.6545 176.919C97.7399 177.705 98.7054 178.227 98.7652 179.202C98.7822 179.749 98.7139 180.357 98.1927 180.99H98.0219C96.9198 180.134 96.6379 179.134 97.0736 177.868C97.2359 177.492 97.1846 177.209 97.0394 176.961C94.7413 178.817 92.0502 180.365 88.8892 181.366C88.8892 181.366 94.1091 199.394 114.997 198.257C135.886 197.119 138.38 173.07 138.38 173.07C138.38 173.07 136.005 172.608 132.887 170.65C132.571 171.667 132.315 172.651 132.656 173.711ZM107.701 184.111C107.078 185.83 106.745 186.583 106.428 188.464L106.275 188.541C104.344 187.344 105.121 184.214 107.035 183.444C107.471 183.213 107.881 183.025 108.222 182.734C109.12 181.528 110.657 180.861 112.058 181.879V182.05C111.196 182.64 110.555 182.931 109.786 183.076C108.94 182.999 108 183.205 107.701 184.111ZM117.535 191.543C115.971 193.108 109.607 191.8 109.607 189.072C109.607 186.343 113.246 185.437 113.246 185.437C115.792 185.437 117.518 186.566 118.432 187.481C119.346 188.387 119.098 189.978 117.535 191.543ZM124.216 191.201C123.771 191.954 123.062 192.51 122.148 192.655L122.028 192.535C122.131 191.612 122.345 190.996 122.541 190.414C122.797 189.627 123.746 188.593 123.378 187.652C122.456 186.643 122.097 186.703 121.695 184.992L121.798 184.847C123.464 184.821 124.036 186.104 123.917 187.489C124.267 188.747 124.959 189.884 124.216 191.201Z" fill="#1F644D"/>
<path d="M20.4578 117.582C21.2779 118.036 22.081 118.48 23.0634 118.172C24.0288 117.967 24.9686 117.933 25.8571 118.104C26.6089 116.71 27.4632 115.316 28.3517 113.982C27.7964 113.836 27.2411 113.64 26.6943 113.4C26.1646 113.178 25.6179 112.998 25.0626 112.99C23.3283 113.28 21.6624 113.34 20.1075 112.152L20.1331 111.98C21.9443 111.219 23.5333 111.715 25.1394 112.434C26.5491 112.648 28.0271 112.271 29.4538 112.374C30.6243 110.706 31.769 109.201 32.7259 107.995C31.5127 108.029 30.3081 107.781 29.1035 107.319C28.5909 107.131 28.0698 106.977 27.5401 107.003C25.9169 107.388 24.3535 107.55 22.8328 106.447L22.8499 106.276C24.5243 105.421 26.0451 105.814 27.5914 106.447C29.1634 106.61 30.7951 105.891 32.3671 106.165C32.8882 106.242 33.4008 106.353 33.9219 106.524C34.631 105.669 35.0838 105.147 35.0838 105.147L26.6858 102.633C10.8039 97.3559 13.29 80.3025 13.29 80.3025C-1.24212 88.0338 -2.11351 102.051 2.95264 111.553C8.76205 122.466 24.1143 121.893 24.1143 121.893C24.3621 121.217 24.6696 120.516 25.0028 119.806C23.8665 119.584 22.8072 118.857 21.6538 118.737C20.2613 119.062 18.9456 119.182 17.7239 118.018L17.7496 117.847C18.6893 117.386 19.5949 117.334 20.4578 117.582ZM6.87401 100.153C6.68606 100.452 6.6946 100.828 6.76295 101.187C7.16448 102.744 7.22425 103.591 6.94232 105.258L6.78855 105.344C5.93422 104.968 5.46434 104.172 5.28493 103.368C4.99446 101.966 5.92566 101.11 6.34428 99.9558C6.3272 98.6131 6.83129 97.4072 8.4716 97.4158L8.57411 97.5526C8.26656 99.1434 7.83086 99.2545 6.87401 100.153ZM16.3741 109.295C15.5283 110.142 11.4788 109.748 10.2571 105.883C9.03542 102.017 11.7009 101.11 11.7009 101.11C13.7428 101.11 16.0494 103.804 17.2113 104.968C18.3818 106.139 17.2199 108.448 16.3741 109.295Z" fill="#1F644D"/>
<path d="M166.129 129.393C166.65 130.719 166.59 132.173 166.334 133.601C166.436 135.542 167.256 137.484 166.923 139.459C166.727 140.759 166.334 142.042 165.539 143.188L165.368 143.154C164.471 139.861 165.744 136.876 165.77 133.644C165.274 132.215 164.847 130.864 164.907 129.367C163.48 129.325 161.678 129.239 159.815 129.068C160.2 130.248 160.174 131.488 160.029 132.763C160.285 134.559 161.404 136.209 161.55 138.022C161.669 139.228 161.661 140.451 161.31 141.734L161.139 141.76C159.063 138.843 159.755 136.055 159.474 132.848C158.884 131.582 158.423 130.308 158.5 128.931C156.347 128.692 154.219 128.324 152.639 127.777C153.545 129.778 154.305 131.796 154.604 134.028C155.518 136.748 157.03 139.322 157.355 142.23C157.611 144.137 157.62 146.087 157.244 148.02L157.073 148.037C156.338 146.198 155.937 144.368 155.535 142.538C154.928 139.818 155.048 136.859 154.083 134.217C152.929 132.079 151.477 129.795 151.511 127.298C149.683 126.417 148.495 125.51 147.718 124.749C148.88 127.477 149.495 130.359 149.931 133.301C150.956 137.039 152.741 140.571 153.365 144.437C153.809 146.994 154.014 149.619 153.732 152.245L153.562 152.262C151.374 146.113 150.913 139.733 149.392 133.455C147.94 130.086 146.624 126.699 146.351 122.979L143.865 123.937C143.865 123.937 146.095 127.015 145.719 133.413C146.949 135.132 147.154 137.124 147.171 139.16C147.633 141.272 148.94 143.205 149.307 145.335C149.58 146.754 149.734 148.183 149.632 149.722L149.469 149.773C146.932 146.746 147.24 142.897 146.624 139.288C146.12 138.288 145.685 137.287 145.403 136.244C145.343 136.611 145.283 136.979 145.215 137.364C144.916 138.843 144.523 140.314 144.019 141.76C144.215 142.128 144.343 142.512 144.395 142.923C144.292 143.838 144.173 144.71 144.796 145.497C145.821 147.079 146.155 148.85 145.343 150.646L145.172 150.671C144.506 149.902 144.173 149.106 143.942 148.294C143.566 147.079 144.113 145.651 143.754 144.437C143.575 144.189 143.412 143.949 143.267 143.701C142.447 145.583 141.387 147.362 140.038 148.944C140.61 149.876 140.431 150.774 140.114 151.792C140.2 152.921 141.182 153.938 141.208 155.084C141.251 155.846 141.182 156.615 140.781 157.471L140.61 157.505C139.918 156.855 139.585 156.128 139.388 155.375C139.047 154.238 139.722 152.998 139.559 151.852C139.235 151.279 138.978 150.714 138.927 150.133C137.671 151.356 136.202 152.433 134.476 153.288C134.895 154.229 134.971 155.255 134.954 156.342C135.373 157.89 136.646 159.215 136.962 160.797C137.193 161.841 137.304 162.918 137.065 164.073L136.894 164.116C135.296 162.388 134.681 160.336 134.681 158.061C134.672 157.513 134.63 156.974 134.408 156.478C133.852 155.657 133.374 154.802 133.169 153.879C131.964 154.366 130.64 154.751 129.196 155.033C129.324 155.837 129.196 156.624 129.025 157.488C129.042 157.949 129.239 158.377 129.478 158.788C130.546 160.464 131.11 161.995 130.99 164.047L130.837 164.124C129.914 163.551 129.341 162.739 128.931 161.866C128.282 160.532 128.735 158.976 128.461 157.582C128.051 156.846 127.752 156.059 127.744 155.264C126.462 155.444 125.113 155.555 123.652 155.555C123.652 155.555 129.658 168.178 135.561 170.787C141.473 173.395 159.969 176.465 165.42 163.517C170.87 150.56 168.999 134.422 167.889 129.427C167.863 129.41 167.197 129.41 166.129 129.393ZM140.61 168.46C140.32 167.819 140.294 167.075 140.67 166.468C140.832 166.168 140.977 165.912 140.977 165.621C140.695 164.603 140.712 163.782 142.02 163.363L142.173 163.432C142.712 164.86 142.225 164.954 141.524 165.732C141.259 166.391 142.173 167.169 142.285 167.665C142.387 168.041 142.37 168.4 142.566 169.136C142.284 169.76 140.883 169.119 140.61 168.46ZM152.596 167.024C151.067 168.554 146.983 167.075 145.232 165.322C143.481 163.568 146.753 162.722 146.753 162.722C146.753 162.722 146.753 162.722 149.529 161.576C152.306 160.43 154.8 161.524 156.005 162.722C157.201 163.919 154.125 165.493 152.596 167.024ZM160.054 161.576C159.559 161.516 159.089 160.353 159.021 160.13C158.799 159.497 159.388 158.471 159.012 157.907C158.85 157.701 158.491 157.624 158.277 157.488C157.961 157.317 157.62 156.171 157.978 155.828C158.773 155.777 159.311 156.162 159.499 156.718C159.525 157.359 159.388 157.924 160.02 158.343C161.054 159.198 161.191 160.678 160.054 161.576Z" fill="#1F644D"/>
<path d="M111.067 151.244C118.961 154.751 132.511 156 139.978 145.087C147.453 134.174 141.772 123.937 141.772 123.937C141.772 123.937 141.225 124.202 140.32 124.552C140.764 125.391 140.918 126.271 140.807 127.144C140.465 128.179 140.106 129.162 140.456 130.265C140.952 132.421 140.653 134.61 139.192 136.355L139.021 136.321C138.696 135.2 138.679 134.182 138.739 133.173C138.799 131.668 139.773 130.206 139.773 128.683C139.388 127.375 139.115 126.152 139.551 124.826C138.372 125.245 136.808 125.707 135.057 125.989C135.057 125.998 135.048 126.006 135.048 126.015C134.989 126.87 135.826 127.666 135.689 128.658C135.612 129.248 135.407 129.829 134.852 130.419H134.681C134.126 129.829 133.921 129.248 133.844 128.658C133.716 127.683 134.502 126.913 134.485 126.075C133.16 126.254 131.759 126.34 130.358 126.212C130.367 126.477 130.136 126.725 129.914 127.067C129.846 127.589 130.7 127.939 130.64 128.692C130.606 128.965 130.264 129.787 129.683 129.846C129.111 129.504 128.889 129.145 128.786 128.786C128.649 128.042 129.461 127.614 129.342 127.093C129.282 126.913 128.991 126.742 128.872 126.562C128.786 126.434 128.82 126.212 128.923 125.998C128.59 125.929 128.256 125.861 127.923 125.767C127.428 125.622 126.924 125.45 126.42 125.271C126.386 125.468 126.351 125.673 126.309 125.87C126.42 127.614 127.411 129.273 127.402 131.035C127.428 132.198 127.325 133.379 126.872 134.576L126.702 134.593C125.454 132.404 125.275 130.086 125.711 127.674C125.813 127.084 125.864 126.494 125.753 125.921C125.617 125.579 125.497 125.228 125.395 124.886C124.728 124.621 124.07 124.33 123.421 124.031C123.626 124.903 123.626 125.938 123.532 126.579C123.19 127.495 122.84 128.358 123.207 129.35C123.746 131.266 123.524 133.207 122.174 134.781L122.003 134.747C121.618 133.755 121.55 132.84 121.576 131.942C121.576 130.599 122.515 129.299 122.507 127.948C122.097 126.75 122.003 125.014 122.55 123.62C120.995 122.851 119.525 122.03 118.269 121.277C118.577 122.457 118.449 123.655 118.201 124.886C118.312 126.631 119.303 128.29 119.295 130.052C119.32 131.215 119.218 132.395 118.765 133.592L118.594 133.609C117.347 131.42 117.167 129.102 117.603 126.691C117.706 126.1 117.757 125.51 117.646 124.937C117.09 123.501 116.706 122.081 117.099 120.558C115.399 119.489 114.305 118.703 114.305 118.703H113.784C114.041 120.003 113.938 121.337 113.733 122.688C113.887 124.732 114.903 126.699 114.938 128.76C114.98 130.129 114.912 131.514 114.476 132.925L114.305 132.942C112.46 129.71 113.237 126.212 113.169 122.739C112.708 121.405 112.358 120.08 112.4 118.703H112.093C112.093 118.703 113.263 126.605 108.325 133.763C109.188 134.302 108.821 134.653 108.504 135.303C108.487 135.859 109.384 136.158 109.393 136.936C109.393 137.219 109.137 138.125 108.564 138.236C107.958 137.937 107.701 137.578 107.565 137.201C107.351 136.449 108.112 135.91 107.949 135.38C107.872 135.209 107.616 135.063 107.462 134.901C106.984 135.5 106.471 136.098 105.899 136.671L103.404 139.168C103.404 139.177 103.182 147.747 111.067 151.244ZM131.272 140.939L131.426 140.853C132.221 141.041 132.639 141.572 132.69 142.179C132.554 142.829 132.297 143.376 132.81 143.949C133.613 145.07 133.425 146.566 132.127 147.276L131.964 147.225C131.588 146.549 131.469 146.053 131.435 145.557C131.358 144.839 132.169 143.941 131.939 143.248C131.23 142.461 130.819 142.299 131.272 140.939ZM117.535 142.256C118.902 140.888 121.832 142.128 123.626 142.128C125.42 142.128 127.462 143.154 127.462 145.42C127.462 147.687 125.762 147.327 124.651 148.431C123.541 149.543 118.432 149.046 116.86 147.473C115.288 145.899 116.279 143.513 117.535 142.256Z" fill="#1F644D"/>
<path d="M63.7464 58.2716C64.148 58.4426 64.6179 58.2801 64.8229 57.8952C65.9079 55.8598 69.4705 49.779 74.3487 47.3587C74.4512 47.3074 74.5622 47.2646 74.6647 47.2133C73.2039 46.341 71.8882 45.2805 70.6836 44.1088C68.4623 42.0135 67.1381 39.1826 65.2415 36.8307C62.9861 34.7611 60.9956 32.4262 60.2096 29.3388L60.3548 29.2448C62.7896 31.2631 64.2505 33.8032 65.6858 36.4801C68.8041 40.0806 72.6742 42.8602 75.2628 46.9397C77.2363 46.0502 79.3123 45.366 81.3114 44.8443C80.2435 44.1601 79.2439 43.3904 78.2956 42.5608C76.0488 40.6537 74.5537 38.0024 72.4862 35.9327C70.077 34.1881 67.8643 32.2467 66.6255 29.3987L66.7537 29.279C69.4448 30.8013 71.2133 33.0848 72.8877 35.5393C76.1342 38.5412 79.8932 40.9102 82.4733 44.5535C85.3438 43.8864 87.8983 43.5443 89.419 43.3818C89.6325 43.3562 89.8205 43.2878 89.9914 43.1937C87.5394 40.0122 86.2921 36.215 84.2161 32.7855C82.2512 30.827 80.4571 28.9112 79.3037 26.2514L79.4319 26.1317C82.0547 27.483 83.5412 29.9119 84.686 32.4605C86.2152 34.7525 88.3596 36.6426 89.5642 39.157C89.9828 40.0036 90.3587 40.876 90.6663 41.7825C90.6663 41.7654 90.6748 41.7483 90.6663 41.7398C90.3074 39.7129 89.53 35.8558 88.1118 31.4855C87.5736 30.3309 87.0268 29.1592 86.3861 28.0474C84.6518 26.3455 83.0799 24.6265 82.4135 22.1378L82.5502 22.0351C84.1477 22.9673 85.19 24.3186 85.9931 25.8324C84.7543 22.9759 83.2336 20.1194 81.3797 17.5879C73.8873 7.35923 65.0365 0.996241 50.9572 4.631C50.9572 4.631 38.0142 8.3855 38.0142 19.0076C38.0227 29.4757 47.1811 51.1218 63.7464 58.2716ZM66.1899 19.9569C69.7011 21.5305 72.2812 24.2844 74.511 27.3034C77.074 29.9974 80.1154 32.2638 82.2597 35.3426C83.7035 37.3695 84.9508 39.5418 85.8222 41.9194L85.677 42.0135C81.1235 37.7373 78.2187 32.3065 74.1094 27.6968C71.1791 25.4048 68.3342 23.1726 66.0873 20.0937L66.1899 19.9569ZM66.711 52.1908C65.028 51.2415 63.6098 50.0185 62.2941 48.7014C60.2865 46.7515 59.0648 44.1173 57.2194 42.0391C55.0153 40.2602 53.0161 38.3103 52.0166 35.5222L52.1533 35.411C54.6736 36.959 56.2199 39.2339 57.6466 41.6714C60.8759 45.0324 64.7802 47.6923 66.8391 52.0711L66.711 52.1908ZM63.0801 41.5004C64.2334 42.9371 66.0531 43.818 67.1125 45.3318C67.8387 46.3239 68.4709 47.4015 68.8297 48.7014L68.693 48.8126C65.4295 47.3416 64.5239 44.4937 62.6444 41.8595C61.0724 40.7648 59.6884 39.5504 59.2527 37.4893L59.3894 37.3781C61.3373 38.182 62.2856 39.7557 63.0801 41.5004ZM55.0921 10.6434C56.553 9.95061 59.9703 11.3361 59.9703 12.7045C59.9703 14.0728 57.5697 16.3392 55.5193 16.3392C53.4689 16.3392 50.7607 16.3393 50.7607 14.3465C50.7607 12.3367 55.0921 10.6434 55.0921 10.6434ZM47.5058 14.3209L47.6766 14.3636C48.642 19.9483 47.0615 22.5141 54.178 20.6411C55.5706 20.3418 56.9204 20.0168 58.4069 19.9569L58.4753 20.1108C56.2113 22.3858 52.4095 23.6943 49.4963 21.8641C48.4113 21.0174 47.3178 20.1023 46.7795 18.7767C46.2926 17.2287 46.6173 15.5952 47.5058 14.3209ZM42.4994 32.4177L42.6446 32.3236C45.7288 35.2229 47.9072 38.6267 50.1285 42.1247C54.6906 47.2646 60.2352 51.327 64.3957 56.8946L64.2847 57.0229C61.8328 55.6631 59.6371 53.9526 57.6124 52.0711C54.5283 49.2573 52.3583 45.6568 49.6928 42.4838C46.6771 39.6102 43.9603 36.4202 42.4994 32.4177Z" fill="#1F644D"/>
<path d="M93.6734 43.5358C93.3658 42.4069 93.2804 41.2181 93.2975 40.0293C92.8789 37.686 91.8024 35.4196 91.9306 32.9736C91.9904 31.3658 92.2723 29.7579 92.9985 28.2612L93.1693 28.2784C94.2799 32.1953 93.3488 36.0097 93.8443 39.9181C94.4594 41.3378 95.0232 42.7148 95.3393 44.1858C96.2193 44.5792 97.3982 45.1949 98.8933 46.1528C98.3551 43.6469 98.543 41.1411 98.9104 38.6182C98.8762 35.5906 97.9707 32.5887 98.0561 29.5527C98.0903 27.5343 98.244 25.5074 98.7566 23.4805H98.9275C100.593 28.4665 99.6024 33.5295 99.4657 38.6096C99.9783 41.3036 100.303 43.9805 99.722 46.7087C100.491 47.2219 101.32 47.8034 102.251 48.4876C105.83 51.1474 107.872 54.8591 109.026 57.8696C108.769 55.5091 109.009 53.1658 109.376 50.7968C109.41 47.5127 108.581 44.2371 108.735 40.953C108.812 38.7636 109.026 36.5741 109.572 34.3933H109.743C111.281 39.8411 110.187 45.3062 109.94 50.7968C110.384 53.696 110.657 56.5696 110.042 59.4689C110.726 59.8195 111.657 59.6143 111.999 58.7761C116.33 48.2994 122.199 42.8944 126.693 40.1405C126.779 38.832 127.103 37.5748 127.479 36.2748C127.436 32.5289 126.215 28.9711 127.291 25.1995L127.462 25.1738C128.205 26.5764 128.538 28.0646 128.692 29.5698C128.966 31.8362 128.12 34.0598 128.034 36.3005C128.197 37.284 128.291 38.2761 128.239 39.2511C129.7 38.4814 130.948 38.011 131.845 37.7287C132.742 37.4465 133.306 36.5913 133.237 35.6591C132.853 30.827 131.503 16.878 128.239 10.6262C124.258 3.00606 116.783 -0.842498 104.293 1.66335C91.8024 4.16064 88.855 22.5739 88.855 27.1238C88.855 30.7671 91.4778 39.0715 92.5201 42.2273C92.7337 42.8174 93.1437 43.2792 93.6734 43.5358ZM104.993 49.7534L104.822 49.7448C103.977 47.2475 104.387 44.8529 105.027 42.4497C105.198 40.0208 104.498 37.5491 104.78 35.1288C104.95 33.5124 105.241 31.9046 105.882 30.3138L106.053 30.3224C107.377 34.4275 106.053 38.4044 105.583 42.4753C105.959 44.9384 106.104 47.3587 104.993 49.7534ZM114.194 52.473H114.023C113.041 50.0698 113.323 47.7093 113.827 45.3147C113.861 42.9286 113.024 40.5425 113.186 38.1563C113.263 36.5656 113.468 34.9748 114.023 33.3841H114.194C115.741 37.3353 114.639 41.3036 114.391 45.3147C114.895 47.7093 115.177 50.0698 114.194 52.473ZM120.149 31.3316H120.32C120.875 32.298 121.08 33.2644 121.157 34.2308C121.311 35.6847 120.474 37.1301 120.516 38.5754C121.02 40.0293 121.311 41.449 120.32 42.92H120.149C119.551 41.9536 119.38 40.9872 119.517 40.0208C119.858 39.0629 120.192 38.1307 119.764 37.1215C119.115 35.1544 119.107 33.2216 120.149 31.3316ZM109.607 7.01715C109.607 7.01715 114.835 6.28164 116.484 7.9237C118.124 9.56575 114.844 10.4723 113.246 12.063C111.657 13.6538 108.453 12.217 106.428 10.1986C104.404 8.17169 109.607 7.01715 109.607 7.01715ZM103.233 9.52299L103.396 9.58286C103.635 10.8914 104.105 11.6525 104.592 12.5847C104.925 13.7051 105.882 14.6373 107.112 14.7228C109.555 15.005 111.853 15.2018 114.109 16.2537V16.4248C110.845 17.9214 107.761 16.5445 105.156 14.509C104.626 14.1754 103.934 13.9531 103.43 13.4399C102.447 12.4479 102.208 10.5664 103.233 9.52299Z" fill="#1F644D"/>
<path d="M16.2458 66.1312C16.767 66.4733 17.4248 66.4733 17.9545 66.1398C18.0997 66.0457 18.2791 65.9345 18.4671 65.8233C18.3987 65.7634 18.3133 65.7122 18.245 65.6609C16.3484 64.1899 15.3573 61.9234 13.8708 60.1189C12.0169 58.6051 10.4449 56.7493 10.1886 54.2092L10.3425 54.1237C12.2989 55.6802 13.2813 57.6473 14.3065 59.7683C16.0664 61.6925 18.1937 63.1293 20.0646 64.874C24.1825 62.4879 31.8629 58.5709 38.0226 58.5709C39.1674 58.5709 40.4147 58.6308 41.7133 58.7248C39.0392 56.5782 36.5617 54.1921 33.8108 52.1053C30.6839 50.5573 27.6767 48.958 25.2163 46.3496L25.3017 46.2042C28.7873 47.1364 31.5639 49.2574 34.1354 51.6521C36.9632 53.6533 40.2353 55.0473 42.8666 57.3394C43.4988 57.8696 44.0968 58.4341 44.6863 59.0156C48.6589 59.4518 52.811 60.1445 56.0403 60.7518C50.342 57.8782 45.9422 53.3283 40.9529 49.4712C37.4502 47.5982 34.0842 45.6055 31.3589 42.5865L31.4528 42.4411C35.2802 43.8266 38.3558 46.3068 41.2776 49.0094C44.4642 51.327 48.1207 52.9947 51.1792 55.5091C53.1869 57.1255 55.1006 58.8788 56.7921 60.8972C58.3983 61.2051 59.731 61.4702 60.6195 61.6583C61.2602 61.7951 61.8497 61.3077 61.8497 60.6491V59.067C61.8497 58.7676 61.6874 58.4854 61.4311 58.34L58.2189 56.4671C55.3312 55.0987 51.4184 51.1731 47.7192 47.2989C44.2592 46.1272 41.6279 43.5529 38.6377 41.5089C36.2456 40.6622 33.9902 39.6359 32.3584 37.5064L32.4439 37.361C35.0923 37.8057 37.0572 39.3109 38.9282 41.03C40.483 41.9964 42.2857 42.5609 43.9516 43.3562C43.4732 42.8602 43.0033 42.3727 42.5505 41.928C41.4997 40.8761 40.6283 39.3708 39.9021 37.6774C37.604 36.3347 35.8611 34.2907 33.6484 32.7427C31.6066 32.1269 29.7356 31.4513 28.2491 29.6981L28.3175 29.5356C30.6412 29.5185 32.3926 30.75 33.9304 32.2552C35.4767 33.2131 37.322 33.7263 38.8342 34.7611C38.2618 32.9309 37.8261 31.0408 37.5015 29.3303C37.3733 29.279 37.228 29.2448 37.0999 29.1849C36.0747 28.7488 35.4596 27.4659 34.4174 27.0383C33.1444 27.0212 32.1277 26.9356 31.299 25.6271L31.3503 25.4647C32.2644 25.1311 33.076 25.2423 33.751 25.6614C34.3319 26.2686 34.8445 26.8758 35.7757 26.8587C36.2541 26.8929 36.6984 27.0041 37.117 27.158C36.9461 26.0633 36.8265 25.1226 36.7496 24.4384C36.6728 23.7542 36.0833 23.241 35.3998 23.2496L30.496 23.2923C30.496 23.2923 7.3352 21.4707 4.15711 39.6787C1.46598 55.2441 12.914 63.9589 16.2458 66.1312ZM22.2005 29.9119C22.9352 29.6981 23.482 29.9718 23.7126 30.4592C23.7981 31.0579 23.6784 31.5625 24.3448 31.8618C25.4298 32.4862 25.6776 33.8631 24.6353 34.744C24.1398 34.7269 23.5759 33.769 23.4905 33.5894C23.2342 33.0592 23.7383 32.0585 23.3367 31.6309C23.1659 31.477 22.8156 31.4684 22.602 31.3829C22.2688 31.2717 21.91 30.2796 22.2005 29.9119ZM22.1663 52.456C23.2855 52.5415 24.1569 52.9605 24.8489 53.6362C25.4042 54.4743 25.951 55.2868 27.0103 55.5263C28.9667 56.1591 30.5131 57.2881 31.393 59.2295L31.2905 59.3663C30.1884 59.2551 29.2999 58.8531 28.4883 58.3485C27.241 57.6216 26.5832 56.0993 25.4127 55.2868C23.9518 54.8421 22.6618 54.2434 22.0723 52.5842L22.1663 52.456ZM23.5845 61.932L23.4734 62.0689C22.3628 61.8978 21.4829 61.3932 20.6969 60.786C19.4837 59.8709 19.0737 58.2459 18.0827 57.1598C16.7328 56.3815 15.5965 55.3723 15.5538 53.5849L15.6991 53.4822C17.3479 54.1237 17.946 55.3552 18.5098 56.7835C18.7747 57.1855 19.1847 57.4762 19.6119 57.7242C21.4401 58.7249 22.7729 59.9478 23.5845 61.932ZM16.374 34.0598C17.3821 32.8368 20.9703 33.1532 20.9703 35.4709C20.9703 37.7801 19.3641 40.1405 18.5183 40.9872C17.6725 41.8339 16.5107 41.5431 14.6311 39.6616C12.7602 37.7715 16.374 34.0598 16.374 34.0598ZM9.64191 40.226C8.99263 38.3531 9.03535 36.1979 10.6073 34.7098L10.7696 34.7696C11.0943 36.8136 10.5902 38.336 10.1972 40.1747C10.257 41.8852 11.7094 43.3904 12.7346 44.5022C13.4522 45.2976 14.3065 45.9818 15.2975 46.9054L15.2463 47.0679C12.4697 47.4357 9.74441 44.9213 9.77858 42.1418C9.7615 41.4833 9.77006 40.8504 9.64191 40.226Z" fill="#1F644D"/>
<path d="M53.3407 65.2845C55.5448 65.5839 57.8516 65.0023 60.0557 65.4213C60.5512 65.5069 61.0553 65.618 61.5508 65.7378C61.585 65.2246 61.6277 64.797 61.6533 64.4806C61.6875 64.1043 61.4739 63.7536 61.1236 63.6254C54.887 61.3333 34.9471 57.8097 24.8489 64.1812C14.4005 70.7751 13.2728 83.5011 17.8093 92.5923C22.3543 101.683 38.9709 106.558 53.4005 104.805C65.6173 103.325 73.0585 95.6967 75.1174 93.3021C75.4164 92.9514 75.2627 92.4383 74.8441 92.2587C73.9641 91.8739 73.0414 91.335 72.1017 90.6936C70.6322 91.7712 68.9321 92.5409 67.1808 93.037C63.7635 94.029 60.2778 93.4304 56.8263 93.3534C53.3919 93.7553 49.9405 93.6185 46.6769 92.233L46.694 92.062C50.1968 91.4976 53.4689 92.1817 56.8434 92.789C61.7985 92.7205 66.4802 91.3607 71.2474 90.0864C69.5558 88.8207 67.8642 87.2299 66.3521 85.4852C65.0023 86.0582 63.5926 86.4345 62.1659 86.6911C59.2441 87.2641 56.271 86.6483 53.3407 86.7253C50.4189 87.2726 47.4288 87.4009 44.6095 86.0839L44.6265 85.9129C47.6252 85.2714 50.4189 85.6819 53.3236 86.1609C57.4671 85.8872 61.414 84.6556 65.5661 84.5701C64.6861 83.484 63.8916 82.355 63.2252 81.2261C62.8408 80.5761 62.5418 79.7979 62.294 78.9512C58.6034 79.892 54.9383 78.917 51.222 78.6177C48.7786 79.0795 46.3694 79.3189 43.9431 78.2927V78.1216C46.4035 77.1808 48.8042 77.5059 51.2305 78.0618C53.6568 78.1473 56.1002 77.3519 58.5264 77.5486C59.7054 77.6256 60.8929 77.7795 62.0634 78.0788C61.7216 76.5907 61.5252 74.923 61.4397 73.2724C60.4658 73.4606 59.4833 73.5718 58.5093 73.6231C55.8866 73.7941 53.298 72.9047 50.6923 72.8192C48.061 73.204 45.4296 73.2981 42.9179 72.058L42.935 71.8869C45.6261 71.1685 48.1464 71.6304 50.7179 72.2547C54.3061 72.2119 57.843 71.4935 61.3885 71.981C61.3457 70.2876 61.3799 68.6712 61.4482 67.3285C58.6887 67.3199 56.0233 66.3535 53.2724 65.8404C50.9913 66.0884 48.7701 66.1055 46.6513 64.874L46.6684 64.7029C49.0263 63.9845 51.1792 64.5148 53.3407 65.2845ZM20.6969 76.1973C20.7909 77.5914 20.5602 78.3269 19.535 79.4045H19.3642C18.8089 78.7972 18.6893 78.0874 18.7661 77.4289C18.9626 76.1973 19.9537 75.9408 20.4748 75.0599C20.6115 73.9139 20.9617 73.0586 22.4397 73.1869L22.5422 73.3237C22.3714 74.8118 21.9271 74.8118 20.9447 75.3592C20.7396 75.573 20.6884 75.8809 20.6969 76.1973ZM22.1492 82.7912C19.9194 80.559 24.5414 75.3164 24.5414 75.3164C24.5414 75.3164 27.5144 74.3757 29.1377 75.9921C30.7523 77.6085 27.8305 81.5597 26.7626 83.082C25.6862 84.6129 24.379 85.0234 22.1492 82.7912ZM34.0927 79.0453C33.4264 81.936 31.9057 84.4932 30.8463 87.2556C29.804 88.9319 27.9758 90.2746 25.9595 90.4627L25.8997 90.3002C28.0185 88.3246 29.804 86.52 31.47 84.2708C33.2299 80.3623 32.2218 74.752 32.3328 70.5613L32.4952 70.51C34.1098 72.9816 34.6737 76.1375 34.0927 79.0453ZM49.7953 100.033C52.4266 100.041 58.3043 97.7237 60.8673 97.0224C63.3277 96.3296 65.8139 95.6626 68.4281 95.3119L68.4879 95.4744C62.9092 99.1263 56.3736 100.298 49.838 100.597C45.9935 101.435 41.7731 101.41 38.3217 99.2118L38.3729 99.0493C41.1068 99.1947 47.1639 99.9558 49.7953 100.033Z" fill="#1F644D"/>
<path d="M84.3356 92.5923C90.4697 92.5923 101.14 89.4108 106.582 81.4571C112.033 73.5034 109.094 56.9545 105.677 53.5336C102.259 50.1126 90.6918 41.2353 73.4344 49.8646C73.4344 49.8646 60.722 58.7249 63.6695 75.3165C66.6254 91.9081 83.1993 92.5923 84.3356 92.5923ZM102.464 58.7762L102.618 58.6992C104.088 59.392 104.233 60.7005 103.985 62.0261C104.199 63.2406 105.104 64.378 104.865 65.678C104.728 66.5161 104.387 67.3371 103.652 67.97L103.481 67.9272C103.131 67.0292 103.045 66.2938 103.02 65.5497C102.943 64.4721 103.712 63.2405 103.43 62.1373C102.678 61.0597 102.123 60.3156 102.464 58.7762ZM92.8617 59.5117L93.007 59.4176C94.4679 59.7683 94.5789 60.7347 94.4166 61.8978C94.69 62.907 95.6042 63.4886 95.5102 64.7287C95.4418 65.4129 95.1684 66.0971 94.502 66.6102L94.3312 66.576C93.8955 65.8661 93.7417 65.3102 93.6563 64.7458C93.5025 63.9333 94.1945 62.8899 93.8784 62.0603C93.0668 61.2393 92.5969 60.9827 92.8617 59.5117ZM93.3316 81.2262L93.4085 81.3801C92.9728 82.2354 92.1783 82.7058 91.3496 82.9196C90.0083 83.2702 88.9404 82.3893 87.7358 82.09C86.3774 82.2439 85.0959 81.919 84.7457 80.294L84.8567 80.1657C86.4714 80.1828 86.8558 80.7131 87.881 81.5512C88.2227 81.7051 88.6158 81.6709 88.9831 81.5683C90.5893 81.0637 91.5973 80.9354 93.3316 81.2262ZM85.8221 61.6413C87.4368 60.7433 90.0852 62.0005 90.9566 62.8728C91.828 63.7452 91.0506 66.6786 90.1621 67.5681C89.2736 68.4575 85.0959 67.9016 83.0199 65.8319C80.9439 63.7451 85.8221 61.6413 85.8221 61.6413ZM77.3985 63.3346C77.2703 61.1623 78.2101 58.9131 80.3459 58.0065L80.474 58.1262C79.9102 60.2557 78.8337 61.6242 77.9538 63.4458C77.5437 66.7983 80.0383 69.2785 81.1575 72.3574L81.0379 72.4857C77.1507 70.8522 76.3989 67.072 77.3985 63.3346ZM70.1111 63.4971L70.2819 63.5399C70.8543 65.3701 70.5126 66.7727 70.1623 68.4575C70.1623 69.0048 70.3503 69.5351 70.6066 70.0312C71.7257 72.0666 72.5032 73.7429 72.9731 76.0777L72.8364 76.1803C71.7086 75.6415 70.9056 74.7008 70.3417 73.6659C69.4447 72.0752 69.8035 70.2193 69.5985 68.5088C68.915 66.8582 68.7441 64.9596 70.1111 63.4971Z" fill="#1F644D"/>
</svg>
