<svg width="183" height="198" viewBox="0 0 183 198" fill="none" xmlns="http://www.w3.org/2000/svg">
<path d="M113.675 59.4353C113.051 60.8718 112.633 62.3852 112.436 63.9242C113.547 61.9235 115.102 60.1877 116.802 58.6316C118.997 55.9981 120.757 52.9542 123.44 50.7482C125.2 49.269 127.139 47.9865 129.3 47.0973L129.403 47.2341C125.815 51.7315 121.031 54.7583 117.246 58.9907C115.759 61.496 114.307 63.9242 112.342 66.0875C112.368 67.199 112.513 68.2934 112.795 69.3708C114.316 67.6864 116.11 66.3012 118.006 65.0101C120.458 62.7785 122.321 59.9142 124.849 57.768C126.515 56.3145 128.284 54.9721 130.274 53.8691L130.394 53.9973C127.412 58.8796 122.628 61.8294 118.391 65.4291C116.844 67.3871 115.213 69.234 113.213 70.6875C113.299 70.9269 113.376 71.1663 113.478 71.3972C113.76 72.0299 114.093 72.6284 114.461 73.2013C116.169 71.5682 118.151 70.3284 120.253 69.1827C122.867 67.2161 124.96 64.5655 127.652 62.6845C129.429 61.4105 131.291 60.2561 133.376 59.3498L133.487 59.4866C130.121 64.0268 125.097 66.4808 120.595 69.6358C118.946 71.3545 117.22 72.979 115.195 74.2102C115.7 74.8601 116.263 75.4842 116.913 76.0571C118.553 74.2701 120.612 73.4749 122.833 72.8507C124.935 71.7905 126.626 69.9522 128.788 68.986C130.215 68.3276 131.701 67.7719 133.367 67.5239L133.452 67.6778C130.727 70.8585 126.712 71.7306 123.089 73.3552C121.389 74.7746 119.587 76.0229 117.348 76.3906C118.536 77.3653 119.963 78.2118 121.646 78.93C123.089 78.3229 124.593 77.8698 126.131 77.4252C130.659 74.9712 134.461 71.4827 139.467 69.8667L139.569 70.012C138.211 71.6451 136.579 72.9534 134.845 74.0905C132.256 75.8434 129.147 76.5701 126.379 77.9382C125.473 78.5709 124.533 79.1609 123.568 79.6653C124.952 80.1356 126.456 80.546 128.156 80.8624C128.831 80.9906 129.497 81.0761 130.172 81.1445C132.376 79.6653 134.768 78.7077 137.254 77.7928C141.85 74.9199 145.609 71.021 150.684 68.8321L150.795 68.9689C149.48 70.773 147.865 72.2693 146.131 73.5946C143.542 75.6296 140.347 76.6556 137.528 78.2887C136.015 79.4772 134.409 80.546 132.666 81.3155C143.499 81.5122 154.213 75.7236 159.484 70.4567C165.481 64.4544 170.359 54.4591 166.976 47.4649C163.593 40.4708 158.125 37.9228 153.58 36.3324C149.035 34.7421 135.187 36.3324 126.336 41.9756C120.347 45.772 115.922 54.2966 113.675 59.4353ZM157.835 57.4089C157.28 57.4944 156.682 57.3918 156.229 56.9728C155.998 56.7762 155.793 56.6223 155.545 56.6052C155.298 56.5795 154.956 56.742 154.657 56.7078C154.084 56.6565 153.495 55.5877 153.965 55.1602C154.717 55.0918 155.05 55.1174 155.323 55.4252C155.443 55.6048 155.52 55.9468 155.716 56.0665C155.904 56.1948 156.152 56.1435 156.374 56.0238C157.408 55.4252 157.732 55.4851 158.937 55.9468C159.236 56.5539 158.262 57.332 157.835 57.4089ZM154.563 44.2073C156.887 44.2073 158.604 47.14 159.629 48.166C160.654 49.1921 158.604 51.9282 156.869 51.9282C155.135 51.9282 151.496 48.6876 151.496 46.4047C151.487 44.1132 154.563 44.2073 154.563 44.2073ZM149.873 40.8128C150.71 40.2656 151.624 39.3336 152.769 39.6927C153.136 39.7525 154.307 40.1801 154.161 40.6589C153.17 40.9838 152.47 41.2574 151.496 41.1976C150.573 40.941 149.556 41.3429 149.266 42.2663C148.77 43.9165 148.958 45.6865 148.087 47.4307L147.916 47.4393C146.361 45.011 146.84 41.5823 149.873 40.8128Z" fill="#CA4024"/>
<path d="M178.322 91.9778C173.46 87.1127 165.302 81.1788 157.561 78.4855C158.083 79.0669 158.578 79.674 159.048 80.2896C161.346 82.564 164.131 84.3852 166.028 87.0614C167.301 88.8142 168.403 90.7038 169.103 92.8072L168.958 92.9013C164.823 89.3444 162.337 84.5989 158.655 80.7C157.228 79.7082 155.836 78.7163 154.537 77.6048C154.443 77.5791 154.341 77.5535 154.247 77.5278C154.247 77.5278 148.719 82.2733 143.345 82.2733C143.345 82.2733 150.283 88.4124 151.923 95.0816C152.273 96.5009 152.683 98.1255 153.042 99.8441C153.837 99.7757 154.443 99.9809 154.896 100.426C155.272 101.067 155.614 101.708 156.468 101.742C158.014 101.956 159.133 102.717 159.663 104.282L159.569 104.427C158.698 104.53 158.023 104.324 157.408 104.025C156.451 103.581 156.075 102.341 155.204 101.819C154.392 101.708 153.734 101.563 153.273 101.033C153.862 104.35 154.101 107.993 153.162 111.49C153.281 111.481 153.401 111.481 153.538 111.438C154.99 111.113 156.374 111.712 156.904 113.2L156.818 113.354C156.007 113.533 155.409 113.473 154.845 113.328C154.178 113.183 153.623 112.507 152.991 112.165C152.444 113.892 151.564 115.568 150.283 117.141C150.291 117.15 150.3 117.158 150.317 117.167C151.137 117.449 152.136 116.851 153.059 117.244C153.606 117.475 154.127 117.825 154.554 118.518L154.511 118.689C153.794 119.074 153.17 119.108 152.572 119.031C151.573 118.903 151.026 117.885 150.172 117.706C150.009 117.74 149.855 117.774 149.702 117.8C149.095 118.467 148.429 119.125 147.651 119.749C147.651 119.749 148.839 123.776 153.819 125.589C158.8 127.41 175.605 127.47 179.236 116.757C182.858 106.069 183.883 97.5441 178.322 91.9778ZM161.047 96.1247C157.467 94.3463 155.656 90.9347 153.008 88.1986C150.992 87.0614 149.138 85.8558 147.95 83.6841L148.053 83.5472C150.462 84.18 152.034 85.8729 153.384 87.7796C155.05 89.3358 157.254 90.3105 158.732 92.0805C159.723 93.2347 160.611 94.5002 161.175 96.0136L161.047 96.1247ZM169.496 116.859C168.249 118.108 164.669 118.74 162.79 116.859C160.91 114.978 165.396 110.737 165.396 110.737C167.01 108.916 169.71 111.199 170.829 112.328C171.957 113.448 170.744 115.611 169.496 116.859ZM173.213 112.678L173.042 112.635C172.444 110.669 172.734 109.258 172.299 107.385C172.034 106.317 171.017 106.206 170.129 106.394C169.291 106.411 168.531 106.291 167.446 106.035L167.386 105.872C168.104 104.974 169.317 104.649 170.376 104.966C171.384 105.513 172.085 106.197 173.067 106.804C174.93 108.232 174.759 111.105 173.213 112.678Z" fill="#CA4024"/>
<path d="M73.1968 136.97C73.1968 136.97 68.6603 131.976 67.3959 125.555C66.8235 126.119 66.123 126.538 65.3626 126.914C64.2349 127.966 63.7138 129.65 62.5006 130.625C61.7061 131.292 60.8347 131.865 59.707 132.19L59.5874 132.07C60.2965 129.907 61.783 128.479 63.7309 127.462C64.2007 127.205 64.6535 126.923 64.9696 126.521C65.5164 125.461 66.1486 124.512 67.1482 123.922C67.0969 123.409 67.0627 122.887 67.0627 122.357C67.0627 120.562 67.1225 118.86 67.2336 117.227C67.0713 117.415 66.8919 117.586 66.7039 117.74C65.7727 118.236 64.8756 118.732 64.4827 119.792C63.5685 121.741 62.2102 123.229 60.1085 123.956L59.9804 123.836C60.2537 122.716 60.7834 121.844 61.4071 121.049C62.3212 119.835 63.953 119.296 64.944 118.159C65.4908 116.945 66.1657 115.885 67.3874 115.286C67.8231 110.66 68.6688 106.898 69.7624 104.538C71.3685 101.058 71.5992 98.4077 71.5992 98.4077C71.5992 98.4077 68.7543 101.443 62.7313 103.777C62.1333 105.068 61.1679 106.12 60.0743 107.086C58.8356 108.788 58.2205 110.96 56.7254 112.499C55.76 113.533 54.6665 114.457 53.2995 115.098L53.1714 114.978C54.3845 111.447 57.3747 109.497 59.613 106.761C59.9206 105.983 60.2367 105.231 60.6211 104.521C58.9552 105.043 57.1013 105.504 55.0338 105.838C43.6798 107.659 35.5039 107.659 35.5039 107.659C35.5039 107.659 26.8752 114.927 26.8752 124.478C26.8752 134.02 33.3767 145.152 42.5436 147.444C51.7019 149.735 64.2264 146.631 67.0627 143.793C69.9076 140.945 73.1968 136.97 73.1968 136.97ZM47.7122 110.019C48.1736 109.292 49.139 109.438 49.4892 108.899C49.5918 108.694 49.5149 108.343 49.5747 108.104C49.6516 107.71 50.5999 107.24 51.0441 107.599C51.309 108.916 50.7964 108.984 49.9164 109.258C49.4465 109.686 49.7626 110.626 49.1304 111.208C48.9083 111.421 47.9771 111.926 47.4987 111.584C47.362 110.883 47.4901 110.412 47.7122 110.019ZM36.8452 130.317C36.6316 130.608 36.606 130.984 36.6316 131.352C36.8367 132.959 36.7512 133.934 36.0336 135.482L35.8628 135.525C35.1537 134.926 34.8803 134.097 34.8461 133.293C34.7948 131.925 35.8371 131.181 36.3326 130.078C36.401 128.77 36.8879 127.624 38.4941 127.556L38.6051 127.684C38.3916 129.257 37.8362 129.514 36.8452 130.317ZM37.5629 117.013C36.9221 117.971 36.1874 118.869 35.1537 119.621L34.9999 119.535C35.0853 116.073 37.3664 114.405 39.2288 111.943C39.7414 110.199 40.4676 108.6 42.2873 107.719L42.4325 107.822C42.2275 109.822 41.0656 111.054 39.6987 112.251C38.7333 113.687 38.5539 115.602 37.5629 117.013ZM41.1339 136.08C38.8871 133.832 42.3556 130.249 42.3556 130.249C43.7225 130.249 46.67 131.172 47.8062 132.31C48.9425 133.447 48.8229 135.832 47.8062 136.85C46.7896 137.867 43.3808 138.329 41.1339 136.08ZM52.2829 137.081C51.8984 138.483 51.8814 140.15 50.5315 141.108C49.6857 141.715 48.6264 142.006 47.6012 141.724L47.5499 141.553C48.857 140.056 49.7285 139.364 51.121 138.064C51.4371 137.756 51.6934 137.371 51.7361 136.927C51.5909 135.507 51.309 134.456 52.206 133.002L52.3769 132.985C53.4704 134.31 53.1458 135.849 52.2829 137.081ZM55.3755 121.707L55.2474 121.596C57.0927 117.056 60.7834 114.021 63.6625 110.233C64.8329 107.608 66.0802 105.12 68.3613 103.17L68.5151 103.256C67.9085 106.214 66.1486 108.48 64.1324 110.549C62.5006 112.883 61.5096 115.662 59.6301 117.825C58.3828 119.279 57.0244 120.63 55.3755 121.707ZM72.4962 136.337L72.6073 136.474C72.5389 137.85 71.9324 137.927 70.9414 138.073C70.3262 138.474 70.3519 139.535 69.5574 140.022C69.284 140.202 68.1221 140.638 67.7291 140.202C67.7718 139.449 68.0452 138.97 68.3955 138.586C69.0448 137.902 70.0614 138.158 70.5911 137.636C70.9328 136.696 71.1379 136.115 72.4962 136.337ZM65.6787 135.661C65.5676 134.986 65.7129 134.558 65.935 134.216C66.4305 133.575 67.3276 133.857 67.6693 133.396C67.7718 133.216 67.7205 132.874 67.7803 132.66C67.8829 132.293 68.7885 131.985 69.2071 132.378C69.4036 133.738 68.8824 133.635 68.0708 133.797C67.6095 134.131 67.8829 135.046 67.2507 135.533C67.02 135.696 66.1059 136.055 65.6787 135.661Z" fill="#CA4024"/>
<path d="M82.0562 140.15C97.9467 145.828 104.961 132.857 107.481 130.334C110.001 127.812 111.283 115.38 111.283 115.38C111.283 115.38 108.515 111.951 105.764 108.625C105.721 109.369 105.559 110.122 105.337 110.857C105.243 112.746 105.883 114.696 105.388 116.568C105.08 117.808 104.593 119.014 103.713 120.057L103.543 120.006C102.893 116.68 104.414 113.978 104.773 110.831C104.448 109.489 104.175 108.223 104.329 106.889C102.714 104.957 101.279 103.273 100.663 102.657C100.621 102.614 100.578 102.546 100.535 102.495C100.296 103.752 99.792 104.94 99.2111 106.12C98.6558 108.266 98.9633 110.617 98.2884 112.746C97.8698 114.166 97.3316 115.56 96.4431 116.868L96.2722 116.825C95.6229 112.9 97.5452 109.566 98.6558 105.992C98.6729 104.239 98.8267 102.529 99.5614 100.947C97.9809 97.7663 96.3406 91.9692 96.3406 91.9692C96.3406 91.9692 94.2389 92.4224 91.8724 92.8243C91.1206 94.825 90.1211 96.6975 89.0532 98.5786C87.3787 103.743 87.054 109.164 84.6363 114.14L84.4654 114.115C84.286 111.883 84.5338 109.694 84.9951 107.556C85.6444 104.316 87.4214 101.46 88.532 98.3905C88.9165 96.5607 89.4376 94.7652 90.2407 93.0979C88.8738 93.3031 87.5496 93.4484 86.6269 93.4484C86.0716 93.4484 85.3881 93.4484 84.6534 93.4484C84.1493 95.415 83.1071 97.0139 81.9281 98.647C80.621 102.315 80.5441 106.231 78.2972 109.609L78.1263 109.574C77.8871 107.941 78.0665 106.359 78.4254 104.829C78.938 102.495 80.5185 100.596 81.4155 98.4333C81.7743 96.6206 82.3553 94.8678 83.5428 93.4655C81.8939 93.4655 80.1596 93.4655 78.9721 93.4655C78.5022 95.2013 77.6992 96.7745 76.8107 98.382C75.7684 102.529 76.0162 106.795 74.0683 110.763L73.8974 110.746C73.513 108.993 73.5557 107.249 73.7864 105.547C74.1025 102.956 75.5377 100.682 76.2725 98.2195C76.4604 96.5693 76.8021 94.9447 77.5283 93.4741H77.5112C72.2913 101.537 70.2495 108.36 70.2495 108.36C70.2495 108.36 66.1658 134.473 82.0562 140.15ZM91.4453 105.393C91.6674 103.82 92.8464 102.486 93.1796 100.938C93.06 99.2797 93.1454 97.7065 94.4781 96.3812L94.649 96.4239C94.9822 97.5868 94.9053 98.647 94.5294 99.6389C93.9485 100.571 93.3931 101.486 93.5555 102.649C93.6751 104.889 93.2052 106.941 91.7016 108.694L91.5307 108.651C91.2317 107.505 91.283 106.436 91.4453 105.393ZM86.6354 125.769C88.4722 125.392 92.0604 127.556 93.1966 128.684C94.3244 129.813 92.0689 131.848 90.9241 132.994C89.7793 134.139 85.0378 133.678 83.3206 129.813C81.5949 125.948 86.6354 125.769 86.6354 125.769Z" fill="#CA4024"/>
<path d="M151.59 108.061C153.632 99.7075 146.31 88.2928 138.989 83.3507C138.989 83.3507 133.23 84.0604 127.754 83.4533C128.412 83.9065 129.061 84.3682 129.668 84.8983C131.633 86.5656 133.435 88.4382 134.896 90.6014L134.777 90.7297C130.932 88.5151 127.694 85.608 124.311 82.8634C123.636 82.6924 122.978 82.5043 122.372 82.2649C116.947 80.1529 111.881 75.7068 110.779 74.7064C110.702 74.6551 110.625 74.6038 110.548 74.5439C110.539 74.7406 110.445 76.5105 109.728 78.879C111.881 79.8708 113.555 81.444 115.119 83.1968C117.229 84.8812 119.869 85.8731 121.911 87.6601C123.286 88.8315 124.585 90.0884 125.661 91.636L125.559 91.7728C121.073 90.2508 118.203 86.6255 114.777 83.6414C112.786 82.6154 110.924 81.4526 109.454 79.7511C109.019 80.9909 108.412 82.3418 107.558 83.6757C108.557 84.4794 109.489 85.3857 110.377 86.3348C112.855 88.3099 115.811 89.7122 118.058 91.9865C119.57 93.4828 120.954 95.1074 122.03 96.997L121.911 97.1167C117.186 94.4918 114.042 90.2166 110.035 86.7709C108.908 86.1552 107.814 85.514 106.755 84.8214C106.191 85.5653 105.533 86.2835 104.79 86.959C106.704 88.3783 108.173 90.2166 109.523 92.1832C111.573 94.3464 114.247 95.9026 116.212 98.1513C117.536 99.6305 118.784 101.204 119.766 103.016L119.638 103.136C115.084 100.665 112.419 96.3301 109.113 92.5765C107.173 91.1572 105.371 89.6267 104.012 87.6515C102.893 88.5579 101.561 89.3445 100.023 90.0029C101.133 91.5761 102.073 93.2605 102.979 94.9962C106.473 99.3569 110.838 102.863 113.53 107.882L113.401 108.001C111.462 106.77 109.788 105.257 108.276 103.606C105.96 101.144 104.534 98.0145 102.526 95.3212C101.159 93.936 99.8775 92.4654 98.8608 90.8237C99.083 91.978 99.9629 96.0137 101.697 99.1944C103.739 102.939 113.957 120.151 126.9 122.024C139.834 123.905 149.292 117.432 151.59 108.061ZM130.198 111.139C130.608 112.892 130.642 114.192 130.001 115.953L129.83 115.996C129.087 115.32 128.762 114.44 128.651 113.567C128.446 112.199 129.412 111.045 129.702 109.788C129.531 108.403 129.787 107.035 131.334 106.411L131.479 106.505C131.684 108.087 131.052 108.873 130.249 109.934C130.095 110.301 130.121 110.72 130.198 111.139ZM145.439 108.232C145.439 109.592 143.337 111.37 142.056 112.661C140.766 113.952 136.451 112.199 138.587 110.062C140.723 107.924 141.962 106.043 143.354 105.282C146.276 103.675 145.439 106.864 145.439 108.232Z" fill="#CA4024"/>
<path d="M108.156 152.659C108.156 152.659 108.156 152.659 106.122 150.624C106.114 150.616 106.114 150.607 106.105 150.607C106.037 151.078 105.909 151.539 105.704 151.967C105.046 152.873 104.405 153.745 104.431 154.934C104.294 157.2 103.491 159.26 101.68 160.748L101.518 160.68C101.441 159.483 101.663 158.431 101.979 157.422C102.423 155.9 103.765 154.694 104.243 153.172C104.277 151.813 104.414 150.547 105.191 149.427C103.295 146.563 101.125 141.057 101.125 141.057L96.6138 142.083C96.6565 142.091 96.7078 142.1 96.7078 142.1C97.3143 144.118 96.6651 145.853 95.7509 147.546C95.3067 149.333 95.6826 151.317 95.0589 153.078C94.6659 154.25 94.1448 155.387 93.2734 156.413L93.1025 156.362C92.4789 152.83 94.2388 150.505 95.2042 147.41C95.1187 145.511 95.2213 143.716 96.5113 142.091L89.0957 143.776C80.0143 143.776 74.5637 138.321 74.5637 138.321C74.5637 138.321 72.7354 141.946 69.7794 144.913C68.2502 146.443 65.1661 147.905 62.5348 148.974C63.0303 150.642 62.6544 152.146 62.1332 153.72C62.2699 156.815 63.4745 159.286 62.2016 162.518L62.0307 162.535C61.3558 161.415 61.0739 160.235 60.9372 159.046C60.698 157.251 61.5352 155.481 61.5608 153.703C61.202 152.215 61.0568 150.727 61.6804 149.316C59.5959 150.12 57.9812 150.624 57.9812 150.624C57.9812 166.092 66.6099 183.552 84.995 180.371C103.397 177.19 108.156 152.659 108.156 152.659ZM84.2432 145.015L84.414 145.05C84.8925 145.768 84.9437 146.401 84.7045 146.982C84.2688 147.529 83.8245 147.991 84.1236 148.752C84.5422 150.146 84.2859 151.36 83.0727 152.317L82.9019 152.283C82.4662 151.574 82.3807 150.932 82.4149 150.308C82.4662 149.282 83.4401 148.607 83.5512 147.7C83.2351 146.64 83.0642 145.853 84.2432 145.015ZM68.4894 150.787C67.9512 149.863 67.6095 149.239 68.6005 148.222L68.7713 148.213C69.8222 149.162 69.5231 149.804 69.0533 150.761C69.0191 151.591 69.882 152.317 69.7794 153.292C69.7196 153.865 69.5402 154.438 68.9935 155.028L68.8226 155.036C68.2502 154.489 68.0281 153.925 67.9256 153.361C67.7718 152.386 68.5834 151.616 68.4894 150.787ZM69.5231 167.332C70.0016 168.922 70.1212 169.88 69.8649 171.598L69.7111 171.684C68.8482 171.282 68.3613 170.487 68.1477 169.666C67.7974 168.281 68.6859 167.289 69.0276 166.083C68.9166 164.724 69.3181 163.441 70.9584 163.219L71.078 163.339C70.9413 164.98 70.4544 165.245 69.5659 166.237C69.4035 166.571 69.4292 166.964 69.5231 167.332ZM74.9054 146.478C74.427 145.272 74.1621 144.186 75.1873 142.989L75.3582 142.998C75.9391 143.793 76.0929 144.571 75.9391 145.34C75.5803 146.093 75.2215 146.828 75.6401 147.666C76.2552 149.291 76.204 150.847 75.1361 152.317H74.9652C74.427 151.531 74.2476 150.744 74.1792 149.966C74.0511 148.786 74.9139 147.64 74.9054 146.478ZM82.9873 172.462C81.8511 172.462 77.8784 172.881 75.4949 170.495C73.1113 168.11 76.6397 164.698 76.6397 164.698C79.5956 164.296 82.4747 165.1 84.8327 167.469C87.1991 169.828 84.1236 172.462 82.9873 172.462ZM88.156 151.36C88.1987 150.137 89.2324 149.085 89.3862 147.888C89.0872 146.606 88.9932 145.4 90.1722 144.34L90.3431 144.366C90.8044 145.263 90.8386 146.084 90.5737 146.854C90.1124 147.581 89.651 148.282 89.933 149.197C90.3003 150.949 90.0355 152.54 88.754 153.908L88.5831 153.882C88.1645 153.001 88.1047 152.172 88.156 151.36ZM89.9244 169.828C89.4204 169.709 89.0957 168.623 89.0616 168.4C88.9334 167.759 89.6938 166.93 89.4375 166.383C89.3264 166.177 88.9847 166.049 88.8138 165.895C88.5319 165.673 88.5063 164.587 88.9334 164.322C89.6938 164.416 90.1038 164.844 90.1636 165.374C90.044 165.972 89.7877 166.425 90.3345 166.904C91.1888 167.836 91.1119 169.153 89.9244 169.828ZM94.8966 162.142L94.7514 162.056C95.3579 158.072 97.8697 155.105 99.2622 151.479C99.4502 149.128 99.6894 146.922 101.014 144.793L101.184 144.819C101.791 147.298 100.971 149.564 99.8004 151.642C99.0743 153.865 99.0145 156.336 97.844 158.414C97.0922 159.799 96.1696 161.099 94.8966 162.142Z" fill="#CA4024"/>
<path d="M132.871 173.086C133.401 175.386 133.187 177.712 131.803 179.704L131.633 179.678C131.257 178.498 131.197 177.387 131.231 176.292C131.248 174.651 132.179 173.043 132.179 171.393C131.957 170.615 131.778 169.863 131.735 169.102C129.941 167.793 128.01 165.989 126.165 163.527C126.148 164.502 125.883 165.476 125.328 166.4L125.157 166.391C124.627 165.442 124.431 164.519 124.328 163.595C124.226 162.809 124.422 162.005 124.584 161.201C123.585 159.577 122.628 157.747 121.782 155.626C121.782 155.626 119.792 155.618 117.331 155.318C117.331 155.447 117.34 155.575 117.331 155.703C117.049 156.823 116.767 157.918 117.22 159.055C117.921 161.295 117.929 163.578 116.801 165.724L116.631 165.716C116.109 164.587 115.93 163.493 115.853 162.39C115.708 160.739 116.511 159.064 116.408 157.413C116.135 156.635 115.913 155.874 115.836 155.105C113.692 154.754 111.436 154.156 109.907 153.155C109.839 154.104 109.719 155.045 109.574 155.994C109.582 158.893 110.471 161.774 110.368 164.673C110.326 166.605 110.155 168.537 109.625 170.478H109.454C107.934 166.023 108.711 161.509 108.959 156.977C108.284 159.448 107.131 162.817 105.285 166.297C105.43 166.836 105.49 167.392 105.465 167.947C105.2 169.076 104.952 170.17 105.43 171.299C106.191 173.522 106.276 175.796 105.225 177.977H105.055C104.491 176.874 104.277 175.771 104.166 174.676C103.97 173.026 104.73 171.333 104.576 169.683C104.405 169.23 104.251 168.768 104.132 168.315C102.551 170.906 100.552 173.462 98.0576 175.651C98.0149 175.848 97.9465 176.062 97.8696 176.292C97.9551 177.079 98.9204 177.601 98.9802 178.575C98.9973 179.123 98.929 179.73 98.4079 180.362H98.237C97.1349 179.507 96.853 178.507 97.2887 177.241C97.451 176.865 97.3997 176.583 97.2545 176.335C94.9564 178.191 92.2653 179.738 89.1042 180.739C89.1042 180.739 94.3242 198.763 115.212 197.625C136.101 196.488 138.595 172.445 138.595 172.445C138.595 172.445 136.22 171.983 133.102 170.025C132.794 171.042 132.53 172.026 132.871 173.086ZM107.916 183.483C107.293 185.202 106.96 185.954 106.644 187.835L106.49 187.912C104.559 186.715 105.336 183.586 107.25 182.816C107.686 182.585 108.096 182.397 108.438 182.107C109.335 180.901 110.872 180.234 112.274 181.252V181.423C111.411 182.013 110.77 182.303 110.001 182.449C109.164 182.372 108.224 182.568 107.916 183.483ZM117.75 190.913C116.186 192.478 109.822 191.17 109.822 188.442C109.822 185.715 113.461 184.808 113.461 184.808C116.007 184.808 117.733 185.937 118.647 186.852C119.561 187.758 119.313 189.349 117.75 190.913ZM124.431 190.571C123.986 191.324 123.277 191.88 122.363 192.025L122.244 191.905C122.346 190.982 122.56 190.366 122.756 189.785C123.012 188.998 123.961 187.964 123.593 187.023C122.671 186.014 122.312 186.074 121.91 184.364L122.013 184.218C123.679 184.193 124.251 185.475 124.132 186.861C124.482 188.117 125.174 189.246 124.431 190.571Z" fill="#CA4024"/>
<path d="M20.6728 116.97C21.493 117.424 22.2961 117.868 23.2785 117.56C24.2439 117.355 25.1837 117.321 26.0722 117.492C26.824 116.098 27.6783 114.705 28.5668 113.371C28.0115 113.225 27.4562 113.029 26.9094 112.789C26.3797 112.567 25.833 112.387 25.2777 112.379C23.5434 112.67 21.8774 112.729 20.3226 111.541L20.3482 111.37C22.1594 110.609 23.7484 111.105 25.3546 111.823C26.7642 112.037 28.2422 111.661 29.6689 111.763C30.8393 110.096 31.9841 108.591 32.941 107.386C31.7278 107.42 30.5232 107.172 29.3186 106.71C28.806 106.522 28.2849 106.368 27.7552 106.394C26.132 106.778 24.5686 106.941 23.0479 105.838L23.065 105.667C24.7394 104.812 26.2601 105.205 27.8065 105.838C29.3784 106 31.0102 105.282 32.5821 105.556C33.1033 105.633 33.6159 105.744 34.137 105.915C34.8461 105.06 35.2989 104.538 35.2989 104.538L26.9009 102.025C11.019 96.749 13.5051 79.6997 13.5051 79.6997C-1.02702 87.4292 -1.89843 101.443 3.16772 110.942C8.97713 121.853 24.3294 121.28 24.3294 121.28C24.5771 120.604 24.8847 119.903 25.2179 119.194C24.0816 118.971 23.0222 118.244 21.8689 118.125C20.4764 118.45 19.1607 118.569 17.939 117.407L17.9646 117.236C18.9129 116.774 19.81 116.722 20.6728 116.97ZM7.08907 99.5449C6.90112 99.8442 6.90966 100.22 6.97801 100.58C7.37954 102.136 7.43935 102.982 7.15742 104.649L7.00364 104.735C6.14931 104.359 5.67943 103.564 5.50003 102.76C5.20956 101.358 6.14077 100.503 6.55939 99.3483C6.5423 98.0059 7.04636 96.8003 8.68666 96.8089L8.78918 96.9456C8.49017 98.536 8.04592 98.6472 7.08907 99.5449ZM16.5892 108.677C15.7434 109.523 11.6939 109.13 10.4722 105.265C9.25052 101.4 11.916 100.494 11.916 100.494C13.9578 100.494 16.2645 103.187 17.4264 104.35C18.6054 105.522 17.435 107.839 16.5892 108.677Z" fill="#CA4024"/>
<path d="M166.344 128.778C166.865 130.104 166.805 131.557 166.549 132.985C166.652 134.926 167.472 136.867 167.139 138.842C166.942 140.142 166.549 141.424 165.755 142.57L165.584 142.536C164.687 139.244 165.96 136.26 165.985 133.028C165.49 131.6 165.063 130.249 165.122 128.753C163.696 128.71 161.893 128.625 160.031 128.454C160.415 129.633 160.389 130.873 160.244 132.147C160.5 133.943 161.62 135.593 161.765 137.406C161.884 138.611 161.876 139.834 161.526 141.117L161.355 141.142C159.279 138.227 159.971 135.439 159.689 132.233C159.099 130.967 158.638 129.693 158.715 128.317C156.562 128.077 154.435 127.71 152.854 127.162C153.76 129.163 154.52 131.181 154.819 133.413C155.733 136.132 157.245 138.705 157.57 141.612C157.826 143.519 157.835 145.469 157.459 147.401L157.288 147.418C156.553 145.58 156.152 143.75 155.75 141.92C155.144 139.201 155.263 136.243 154.298 133.601C153.145 131.463 151.692 129.18 151.727 126.684C149.898 125.803 148.711 124.897 147.933 124.136C149.095 126.863 149.71 129.745 150.146 132.686C151.171 136.422 152.957 139.954 153.58 143.818C154.025 146.375 154.23 149 153.948 151.625L153.777 151.642C151.59 145.494 151.128 139.116 149.608 132.84C148.155 129.471 146.84 126.085 146.566 122.366L144.08 123.323C144.08 123.323 146.31 126.401 145.934 132.797C147.164 134.516 147.369 136.508 147.387 138.543C147.848 140.655 149.155 142.587 149.522 144.716C149.796 146.136 149.95 147.563 149.847 149.102L149.685 149.154C147.147 146.127 147.455 142.279 146.84 138.671C146.336 137.671 145.9 136.67 145.618 135.627C145.558 135.995 145.498 136.363 145.43 136.747C145.131 138.227 144.738 139.697 144.234 141.142C144.431 141.51 144.559 141.895 144.61 142.305C144.507 143.22 144.388 144.092 145.012 144.879C146.037 146.46 146.37 148.23 145.558 150.026L145.387 150.052C144.721 149.282 144.388 148.487 144.157 147.675C143.781 146.46 144.328 145.033 143.969 143.818C143.79 143.57 143.628 143.331 143.482 143.083C142.662 144.964 141.603 146.743 140.253 148.324C140.825 149.256 140.646 150.154 140.33 151.172C140.415 152.3 141.398 153.318 141.423 154.464C141.466 155.225 141.398 155.994 140.996 156.849L140.825 156.883C140.133 156.233 139.8 155.507 139.604 154.754C139.262 153.617 139.937 152.377 139.774 151.232C139.45 150.659 139.194 150.094 139.142 149.513C137.886 150.736 136.417 151.813 134.691 152.668C135.11 153.609 135.187 154.635 135.17 155.72C135.588 157.268 136.861 158.593 137.177 160.175C137.408 161.218 137.519 162.296 137.28 163.45L137.109 163.493C135.511 161.765 134.896 159.713 134.896 157.439C134.888 156.892 134.845 156.353 134.623 155.857C134.068 155.036 133.589 154.181 133.384 153.258C132.18 153.745 130.855 154.13 129.412 154.412C129.54 155.216 129.412 156.003 129.241 156.866C129.258 157.328 129.454 157.755 129.693 158.166C130.761 159.842 131.325 161.372 131.206 163.424L131.052 163.501C130.129 162.928 129.557 162.116 129.147 161.244C128.497 159.91 128.95 158.354 128.677 156.96C128.267 156.225 127.968 155.438 127.959 154.643C126.678 154.823 125.328 154.934 123.867 154.934C123.867 154.934 129.873 167.554 135.776 170.162C141.688 172.77 160.184 175.839 165.635 162.894C171.086 149.94 169.215 133.806 168.104 128.813C168.078 128.796 167.412 128.796 166.344 128.778ZM140.825 167.836C140.535 167.195 140.509 166.451 140.885 165.844C141.047 165.545 141.193 165.288 141.193 164.998C140.911 163.98 140.928 163.159 142.235 162.74L142.389 162.809C142.927 164.237 142.44 164.331 141.739 165.109C141.475 165.767 142.389 166.545 142.5 167.041C142.602 167.417 142.585 167.776 142.782 168.512C142.5 169.136 141.107 168.495 140.825 167.836ZM152.811 166.4C151.282 167.93 147.199 166.451 145.447 164.698C143.696 162.945 146.968 162.099 146.968 162.099C146.968 162.099 146.968 162.099 149.744 160.953C152.521 159.807 155.016 160.902 156.22 162.099C157.416 163.296 154.341 164.869 152.811 166.4ZM160.27 160.953C159.774 160.893 159.304 159.731 159.236 159.508C159.014 158.875 159.603 157.849 159.227 157.285C159.065 157.08 158.706 157.003 158.493 156.866C158.177 156.695 157.835 155.549 158.194 155.207C158.988 155.156 159.527 155.541 159.714 156.097C159.74 156.738 159.603 157.302 160.236 157.721C161.269 158.576 161.406 160.047 160.27 160.953Z" fill="#CA4024"/>
<path d="M111.283 150.624C119.177 154.13 132.726 155.378 140.193 144.468C147.668 133.558 141.987 123.323 141.987 123.323C141.987 123.323 141.44 123.588 140.535 123.939C140.979 124.777 141.133 125.658 141.022 126.53C140.68 127.564 140.321 128.548 140.671 129.651C141.167 131.805 140.868 133.994 139.407 135.738L139.236 135.704C138.912 134.584 138.894 133.567 138.954 132.558C139.014 131.053 139.988 129.591 139.988 128.069C139.604 126.761 139.33 125.538 139.766 124.213C138.587 124.632 137.024 125.093 135.272 125.375C135.272 125.384 135.264 125.393 135.264 125.401C135.204 126.256 136.041 127.051 135.904 128.043C135.827 128.633 135.622 129.215 135.067 129.804H134.896C134.341 129.215 134.136 128.633 134.059 128.043C133.931 127.068 134.717 126.299 134.7 125.461C133.376 125.64 131.974 125.726 130.573 125.598C130.582 125.863 130.351 126.111 130.129 126.453C130.061 126.974 130.915 127.325 130.855 128.077C130.821 128.351 130.479 129.172 129.898 129.232C129.326 128.89 129.104 128.53 129.001 128.171C128.865 127.428 129.676 127 129.557 126.478C129.497 126.299 129.206 126.128 129.087 125.948C129.001 125.82 129.036 125.598 129.138 125.384C128.805 125.316 128.472 125.247 128.139 125.153C127.643 125.008 127.139 124.837 126.635 124.657C126.601 124.854 126.567 125.059 126.524 125.256C126.635 127 127.626 128.659 127.617 130.42C127.643 131.583 127.541 132.763 127.088 133.96L126.917 133.977C125.67 131.788 125.49 129.471 125.926 127.06C126.028 126.47 126.08 125.88 125.969 125.307C125.832 124.965 125.712 124.614 125.61 124.272C124.943 124.007 124.286 123.717 123.636 123.417C123.841 124.29 123.841 125.324 123.747 125.965C123.406 126.88 123.055 127.744 123.423 128.736C123.961 130.651 123.739 132.592 122.389 134.165L122.218 134.131C121.834 133.139 121.765 132.224 121.791 131.326C121.791 129.984 122.731 128.684 122.722 127.333C122.312 126.136 122.218 124.401 122.765 123.007C121.21 122.237 119.741 121.417 118.485 120.664C118.792 121.844 118.664 123.041 118.416 124.272C118.527 126.017 119.518 127.675 119.51 129.437C119.535 130.6 119.433 131.78 118.98 132.977L118.809 132.994C117.562 130.805 117.383 128.488 117.818 126.077C117.921 125.487 117.972 124.897 117.861 124.324C117.306 122.887 116.921 121.468 117.314 119.946C115.614 118.877 114.521 118.091 114.521 118.091H113.999C114.256 119.39 114.153 120.724 113.948 122.075C114.102 124.119 115.119 126.085 115.153 128.146C115.195 129.514 115.127 130.899 114.691 132.31L114.521 132.327C112.675 129.095 113.453 125.598 113.384 122.126C112.923 120.792 112.573 119.467 112.615 118.091H112.308C112.308 118.091 113.478 125.991 108.54 133.148C109.403 133.686 109.036 134.037 108.72 134.687C108.703 135.242 109.6 135.542 109.608 136.32C109.608 136.602 109.352 137.508 108.78 137.619C108.173 137.32 107.917 136.961 107.78 136.585C107.566 135.832 108.327 135.294 108.164 134.764C108.088 134.593 107.831 134.447 107.677 134.285C107.199 134.883 106.686 135.482 106.114 136.055L103.619 138.551C103.628 138.56 103.397 147.119 111.283 150.624ZM131.496 140.313L131.65 140.227C132.444 140.415 132.863 140.946 132.914 141.553C132.778 142.202 132.521 142.75 133.034 143.323C133.837 144.443 133.649 145.939 132.35 146.649L132.188 146.597C131.812 145.922 131.693 145.426 131.658 144.93C131.581 144.212 132.393 143.314 132.162 142.621C131.445 141.843 131.035 141.681 131.496 140.313ZM117.75 141.638C119.117 140.27 122.047 141.51 123.841 141.51C125.635 141.51 127.677 142.536 127.677 144.802C127.677 147.068 125.977 146.708 124.866 147.811C123.756 148.923 118.647 148.427 117.075 146.854C115.503 145.281 116.494 142.895 117.75 141.638Z" fill="#CA4024"/>
<path d="M63.9615 57.6655C64.3631 57.8365 64.8329 57.674 65.038 57.2892C66.123 55.2543 69.6855 49.175 74.5637 46.7553C74.6662 46.704 74.7773 46.6612 74.8798 46.6099C73.4189 45.7378 72.1033 44.6775 70.8987 43.5061C68.6774 41.4113 67.3532 38.5812 65.4566 36.2299C63.2012 34.1607 61.2106 31.8264 60.4246 28.7398L60.5699 28.6457C63.0047 30.6636 64.4656 33.203 65.9009 35.8793C69.0191 39.479 72.8892 42.2578 75.4778 46.3363C77.4513 45.4471 79.5273 44.7631 81.5265 44.2415C80.4586 43.5575 79.459 42.7879 78.5107 41.9585C76.2638 40.0518 74.7688 37.4012 72.7013 35.3321C70.2921 33.5878 68.0794 31.6469 66.8406 28.7996L66.9688 28.6799C69.6599 30.2019 71.4283 32.4848 73.1028 34.9388C76.3493 37.9399 80.1083 40.3083 82.6884 43.9508C85.5589 43.2839 88.1133 42.9418 89.634 42.7794C89.8476 42.7537 90.0355 42.6853 90.2064 42.5913C87.7545 39.4106 86.5072 35.6142 84.4312 32.1856C82.4662 30.2275 80.6721 28.3123 79.5188 25.6531L79.647 25.5334C82.2697 26.8844 83.7563 29.3127 84.9011 31.8607C86.4303 34.1521 88.5747 36.0418 89.7793 38.5555C90.1979 39.402 90.5738 40.2741 90.8813 41.1805C90.8813 41.1634 90.8899 41.1463 90.8813 41.1377C90.5225 39.1113 89.7451 35.2551 88.3269 30.8859C87.7887 29.7316 87.2419 28.5602 86.6012 27.4487C84.8669 25.7472 83.2949 24.0286 82.6286 21.5404L82.7652 21.4378C84.3628 22.3698 85.4051 23.7208 86.2082 25.2342C84.9694 22.3784 83.4487 19.5226 81.5948 16.9917C74.1024 6.76553 65.2516 0.404103 51.1723 4.03798C51.1723 4.03798 38.2292 7.79156 38.2292 18.411C38.2378 28.8851 47.3962 50.526 63.9615 57.6655ZM66.4049 19.3687C69.9162 20.9419 72.4963 23.6951 74.726 26.7134C77.289 29.4067 80.3304 31.6725 82.4748 34.7506C83.9186 36.7771 85.1659 38.9488 86.0373 41.3258L85.8921 41.4199C81.3385 37.1447 78.4338 31.7153 74.3245 27.1067C71.3942 24.8152 68.5493 22.5836 66.3024 19.5055L66.4049 19.3687ZM66.926 51.5947C65.243 50.6457 63.8248 49.423 62.5092 48.1062C60.5015 46.1567 59.2798 43.5233 57.4345 41.4455C55.2303 39.6671 53.2312 37.7176 52.2316 34.9302L52.3683 34.819C54.8886 36.3667 56.4349 38.641 57.8617 41.0779C61.091 44.4381 64.9953 47.0973 67.0542 51.475L66.926 51.5947ZM63.2952 40.9069C64.4485 42.3433 66.2682 43.224 67.3276 44.7374C68.0538 45.7292 68.686 46.8066 69.0448 48.1062L68.9081 48.2174C65.6446 46.7467 64.739 43.8995 62.8595 41.266C61.2875 40.1715 59.9035 38.9574 59.4678 36.8968L59.6045 36.7856C61.5523 37.5893 62.5006 39.1626 63.2952 40.9069ZM55.3072 10.0574C56.7681 9.36482 60.1854 10.75 60.1854 12.118C60.1854 13.4861 57.7848 15.7519 55.7344 15.7519C53.684 15.7519 50.9758 15.7519 50.9758 13.7597C50.9758 11.7503 55.3072 10.0574 55.3072 10.0574ZM47.7208 13.7255L47.8917 13.7682C48.8571 19.3516 47.2766 21.9167 54.3931 20.0441C55.7856 19.7449 57.1355 19.42 58.622 19.3601L58.6903 19.514C56.4264 21.7884 52.6246 23.0966 49.7114 21.2668C48.6264 20.4204 47.5329 19.5055 46.9946 18.1802C46.5077 16.6411 46.8409 15.008 47.7208 13.7255ZM42.723 31.8179L42.8682 31.7238C45.9524 34.6224 48.1309 38.0254 50.3521 41.5225C54.9142 46.6612 60.4588 50.7226 64.6194 56.2888L64.5083 56.4171C62.0564 55.0576 59.8608 53.3476 57.836 51.4665C54.7519 48.6534 52.5819 45.0537 49.9164 41.8816C46.8921 39.0172 44.1754 35.828 42.723 31.8179Z" fill="#CA4024"/>
<path d="M93.8885 42.9419C93.5809 41.8133 93.4955 40.6248 93.5126 39.4363C93.0939 37.0935 92.0175 34.8277 92.1456 32.3823C92.2054 30.7748 92.4874 29.1674 93.2135 27.6711L93.3844 27.6882C94.495 31.6042 93.5638 35.4177 94.0593 39.3251C94.6744 40.7445 95.2383 42.1211 95.5544 43.5917C96.4344 43.985 97.6133 44.6007 99.1084 45.5583C98.5702 43.0531 98.7581 40.5478 99.1255 38.0255C99.0913 34.9987 98.1857 31.9975 98.2712 28.9622C98.3053 26.9443 98.4591 24.9179 98.9717 22.8915H99.1426C100.809 27.8763 99.8175 32.9381 99.6808 38.0169C100.193 40.7103 100.518 43.3865 99.9371 46.1141C100.706 46.6271 101.535 47.2085 102.466 47.8925C106.046 50.5517 108.087 54.2625 109.241 57.2722C108.984 54.9123 109.224 52.5695 109.591 50.2011C109.625 46.9178 108.796 43.643 108.95 40.3597C109.027 38.1708 109.241 35.982 109.787 33.8016H109.958C111.496 39.2482 110.403 44.7118 110.155 50.2011C110.599 53.0997 110.872 55.9726 110.257 58.8711C110.941 59.2217 111.872 59.0165 112.214 58.1785C116.545 47.7044 122.414 42.3007 126.908 39.5475C126.994 38.2393 127.318 36.9823 127.694 35.6827C127.651 31.9377 126.43 28.3808 127.506 24.6101L127.677 24.5844C128.42 25.9867 128.753 27.4744 128.907 28.9793C129.181 31.2451 128.335 33.4682 128.249 35.7084C128.412 36.6916 128.506 37.6835 128.454 38.6582C129.915 37.8887 131.163 37.4184 132.06 37.1363C132.957 36.8541 133.521 35.9991 133.452 35.0671C133.068 30.2362 131.718 16.2906 128.454 10.0404C124.473 2.42206 116.998 -1.42557 104.508 1.07967C92.0175 3.57635 89.0701 21.9851 89.0701 26.5339C89.0701 30.1763 91.6928 38.4787 92.7351 41.6337C92.9487 42.2237 93.3588 42.6854 93.8885 42.9419ZM105.208 49.1494L105.037 49.1409C104.192 46.6442 104.602 44.2501 105.242 41.8475C105.413 39.4192 104.713 36.9482 104.995 34.5284C105.166 32.9124 105.456 31.305 106.097 29.7146L106.268 29.7232C107.592 33.8273 106.268 37.8032 105.798 41.8731C106.182 44.3356 106.319 46.7639 105.208 49.1494ZM114.409 51.877H114.238C113.256 49.4743 113.538 47.1145 114.042 44.7204C114.076 42.3348 113.239 39.9493 113.401 37.5638C113.478 35.9734 113.683 34.3831 114.238 32.7927H114.409C115.956 36.743 114.854 40.7103 114.606 44.7204C115.11 47.1059 115.392 49.4743 114.409 51.877ZM120.364 30.7406H120.535C121.09 31.7068 121.295 32.673 121.372 33.6392C121.526 35.0927 120.689 36.5377 120.731 37.9827C121.235 39.4363 121.526 40.8556 120.535 42.3263H120.364C119.766 41.3601 119.595 40.3939 119.732 39.4277C120.074 38.4701 120.407 37.5381 119.98 36.5292C119.33 34.5626 119.322 32.6217 120.364 30.7406ZM109.822 6.43215C109.822 6.43215 115.05 5.69682 116.699 7.33848C118.339 8.98013 115.059 9.88646 113.461 11.4768C111.872 13.0672 108.668 11.6307 106.644 9.61286C104.619 7.58644 109.822 6.43215 109.822 6.43215ZM103.448 8.93738L103.611 8.99724C103.85 10.3054 104.32 11.0664 104.807 11.9984C105.14 13.1185 106.097 14.0505 107.327 14.136C109.77 14.4181 112.069 14.6148 114.324 15.6665V15.8375C111.06 17.3338 107.976 15.9572 105.371 13.9222C104.841 13.5887 104.149 13.3664 103.645 12.8534C102.662 11.853 102.432 9.98051 103.448 8.93738Z" fill="#CA4024"/>
<path d="M16.4611 65.5319C16.9823 65.8739 17.6401 65.8739 18.1698 65.5405C18.315 65.4464 18.4944 65.3352 18.6824 65.2241C18.614 65.1642 18.5286 65.1129 18.4603 65.0616C16.5637 63.591 15.5726 61.3251 14.0861 59.521C12.2322 58.0076 10.6603 56.1522 10.404 53.6128L10.5578 53.5273C12.5142 55.0834 13.4966 57.05 14.5218 59.1705C16.2817 61.0943 18.409 62.5307 20.28 64.275C24.3978 61.8895 32.0782 57.9734 38.2379 57.9734C39.3827 57.9734 40.63 58.0333 41.9286 58.1273C39.2546 55.9812 36.777 53.5957 34.0261 51.5094C30.8992 49.9618 27.892 48.3629 25.4316 45.7551L25.517 45.6097C29.0026 46.5417 31.7792 48.6622 34.3507 51.0562C37.1785 53.057 40.4506 54.4507 43.0819 56.7422C43.7141 57.2723 44.3122 57.8366 44.9016 58.418C48.8743 58.8541 53.0263 59.5467 56.2556 60.1537C50.5573 57.2808 46.1575 52.7321 41.1682 48.8759C37.6655 47.0034 34.2995 45.0112 31.5742 41.9929L31.6681 41.8476C35.4955 43.2327 38.5711 45.7123 41.4929 48.4142C44.6795 50.7313 48.336 52.3987 51.3945 54.9124C53.4022 56.5284 55.3159 58.2812 57.0074 60.2991C58.6136 60.6069 59.9463 60.872 60.8348 61.0601C61.4756 61.1969 62.065 60.7095 62.065 60.0511V58.4693C62.065 58.1701 61.9027 57.8879 61.6464 57.7426L58.4342 55.8701C55.5465 54.502 51.6337 50.5774 47.9345 46.7041C44.4745 45.5328 41.8432 42.9591 38.853 40.9156C36.4609 40.0691 34.2055 39.0431 32.5737 36.9141L32.6592 36.7687C35.3076 37.2133 37.2725 38.7182 39.1435 40.4368C40.6984 41.403 42.501 41.9673 44.1669 42.7624C43.6885 42.2665 43.2186 41.7792 42.7658 41.3346C41.715 40.2829 40.8436 38.778 40.1174 37.0851C37.8193 35.7427 36.0765 33.6991 33.8638 32.1515C31.8219 31.5359 29.9509 30.8604 28.4644 29.1076L28.5328 28.9452C30.8565 28.9281 32.6079 30.1593 34.1457 31.6642C35.692 32.6218 37.5374 33.1348 39.0495 34.1694C38.4771 32.3396 38.0414 30.45 37.7168 28.74C37.5886 28.6887 37.4434 28.6545 37.3152 28.5946C36.29 28.1585 35.6749 26.876 34.6327 26.4485C33.3597 26.4314 32.3431 26.3459 31.5144 25.0377L31.5656 24.8752C32.4798 24.5418 33.2914 24.6529 33.9663 25.0719C34.5472 25.679 35.0598 26.286 35.991 26.2689C36.4695 26.3031 36.9137 26.4143 37.3323 26.5682C37.1615 25.4738 37.0419 24.5332 36.965 23.8492C36.8881 23.1652 36.2986 22.6522 35.6151 22.6607L30.7113 22.7035C30.7113 22.7035 7.55053 20.8823 4.37244 39.0858C1.68131 54.6474 13.1293 63.3601 16.4611 65.5319ZM22.4158 29.3214C23.1505 29.1076 23.6973 29.3812 23.9279 29.8686C24.0134 30.4671 23.8938 30.9716 24.5602 31.2709C25.6451 31.895 25.8929 33.2716 24.8506 34.1523C24.3551 34.1352 23.7913 33.1776 23.7058 32.998C23.4495 32.4679 23.9536 31.4675 23.552 31.04C23.3812 30.8861 23.0309 30.8776 22.8173 30.792C22.4841 30.6809 22.1253 29.6891 22.4158 29.3214ZM22.3816 51.86C23.5008 51.9455 24.3722 52.3644 25.0642 53.0399C25.6195 53.8778 26.1663 54.6901 27.2256 54.9295C29.1821 55.5623 30.7284 56.6909 31.6083 58.6318L31.5058 58.7686C30.4037 58.6575 29.5152 58.2556 28.7036 57.7511C27.4563 57.0243 26.7985 55.5024 25.6281 54.6901C24.1672 54.2455 22.8771 53.647 22.2876 51.9882L22.3816 51.86ZM23.7998 61.3337L23.6887 61.4705C22.5781 61.2995 21.6982 60.795 20.9122 60.188C19.699 59.2731 19.289 57.6485 18.2979 56.5626C16.9481 55.7846 15.8119 54.7756 15.7691 52.9886L15.9144 52.886C17.5632 53.5273 18.1613 54.7585 18.7251 56.1864C18.9899 56.5883 19.4 56.879 19.8272 57.127C21.6554 58.1273 22.9882 59.3415 23.7998 61.3337ZM16.5893 33.4597C17.5974 32.237 21.1856 32.5534 21.1856 34.8705C21.1856 37.1791 19.5794 39.539 18.7337 40.3855C17.8879 41.2319 16.726 40.9412 14.8465 39.0602C12.9755 37.1791 16.5893 33.4597 16.5893 33.4597ZM9.85721 39.633C9.20792 37.7605 9.25064 35.6059 10.8226 34.1181L10.9849 34.178C11.3096 36.2215 10.8055 37.7434 10.4125 39.5817C10.4723 41.2918 11.9247 42.7966 12.9499 43.9082C13.6675 44.7034 14.5218 45.3874 15.5128 46.3108L15.4616 46.4733C12.685 46.8409 9.95973 44.3272 9.9939 41.5483C9.98536 40.8899 9.98536 40.2572 9.85721 39.633Z" fill="#CA4024"/>
<path d="M53.5643 64.6767C55.7685 64.9759 58.0752 64.3945 60.2793 64.8135C60.7748 64.899 61.2789 65.0101 61.7744 65.1298C61.8086 64.6168 61.8513 64.1893 61.8769 63.8729C61.9111 63.4967 61.6975 63.1462 61.3472 63.0179C55.1107 60.7264 35.1707 57.2037 25.0726 63.5737C14.6242 70.1659 13.4965 82.8888 18.0329 91.9778C22.5779 101.067 39.1946 105.94 53.6241 104.188C65.841 102.708 73.2822 95.0815 75.3411 92.6874C75.6401 92.3369 75.4863 91.8239 75.0677 91.6443C74.1878 91.2595 73.2651 90.7209 72.3253 90.0796C70.8559 91.1569 69.1558 91.9265 67.4044 92.4224C63.9871 93.4142 60.5015 92.8157 57.05 92.7387C53.6156 93.1406 50.1641 93.0038 46.9006 91.6187L46.9177 91.4476C50.4204 90.8833 53.6925 91.5673 57.0671 92.1744C62.0222 92.106 66.7039 90.7465 71.471 89.4725C69.7794 88.2071 68.0879 86.6167 66.5757 84.8725C65.2259 85.4453 63.8162 85.8215 62.3895 86.0781C59.4677 86.6509 56.4947 86.0353 53.5643 86.1123C50.6425 86.6595 47.6524 86.7877 44.8331 85.471L44.8502 85.3C47.8489 84.6587 50.6425 85.0691 53.5472 85.5479C57.6907 85.2743 61.6377 84.0431 65.7897 83.9576C64.9098 82.8717 64.1152 81.7431 63.4489 80.6144C63.0644 79.9646 62.7654 79.1865 62.5177 78.34C58.827 79.2806 55.1619 78.3058 51.4456 78.0066C49.0022 78.4683 46.593 78.7077 44.1668 77.6817V77.5107C46.6272 76.5701 49.0279 76.895 51.4542 77.4508C53.8804 77.5363 56.3238 76.7411 58.7501 76.9378C59.9291 77.0147 61.1166 77.1686 62.287 77.4679C61.9453 75.9801 61.7488 74.3128 61.6633 72.6626C60.6894 72.8507 59.7069 72.9619 58.733 73.0132C56.1102 73.1842 53.5216 72.295 50.9159 72.2095C48.2846 72.5942 45.6533 72.6883 43.1416 71.4485L43.1586 71.2775C45.8498 70.5593 48.37 71.021 50.9416 71.6451C54.5297 71.6024 58.0666 70.8842 61.6121 71.3716C61.5694 69.6786 61.6035 68.0626 61.6719 66.7202C58.9124 66.7116 56.2469 65.7454 53.496 65.2324C51.2149 65.4804 48.9937 65.4975 46.875 64.2662L46.892 64.0952C49.2414 63.3856 51.3943 63.9157 53.5643 64.6767ZM20.912 75.5954C21.006 76.9891 20.7753 77.7244 19.7501 78.8017H19.5793C19.0239 78.1947 18.9043 77.485 18.9812 76.8266C19.1777 75.5954 20.1687 75.3389 20.6899 74.4582C20.8266 73.3125 21.1768 72.4574 22.6548 72.5857L22.7573 72.7225C22.5865 74.2102 22.1422 74.2102 21.1598 74.7575C20.9547 74.9712 20.9035 75.279 20.912 75.5954ZM22.3644 82.1877C20.1346 79.9561 24.7565 74.7147 24.7565 74.7147C24.7565 74.7147 27.7295 73.7742 29.3527 75.3902C30.9674 77.0062 28.0456 80.9564 26.9777 82.4784C25.9013 84.0003 24.5941 84.4193 22.3644 82.1877ZM34.3078 78.4426C33.6415 81.3326 32.1208 83.8892 31.0614 86.6509C30.0191 88.3268 28.1909 89.6692 26.1747 89.8573L26.1148 89.6948C28.2336 87.7197 30.0191 85.9156 31.6851 83.6669C33.445 79.7594 32.4369 74.1504 32.5479 69.9607L32.7102 69.9094C34.3249 72.3805 34.8888 75.5355 34.3078 78.4426ZM50.0103 99.4251C52.6417 99.4336 58.5194 97.1165 61.0824 96.4154C63.5429 95.7228 66.0289 95.0559 68.6432 94.7053L68.703 94.8678C63.1242 98.5187 56.5886 99.6901 50.0531 99.9894C46.2086 100.827 41.9882 100.802 38.5367 98.6042L38.588 98.4418C41.3218 98.5786 47.379 99.3481 50.0103 99.4251Z" fill="#CA4024"/>
<path d="M84.5507 91.978C90.6847 91.978 101.355 88.7973 106.797 80.8455C112.248 72.8937 109.309 56.3489 105.892 52.9288C102.474 49.5087 90.9069 40.6334 73.6495 49.2607C73.6495 49.2607 60.9371 58.1188 63.8845 74.7064C66.8405 91.3025 83.4144 91.978 84.5507 91.978ZM102.679 58.1787L102.833 58.1017C104.303 58.7943 104.448 60.1025 104.2 61.4278C104.414 62.6419 105.319 63.7791 105.08 65.0787C104.943 65.9167 104.602 66.7375 103.867 67.3702L103.696 67.3275C103.346 66.4297 103.26 65.6944 103.235 64.9505C103.158 63.8732 103.927 62.6419 103.645 61.5389C102.902 60.4616 102.338 59.7177 102.679 58.1787ZM93.0768 58.914L93.2221 58.8199C94.683 59.1705 94.794 60.1367 94.6317 61.2995C94.9051 62.3085 95.8192 62.8899 95.7253 64.1297C95.6569 64.8137 95.3835 65.4977 94.7172 66.0107L94.5463 65.9765C94.1106 65.2668 93.9568 64.7111 93.8714 64.1468C93.7176 63.3345 94.4096 62.2913 94.0935 61.462C93.2904 60.6411 92.812 60.3761 93.0768 58.914ZM93.5467 80.6232L93.6236 80.7771C93.1879 81.6321 92.3934 82.1024 91.5647 82.3161C90.2234 82.6667 89.1555 81.786 87.9509 81.4868C86.5925 81.6407 85.311 81.3158 84.9608 79.6912L85.0718 79.563C86.6865 79.5801 87.0709 80.1102 88.0961 80.9481C88.4379 81.102 88.8309 81.0678 89.1982 80.9652C90.8043 80.4607 91.821 80.3239 93.5467 80.6232ZM86.0372 61.0344C87.6519 60.1367 90.3003 61.3936 91.1717 62.2657C92.0431 63.1378 91.2657 66.0706 90.3772 66.9598C89.4887 67.8491 85.311 67.2933 83.235 65.2241C81.159 63.1464 86.0372 61.0344 86.0372 61.0344ZM77.6136 62.7274C77.4854 60.5556 78.4252 58.3069 80.561 57.4006L80.6891 57.5203C80.1253 59.6493 79.0488 61.0174 78.1689 62.8386C77.7588 66.1903 80.2534 68.6699 81.3726 71.748L81.253 71.8762C77.3658 70.2517 76.614 66.4639 77.6136 62.7274ZM70.3347 62.8899L70.5056 62.9326C71.078 64.7624 70.7362 66.1646 70.386 67.849C70.386 68.3963 70.5739 68.9264 70.8302 69.4223C71.9494 71.4573 72.7268 73.1331 73.1967 75.4674L73.06 75.57C71.9323 75.0313 71.1292 74.0908 70.5654 73.0562C69.6683 71.4658 70.0271 69.6104 69.8221 67.9003C69.1301 66.2587 68.9592 64.352 70.3347 62.8899Z" fill="#CA4024"/>
</svg>
