<svg width="45" height="46" viewBox="0 0 45 46" fill="none" xmlns="http://www.w3.org/2000/svg">
<path d="M32.7464 1.07005C32.7464 1.07005 32.5243 1.01873 32.1142 1.01018C31.6956 0.993072 31.0891 1.01873 30.3202 1.08715C28.7824 1.22399 26.5953 1.60029 24.1092 2.44698C22.8704 2.8746 21.5548 3.4305 20.222 4.10614C18.8893 4.79033 17.548 5.62846 16.2238 6.59488C14.9081 7.55275 13.6437 8.67311 12.4306 9.88755C11.2175 11.102 10.0897 12.4276 9.06456 13.8473C8.03082 15.2499 7.07398 16.7123 6.23674 18.2261C5.3995 19.7313 4.60497 21.2451 3.93005 22.7418C3.25513 24.247 2.65713 25.718 2.18725 27.1462C1.72591 28.5745 1.36708 29.9514 1.16205 31.2428C0.974094 32.5342 0.914262 33.7316 1.02532 34.7835C1.14493 35.8269 1.42687 36.7164 1.78569 37.392C1.87966 37.5545 1.95655 37.7255 2.05053 37.8624C2.1445 37.9992 2.23848 38.1361 2.32392 38.2558C2.50332 38.4867 2.68275 38.6834 2.81944 38.8373C3.127 39.1196 3.28931 39.2735 3.28931 39.2735C3.28931 39.2735 3.10991 39.1452 2.76818 38.8972C2.45208 38.6235 1.96511 38.2216 1.53795 37.5459C1.10224 36.8789 0.70072 35.9723 0.478595 34.8776C0.256471 33.7829 0.213717 32.5171 0.333323 31.1573C0.452928 29.7975 0.734874 28.3436 1.15349 26.8469C1.57211 25.3502 2.10181 23.8023 2.76818 22.2457C3.42601 20.6892 4.16074 19.107 5.02361 17.5505C5.87794 15.9939 6.85188 14.4631 7.91124 12.9921C8.98769 11.5296 10.1752 10.1527 11.4567 8.90402C12.7296 7.64682 14.1051 6.53502 15.4976 5.56004C16.8987 4.58507 18.3426 3.7897 19.7607 3.13972C21.1789 2.48974 22.5714 2.01081 23.8785 1.65161C26.4928 0.941758 28.7568 0.77071 30.3202 0.796368C31.1062 0.80492 31.7213 0.873339 32.1313 0.933206C32.5414 0.993072 32.7464 1.07005 32.7464 1.07005Z" fill="#F3981C"/>
<path d="M39.7092 4.24289C39.7092 4.24289 39.6238 4.15736 39.4614 4.02052C39.2991 3.88369 39.0514 3.68698 38.7096 3.49883C38.6242 3.45607 38.5302 3.40475 38.4362 3.36199C38.3679 3.32778 38.2312 3.27647 38.1287 3.24226C37.9407 3.18239 37.7015 3.14818 37.4623 3.15673C36.9839 3.18239 36.4542 3.40475 35.9245 3.77251C35.4034 4.14026 34.8737 4.62774 34.3525 5.18365C33.8314 5.74811 33.3103 6.37243 32.7806 7.03952C31.7298 8.37369 30.6619 9.87035 29.5769 11.3585C28.4919 12.8466 27.3898 14.3347 26.3048 15.7031C25.7666 16.3873 25.2112 17.0287 24.6901 17.6274C24.169 18.2346 23.6393 18.7819 23.1438 19.278C22.1528 20.2786 21.2472 21.0227 20.5808 21.5016C20.2476 21.7411 19.9742 21.9121 19.7863 22.0233C19.5983 22.1345 19.4958 22.1943 19.4958 22.1943C19.4958 22.1943 19.5813 22.1088 19.735 21.9549C19.8888 21.8009 20.1024 21.57 20.3843 21.2707C20.9226 20.672 21.6573 19.7911 22.486 18.6964C22.8961 18.1491 23.3317 17.5418 23.7931 16.909C24.2544 16.2675 24.7243 15.5833 25.2198 14.8735C26.2023 13.4624 27.2446 11.94 28.3381 10.4434C29.4316 8.9467 30.5593 7.45858 31.7297 6.14152C32.3192 5.48298 32.9173 4.86721 33.541 4.32841C33.8485 4.05474 34.1646 3.79816 34.4807 3.56725C34.8053 3.33633 35.13 3.13963 35.4632 2.96858C35.7964 2.79753 36.1381 2.6607 36.4798 2.57517C36.8215 2.48965 37.1718 2.47254 37.4964 2.50675C37.8211 2.54952 38.103 2.63504 38.3593 2.78043C38.4789 2.84885 38.5559 2.90016 38.6669 2.98569C38.7609 3.05411 38.8463 3.13108 38.9232 3.20805C39.2308 3.49883 39.4272 3.76395 39.5468 3.95211C39.6066 4.04618 39.6494 4.12315 39.675 4.16592C39.7006 4.21723 39.7092 4.24289 39.7092 4.24289Z" fill="#F3981C"/>
<path d="M27.518 17.6702L26.9969 17.7899L26.4929 17.9353L25.9974 18.1063C25.835 18.1662 25.6727 18.2432 25.5104 18.303C25.1943 18.4484 24.8867 18.6109 24.5877 18.782L24.152 19.0557L23.7334 19.355C23.46 19.5688 23.1952 19.7826 22.9389 20.0135C22.6826 20.2444 22.4348 20.4839 22.1956 20.7319C21.7172 21.228 21.2729 21.7582 20.8372 22.297C20.4015 22.8444 19.9914 23.4088 19.5814 23.9818L18.3255 25.7009C17.4797 26.8554 16.5912 28.01 15.5148 29.0448L15.4892 29.0705L15.4379 29.1133C15.0876 29.3869 14.7032 29.806 14.3529 30.2251C13.9941 30.6527 13.6438 31.0974 13.3021 31.5507C12.9604 32.0125 12.6186 32.4658 12.2939 32.9362L11.3115 34.3473C11.1406 34.5953 11.0296 34.7749 10.8843 35.04C10.7733 35.2539 10.6622 35.4848 10.5682 35.7328C10.3803 36.2203 10.2692 36.7249 10.2094 37.238C10.1581 37.7512 10.1838 38.2729 10.3034 38.7774C10.3632 39.0255 10.4401 39.282 10.5426 39.5215C10.5853 39.6412 10.6451 39.761 10.7049 39.8807L10.7476 39.9662L10.7562 39.9919V40.0004C10.7732 40.0261 10.7391 39.9748 10.7476 39.9833L10.7562 39.9919L10.7904 40.0346C10.816 40.0774 10.8074 40.0603 10.816 40.0688C10.816 40.0774 10.8416 40.0945 10.8501 40.1116C10.9783 40.2313 11.1919 40.3425 11.4311 40.4195C11.6703 40.505 11.9351 40.5563 12.2 40.5991C12.7382 40.6761 13.3021 40.7017 13.8659 40.6932C14.9936 40.6675 16.1299 40.5307 17.2576 40.2998C18.3767 40.0603 19.4874 39.7524 20.5553 39.3248C21.6147 38.8886 22.6484 38.3584 23.5454 37.6058C22.7338 38.4353 21.7342 39.0853 20.6834 39.607C19.6326 40.1287 18.5305 40.5478 17.3943 40.8557C16.258 41.1636 15.0961 41.3945 13.9086 41.4885C13.3106 41.5313 12.7126 41.5399 12.0975 41.48C11.7899 41.4458 11.4824 41.403 11.1663 41.3089C10.8502 41.2149 10.5255 41.0951 10.2094 40.8386C10.1667 40.8044 10.1325 40.7787 10.0898 40.7274C10.0556 40.6846 9.99583 40.6162 9.97875 40.5991L9.94454 40.5563L9.91039 40.5136L9.89328 40.4879L9.82498 40.3853C9.73954 40.2485 9.65409 40.1116 9.58574 39.9748C9.43196 39.6925 9.3209 39.3932 9.21839 39.0853C9.02189 38.4696 8.93646 37.8196 8.95355 37.1781C8.96209 36.5367 9.08171 35.8953 9.28675 35.2881C9.38072 34.9887 9.50886 34.6894 9.6541 34.3815C9.77371 34.1335 9.95309 33.8085 10.1069 33.5776C10.4144 33.073 10.7305 32.577 11.0637 32.0895C11.3884 31.602 11.7301 31.1145 12.0804 30.6441C12.4306 30.1652 12.798 29.6948 13.1825 29.233C13.584 28.7712 13.9684 28.3179 14.5408 27.8817L14.464 27.9416C14.7032 27.7107 14.9509 27.4712 15.1816 27.2232C15.4122 26.9752 15.6429 26.7186 15.8736 26.462C16.3264 25.9403 16.7792 25.4015 17.2149 24.8542L18.5562 23.195C19.0175 22.6477 19.4874 22.1003 19.9829 21.57C20.2306 21.3049 20.4869 21.0398 20.7432 20.7918C21.0081 20.5438 21.2815 20.2957 21.5634 20.0563C21.8453 19.8168 22.1358 19.5945 22.4348 19.3806L22.8876 19.0728L23.366 18.7905L23.853 18.534L24.3571 18.303C24.5279 18.2346 24.6988 18.1662 24.8696 18.1063C25.049 18.055 25.2199 17.9952 25.3908 17.9524C25.741 17.8583 26.0999 17.7899 26.4587 17.7386L26.9969 17.6873L27.518 17.6702Z" fill="#F3981C"/>
<path d="M40.5977 6.29549C45.3905 12.5387 36.9669 19.2096 33.9682 24.0331C32.0203 27.1633 30.5252 30.379 27.6205 32.7737C25.2028 34.7664 21.7257 35.9038 18.6416 36.1176C18.4451 36.1347 18.3768 36.4426 18.5903 36.4768C21.9308 37.0413 24.9038 36.4597 27.8341 34.7664C31.6529 32.5684 33.4385 28.6258 35.5487 24.9653C37.6503 21.3135 40.9053 18.38 42.1526 14.2578C42.9813 11.5295 42.6738 8.35662 40.6319 6.26128C40.6063 6.23563 40.5806 6.26984 40.5977 6.29549Z" fill="#F3981C"/>
<path d="M42.3662 7.94619C47.0137 18.9702 40.7771 30.1225 34.1647 38.7861C34.1049 38.8716 34.2415 38.9742 34.3099 38.8973C41.828 30.7725 48.1585 18.8248 42.4089 7.92909C42.3918 7.89488 42.3576 7.92053 42.3662 7.94619Z" fill="#F3981C"/>
<path d="M3.73344 40.9584C8.64581 46.5517 16.5227 46.6286 23.2377 44.9267C30.1662 43.1649 36.4968 38.5723 39.4357 31.9528C39.4699 31.8758 39.3673 31.8074 39.3161 31.8843C32.7378 43.0281 14.6944 49.3226 3.7847 40.8985C3.75052 40.8558 3.69926 40.9242 3.73344 40.9584Z" fill="#F3981C"/>
<path d="M29.0727 3.02854C27.6118 6.65475 25.664 10.0671 23.2121 13.1118C22.0417 14.5657 20.726 15.8828 19.342 17.1229C19.1027 17.3367 17.8725 18.6794 17.4881 18.3202C17.0609 17.9182 16.7277 17.9695 16.2066 18.0038C16.0272 18.0209 15.899 18.2945 16.1041 18.3886C16.5825 18.5682 17.0182 18.8333 17.4197 19.1583C17.565 19.2866 17.7444 19.2866 17.8896 19.1669C23.1096 14.9677 27.1078 9.44283 29.124 3.02854C29.124 3.01144 29.0813 2.99433 29.0727 3.02854Z" fill="#F3981C"/>
<path d="M16.9841 19.5345C17.0952 20.5523 17.2831 21.2706 16.275 21.8608C15.7453 22.1686 15.2754 22.5364 14.797 22.9042C13.4216 23.9732 12.217 25.2475 11.1149 26.5988C9.2012 28.9421 7.44978 31.944 6.95427 34.963C6.92864 35.0998 7.14226 35.2196 7.20206 35.0656C8.27851 32.5341 9.2268 30.1138 10.8244 27.8474C12.5928 25.333 14.9508 23.3574 17.454 21.5956C17.5223 21.5443 17.5565 21.4845 17.5394 21.3989C17.4027 20.7746 17.2575 20.1417 17.1208 19.5174C17.1037 19.4404 16.9756 19.4575 16.9841 19.5345Z" fill="#F3981C"/>
<path d="M40.9224 18.7307C42.4431 20.2189 42.7592 22.6221 42.4858 24.6319C42.4602 24.8029 42.6908 24.8713 42.7506 24.7003C43.6306 22.4254 42.5969 20.2702 40.948 18.6965C40.9309 18.6965 40.9053 18.7222 40.9224 18.7307Z" fill="#F3981C"/>
<path d="M38.795 21.7582C40.2815 24.1529 40.5549 26.8383 40.6062 29.5922C40.6062 29.7803 40.8625 29.806 40.9223 29.6349C41.9475 26.8298 40.8283 23.8193 38.9402 21.647C38.8719 21.57 38.7438 21.6641 38.795 21.7582Z" fill="#F3981C"/>
<path d="M36.3603 24.5977C37.7358 27.8561 37.6076 31.1573 37.1634 34.5783C37.1377 34.775 37.4197 34.775 37.4795 34.621C38.8549 31.3284 38.2227 27.5397 36.5141 24.5036C36.4628 24.4009 36.3176 24.495 36.3603 24.5977Z" fill="#F3981C"/>
<path d="M32.8489 29.0277C34.3781 32.7565 33.5922 36.7505 31.7041 40.18C31.6272 40.3083 31.8067 40.4708 31.9177 40.3511C34.7883 37.238 34.9506 32.5855 32.9685 28.9593C32.9258 28.8823 32.8147 28.9507 32.8489 29.0277Z" fill="#F3981C"/>
<path d="M29.4146 33.4151C28.6372 37.2808 26.6637 40.6419 24.3826 43.8063C24.2716 43.9602 24.5022 44.1141 24.6304 44.003C27.7828 41.3688 29.3121 37.4689 29.5427 33.4322C29.5513 33.3553 29.4317 33.3381 29.4146 33.4151Z" fill="#F3981C"/>
<path d="M24.6132 36.4255C23.3061 39.7267 21.1874 42.378 18.5133 44.67C18.3766 44.7897 18.5475 45.0206 18.7013 44.9266C21.8452 43.0878 23.9127 39.9747 24.7414 36.4597C24.767 36.3742 24.6474 36.3485 24.6132 36.4255Z" fill="#F3981C"/>
<path d="M19.6581 40.9839C18.556 42.5832 17.0865 43.8575 15.5487 45.0292C15.4206 45.1318 15.5829 45.3114 15.711 45.2516C17.5906 44.3963 18.8464 42.8655 19.7776 41.0524C19.8203 40.9754 19.7093 40.907 19.6581 40.9839Z" fill="#F3981C"/>
<path d="M43.1436 13.2571C39.5554 24.3154 33.5153 35.6644 21.7683 39.4873C21.6573 39.5215 21.7 39.6925 21.811 39.6669C33.9254 37.1952 40.4951 24.2213 43.1692 13.2657C43.1863 13.2486 43.1521 13.24 43.1436 13.2571Z" fill="#F3981C"/>
<path d="M43.9039 16.4901C40.555 26.4964 35.5145 35.9724 25.7752 40.9072C25.6556 40.967 25.7324 41.1637 25.8606 41.121C35.8477 37.777 41.7169 26.0773 43.9467 16.4987C43.9552 16.473 43.9125 16.4644 43.9039 16.4901Z" fill="#F3981C"/>
<path d="M17.6675 21.3563C16.4885 22.699 14.7798 25.4186 15.8904 27.2146C15.9588 27.3258 16.1382 27.3515 16.2065 27.2146C16.6423 26.4022 16.5398 25.4871 16.7106 24.5976C16.9242 23.4858 17.2318 22.4253 17.7358 21.4161C17.7615 21.3648 17.7016 21.3135 17.6675 21.3563Z" fill="#F3981C"/>
<path d="M15.5402 22.7675C14.3442 24.1444 13.2079 26.5648 14.3442 28.2838C14.421 28.4035 14.6517 28.4121 14.6859 28.241C14.8311 27.3772 14.6944 26.5306 14.814 25.6497C14.9593 24.6319 15.1558 23.7596 15.6513 22.8445C15.6855 22.7846 15.5915 22.7076 15.5402 22.7675Z" fill="#F3981C"/>
<path d="M13.7207 24.2642C12.7126 25.701 11.7386 28.2239 12.9005 29.8318C13.0116 29.9857 13.2252 29.9344 13.2423 29.7463C13.3192 28.9252 13.1653 28.0871 13.1568 27.2661C13.1397 26.2569 13.4388 25.2648 13.8745 24.3583C13.9343 24.2471 13.789 24.1701 13.7207 24.2642Z" fill="#F3981C"/>
<path d="M11.9436 26.5646C10.85 28.3179 9.79921 31.277 11.2857 33.0901C11.3797 33.2098 11.6104 33.15 11.636 32.996C11.8069 32.0125 11.5677 31.0803 11.5762 30.0797C11.5933 28.8909 11.7215 27.762 12.1059 26.633C12.1486 26.539 12.0034 26.4791 11.9436 26.5646Z" fill="#F3981C"/>
<path d="M9.64544 28.8397C9.19264 30.1226 8.89364 31.4397 8.79966 32.7995C8.73132 33.7745 8.73129 35.331 9.36349 36.1178C9.46601 36.2461 9.67108 36.1691 9.7138 36.0323C9.99572 35.0402 9.56001 33.8429 9.54292 32.808C9.51729 31.4653 9.51728 30.1996 9.74795 28.8654C9.74795 28.8055 9.66252 28.7799 9.64544 28.8397Z" fill="#F3981C"/>
<path d="M8.03936 32.5684C7.42425 33.5006 7.12524 34.6124 7.2961 35.7242C7.44988 36.7334 7.97103 38.0248 9.01331 38.307C9.16708 38.3498 9.35505 38.1958 9.29525 38.0248C9.00478 37.2038 8.39821 36.6051 8.12483 35.7498C7.80018 34.715 7.75746 33.6289 8.11627 32.594C8.13336 32.5513 8.06499 32.5256 8.03936 32.5684Z" fill="#F3981C"/>
<path d="M19.2651 18.0209C18.9319 18.5853 18.7782 19.2011 18.7867 19.8511C18.7953 20.3471 18.9832 21.3221 19.5556 21.4504C19.6837 21.476 19.7692 21.3905 19.7863 21.2708C19.8119 21.0484 19.7265 20.9287 19.6239 20.732C19.4872 20.4839 19.4104 20.2017 19.3249 19.9366C19.137 19.3208 19.1882 18.6623 19.4018 18.0722C19.4189 17.9952 19.3079 17.9524 19.2651 18.0209Z" fill="#F3981C"/>
<path d="M20.2647 16.8749C19.9742 17.371 19.8632 17.9183 19.9144 18.4913C19.9571 18.9189 20.1365 19.7571 20.6491 19.8426C20.7346 19.8597 20.8285 19.8084 20.82 19.7058C20.82 19.5689 20.7944 19.4577 20.7004 19.338C20.5124 19.1071 20.3929 18.8505 20.2989 18.5597C20.1366 18.038 20.1963 17.465 20.4099 16.9604C20.4697 16.8664 20.3245 16.7723 20.2647 16.8749Z" fill="#F3981C"/>
<path d="M21.1703 16.3789C21.102 16.7723 21.102 17.1657 21.1618 17.5591C21.1959 17.7558 21.2387 17.9867 21.3326 18.1578C21.4266 18.3288 21.606 18.4485 21.7598 18.5597C21.905 18.6623 22.1101 18.4913 22.0673 18.3288C22.0246 18.192 22.0075 18.0466 21.9563 17.9097C21.8965 17.7472 21.7769 17.5933 21.7 17.4394C21.5377 17.1229 21.4608 16.7637 21.4351 16.4131C21.4351 16.2677 21.2045 16.2164 21.1703 16.3789Z" fill="#F3981C"/>
<path d="M22.4859 14.8736C22.2552 15.4979 22.2723 16.0709 22.4517 16.7038C22.5969 17.2255 22.8617 17.9866 23.4512 18.0807C23.5708 18.0978 23.7247 18.0294 23.7161 17.884C23.6905 17.388 23.2889 17.0459 23.0924 16.5926C22.8703 16.088 22.7849 15.4466 22.7678 14.9078C22.7507 14.7453 22.5372 14.7282 22.4859 14.8736Z" fill="#F3981C"/>
<path d="M23.8186 13.163C23.3658 13.3255 23.4427 14.1979 23.4854 14.5656C23.5538 15.1301 23.8015 15.8314 24.3995 16.0281C24.5362 16.0708 24.6558 15.934 24.6217 15.8057C24.5192 15.3524 24.1945 14.9419 24.0578 14.4886C23.9724 14.2235 23.9553 13.9413 23.9638 13.6676C23.9724 13.4795 24.0065 13.3341 23.8869 13.1801C23.8698 13.163 23.8442 13.1545 23.8186 13.163Z" fill="#F3981C"/>
<path d="M25.0917 10.9139C24.9209 11.4869 24.861 12.0514 24.8952 12.6415C24.9208 13.1547 25.0063 13.8474 25.3566 14.2408C25.4591 14.352 25.6128 14.2323 25.5872 14.1125C25.5103 13.6592 25.254 13.2316 25.16 12.7698C25.0319 12.1711 25.0575 11.5383 25.1771 10.9396C25.1942 10.8797 25.1088 10.8626 25.0917 10.9139Z" fill="#F3981C"/>
<path d="M25.8605 9.74205C25.6726 10.4177 25.5786 11.1104 25.6042 11.8117C25.6213 12.342 25.7836 13.1545 26.1766 13.5393C26.2621 13.6248 26.4073 13.565 26.4159 13.4452C26.4415 12.8979 26.1425 12.3078 26.0656 11.7519C25.9631 11.0762 25.8691 10.4348 25.9203 9.75061C25.9118 9.72495 25.8691 9.7164 25.8605 9.74205Z" fill="#F3981C"/>
<path d="M26.5269 8.54492C26.2791 9.92186 26.1595 11.7606 27.0309 12.9494C27.0992 13.0435 27.3043 13.0349 27.2872 12.881C27.2018 12.2053 26.9711 11.581 26.8173 10.9225C26.6293 10.1528 26.5866 9.34885 26.6208 8.56203C26.6208 8.50216 26.5354 8.49361 26.5269 8.54492Z" fill="#F3981C"/>
<path d="M27.2873 6.98836C27.0737 8.25411 26.9882 9.86196 27.8511 10.9139C27.928 11.008 28.0989 10.9396 28.0903 10.8198C27.9707 9.52842 27.441 8.33108 27.4239 7.00546C27.4239 6.92849 27.3044 6.91139 27.2873 6.98836Z" fill="#F3981C"/>
<path d="M27.7143 5.88506C27.5349 6.63767 27.458 7.41594 27.5606 8.1942C27.6631 8.94681 27.8083 9.87902 28.4662 10.358C28.5345 10.4093 28.6455 10.3409 28.637 10.2553C28.5686 9.57969 28.1586 8.95537 27.9621 8.29683C27.7314 7.51857 27.7058 6.69754 27.7912 5.89361C27.8168 5.8423 27.7314 5.83375 27.7143 5.88506Z" fill="#F3981C"/>
<path d="M27.9964 4.62784C27.9793 5.94491 27.9793 7.65538 28.6371 8.82706C28.7054 8.94679 28.902 8.90403 28.8934 8.75864C28.8507 8.15142 28.6542 7.58696 28.526 6.99685C28.3552 6.21858 28.2698 5.42321 28.227 4.62784C28.2185 4.48245 27.9964 4.48245 27.9964 4.62784Z" fill="#F3981C"/>
<path d="M28.9704 3.80686C28.6543 5.26932 28.4322 7.39886 29.4488 8.65606C29.5257 8.75014 29.6966 8.67317 29.6881 8.56199C29.6453 7.84359 29.3634 7.10808 29.2011 6.40679C29.0046 5.5601 28.9619 4.67921 29.0217 3.81542C29.0131 3.78121 28.9704 3.78121 28.9704 3.80686Z" fill="#F3981C"/>
<path d="M29.3975 3.25957C29.2096 4.01218 29.2181 4.75624 29.4061 5.5003C29.5598 6.10751 29.9101 6.91999 30.5423 7.14235C30.6192 7.16801 30.7046 7.08249 30.6875 7.00551C30.5252 6.47527 30.0895 6.01344 29.8418 5.50885C29.5 4.81611 29.406 4.02074 29.4915 3.26813C29.4915 3.21681 29.406 3.20826 29.3975 3.25957Z" fill="#F3981C"/>
<path d="M28.8506 3.49035C29.0129 4.89294 30.0466 6.41527 31.5503 6.47513C31.704 6.48369 31.7809 6.24422 31.6357 6.1758C30.3969 5.58569 29.3461 4.91005 29.03 3.47325C29.0044 3.37062 28.8335 3.38772 28.8506 3.49035Z" fill="#F3981C"/>
<path d="M28.3382 8.24555C25.9888 12.3935 22.8705 15.7631 19.4959 19.0729C19.4447 19.1242 19.513 19.2268 19.5813 19.184C23.4514 16.4558 26.322 12.4875 28.4151 8.29686C28.4493 8.237 28.3723 8.19424 28.3382 8.24555Z" fill="#F3981C"/>
<path d="M29.09 5.34632C28.1502 7.15088 27.0652 8.89556 25.9204 10.5718C25.835 10.7001 26.0315 10.8541 26.134 10.7429C27.5778 9.16924 28.5432 7.42455 29.1754 5.38908C29.1925 5.32922 29.1156 5.29501 29.09 5.34632Z" fill="#F3981C"/>
<path d="M28.9104 2.01933C28.9873 3.11404 29.4743 3.88375 30.3799 4.49097C31.0975 4.96991 32.4729 5.40608 33.0197 4.47387C33.088 4.35413 33.0795 4.18309 32.977 4.08901C32.5071 3.66139 31.8664 3.70415 31.2854 3.55876C30.4738 3.35351 29.6366 2.64366 29.2179 1.94236C29.1325 1.81408 28.9018 1.84829 28.9104 2.01933Z" fill="#F3981C"/>
<path d="M10.0383 14.8308C6.71501 18.8248 4.68169 23.4687 3.49418 28.5147C2.61422 32.2691 1.76846 38.3242 5.65565 40.7446C5.78379 40.8215 5.97175 40.659 5.87778 40.5307C4.61338 38.692 3.75049 36.9473 3.56254 34.6809C3.36604 32.2777 3.94698 29.7975 4.51938 27.4798C5.63 23.0411 7.74874 18.7991 10.1409 14.9164C10.1836 14.8479 10.0896 14.771 10.0383 14.8308Z" fill="#F3981C"/>
<path d="M1.29023 35.5618C2.23853 32.6882 4.26325 31.2001 7.02272 30.2679C7.21922 30.1995 7.1936 29.9087 6.98002 29.9087C3.98988 29.9002 1.47816 32.7053 1.15351 35.5447C1.14497 35.6217 1.2646 35.6303 1.29023 35.5618Z" fill="#F3981C"/>
<path d="M0.46156 33.0304C1.20482 30.516 2.81096 28.5917 4.89551 27.0522C5.00657 26.9667 4.95532 26.7358 4.793 26.7957C2.15313 27.7878 0.581187 30.2594 0.376149 33.0133C0.367605 33.0731 0.444474 33.0817 0.46156 33.0304Z" fill="#F3981C"/>
<path d="M1.4011 27.8391C3.01578 25.376 5.25415 23.6484 7.90256 22.4169C8.0478 22.3485 7.94528 22.1347 7.80005 22.1603C4.76719 22.7932 2.43484 24.9227 1.24733 27.745C1.19607 27.8562 1.33276 27.9417 1.4011 27.8391Z" fill="#F3981C"/>
<path d="M3.10141 22.5708C4.70754 20.8175 6.71521 19.6459 8.97918 18.9446C9.09878 18.9104 9.09021 18.7051 8.95352 18.7222C6.43326 18.936 4.29743 20.3472 2.95614 22.4596C2.90488 22.5451 3.03307 22.6477 3.10141 22.5708Z" fill="#F3981C"/>
<path d="M5.54462 17.1229C7.16784 16.1479 8.94483 15.4808 10.7133 14.8309C10.85 14.7795 10.8073 14.5828 10.6535 14.6085C8.70561 14.9249 7.03115 15.8486 5.49336 17.0459C5.45065 17.0887 5.50191 17.1486 5.54462 17.1229Z" fill="#F3981C"/>
<path d="M33.2504 1.34377C36.0783 3.13121 39.2905 3.75554 41.2128 6.76598C41.2982 6.90281 41.4947 6.81729 41.469 6.66335C41.1102 4.90156 40.367 3.73843 38.9232 2.68649C37.3427 1.52337 35.1214 1.63455 33.3102 1.22403C33.2248 1.19837 33.1821 1.301 33.2504 1.34377Z" fill="#F3981C"/>
</svg>
