<svg width="46" height="46" viewBox="0 0 46 46" fill="none" xmlns="http://www.w3.org/2000/svg">
<path d="M12.5372 1.07005C12.5372 1.07005 12.7594 1.01873 13.1694 1.01018C13.5881 0.993072 14.1946 1.01873 14.9635 1.08715C16.5013 1.22399 18.6884 1.60029 21.1745 2.44698C22.4132 2.8746 23.7289 3.4305 25.0616 4.10614C26.3944 4.79033 27.7357 5.62846 29.0599 6.59488C30.3755 7.55275 31.64 8.67311 32.8531 9.88755C34.0662 11.102 35.1939 12.4276 36.2191 13.8473C37.2529 15.2499 38.2097 16.7123 39.047 18.2261C39.8842 19.7313 40.6787 21.2451 41.3536 22.7418C42.0285 24.247 42.6266 25.718 43.0965 27.1462C43.5578 28.5745 43.9166 29.9514 44.1217 31.2428C44.3096 32.5342 44.3694 33.7316 44.2583 34.7835C44.1387 35.8269 43.8568 36.7164 43.498 37.392C43.404 37.5545 43.3271 37.7255 43.2332 37.8624C43.1392 37.9992 43.0452 38.1361 42.9598 38.2558C42.7804 38.4867 42.601 38.6834 42.4643 38.8373C42.1567 39.1196 41.9944 39.2735 41.9944 39.2735C41.9944 39.2735 42.1738 39.1452 42.5155 38.8972C42.8316 38.6235 43.3186 38.2216 43.7457 37.5459C44.1815 36.8789 44.583 35.9723 44.8051 34.8776C45.0272 33.7829 45.07 32.5171 44.9503 31.1573C44.8307 29.7975 44.5488 28.3436 44.1302 26.8469C43.7116 25.3502 43.1819 23.8023 42.5155 22.2457C41.8577 20.6892 41.123 19.107 40.2601 17.5505C39.4058 15.9939 38.4318 14.4631 37.3725 12.9921C36.296 11.5296 35.1085 10.1527 33.827 8.90402C32.5541 7.64682 31.1786 6.53502 29.7861 5.56004C28.385 4.58507 26.9412 3.7897 25.523 3.13972C24.1048 2.48974 22.7123 2.01081 21.4051 1.65161C18.7909 0.941758 16.5269 0.77071 14.9635 0.796368C14.1775 0.80492 13.5624 0.873339 13.1523 0.933206C12.7508 0.993072 12.5372 1.07005 12.5372 1.07005Z" fill="#F3981C"/>
<path d="M5.57446 4.24289C5.57446 4.24289 5.65989 4.15736 5.82221 4.02052C5.98453 3.88369 6.23229 3.68698 6.57402 3.49883C6.65945 3.45607 6.75342 3.40475 6.8474 3.36199C6.91575 3.32778 7.05244 3.27647 7.15496 3.24226C7.34291 3.18239 7.58212 3.14818 7.82133 3.15673C8.29975 3.18239 8.82944 3.40475 9.35912 3.77251C9.88026 4.14026 10.4099 4.62774 10.9311 5.18365C11.4522 5.74811 11.9734 6.37243 12.503 7.03952C13.5539 8.37369 14.6218 9.87035 15.7068 11.3585C16.7918 12.8466 17.8938 14.3347 18.9788 15.7031C19.5171 16.3873 20.0724 17.0287 20.5935 17.6274C21.1146 18.2346 21.6443 18.7819 22.1398 19.278C23.1309 20.2786 24.0364 21.0227 24.7028 21.5016C25.036 21.7411 25.3094 21.9121 25.4973 22.0233C25.6853 22.1345 25.7878 22.1943 25.7878 22.1943C25.7878 22.1943 25.7024 22.1088 25.5486 21.9549C25.3948 21.8009 25.1812 21.57 24.8993 21.2707C24.3611 20.672 23.6264 19.7911 22.7977 18.6964C22.3876 18.1491 21.9519 17.5418 21.4905 16.909C21.0292 16.2675 20.5593 15.5833 20.0638 14.8735C19.0813 13.4624 18.0391 11.94 16.9455 10.4434C15.852 8.9467 14.7243 7.45858 13.5539 6.14152C12.9644 5.48298 12.3664 4.86721 11.7427 4.32841C11.4351 4.05474 11.119 3.79816 10.8029 3.56725C10.4783 3.33633 10.1536 3.13963 9.82046 2.96858C9.48728 2.79753 9.14554 2.6607 8.80381 2.57517C8.46208 2.48965 8.11181 2.47254 7.78716 2.50675C7.46252 2.54952 7.1806 2.63504 6.9243 2.78043C6.80469 2.84885 6.7278 2.90016 6.61674 2.98569C6.52277 3.05411 6.43733 3.13108 6.36044 3.20805C6.05288 3.49883 5.85639 3.76395 5.73679 3.95211C5.67698 4.04618 5.63426 4.12315 5.60863 4.16592C5.59154 4.21723 5.57446 4.24289 5.57446 4.24289Z" fill="#F3981C"/>
<path d="M17.7657 17.6702L18.2869 17.7899L18.7909 17.9353L19.2865 18.1063C19.4488 18.1662 19.6111 18.2432 19.7734 18.303C20.0895 18.4484 20.3971 18.6109 20.6961 18.782L21.1318 19.0557L21.5504 19.355C21.8238 19.5688 22.0886 19.7826 22.3449 20.0135C22.6012 20.2444 22.849 20.4839 23.0882 20.7319C23.5666 21.228 24.0109 21.7582 24.4466 22.297C24.8823 22.8444 25.2924 23.4088 25.7024 23.9818L26.9583 25.7009C27.8041 26.8554 28.6926 28.01 29.769 29.0448L29.7947 29.0705L29.8459 29.1133C30.1962 29.3869 30.5806 29.806 30.9309 30.2251C31.2897 30.6527 31.64 31.0974 31.9817 31.5507C32.3235 32.0125 32.6652 32.4658 32.9898 32.9362L33.9723 34.3473C34.1432 34.5953 34.2542 34.7749 34.3995 35.04C34.5105 35.2539 34.6216 35.4848 34.7156 35.7328C34.9035 36.2203 35.0146 36.7249 35.0744 37.238C35.1257 37.7512 35.1 38.2729 34.9804 38.7774C34.9206 39.0255 34.8437 39.282 34.7412 39.5215C34.6985 39.6412 34.6387 39.761 34.5789 39.8807L34.5362 39.9662L34.5276 39.9919V40.0004C34.5105 40.0261 34.5447 39.9748 34.5362 39.9833L34.5276 39.9919L34.4934 40.0346C34.4678 40.0774 34.4764 40.0603 34.4678 40.0688C34.4678 40.0774 34.4422 40.0945 34.4336 40.1116C34.3055 40.2313 34.0919 40.3425 33.8527 40.4195C33.6135 40.505 33.3487 40.5563 33.0838 40.5991C32.5456 40.6761 31.9817 40.7017 31.4179 40.6932C30.2902 40.6675 29.1539 40.5307 28.0262 40.2998C26.907 40.0603 25.7964 39.7524 24.7285 39.3248C23.6691 38.8886 22.6354 38.3584 21.7384 37.6058C22.55 38.4353 23.5495 39.0853 24.6004 39.607C25.6512 40.1287 26.7533 40.5478 27.8895 40.8557C29.0258 41.1636 30.1876 41.3945 31.3752 41.4885C31.9732 41.5313 32.5712 41.5399 33.1863 41.48C33.4939 41.4458 33.8014 41.403 34.1175 41.3089C34.4336 41.2149 34.7583 41.0951 35.0744 40.8386C35.1171 40.8044 35.1513 40.7787 35.194 40.7274C35.2282 40.6846 35.288 40.6162 35.3051 40.5991L35.3392 40.5563L35.3734 40.5136L35.3905 40.4879L35.4588 40.3853C35.5443 40.2485 35.6297 40.1116 35.698 39.9748C35.8518 39.6925 35.9629 39.3932 36.0654 39.0853C36.2619 38.4696 36.3473 37.8196 36.3303 37.1781C36.3217 36.5367 36.2021 35.8953 35.9971 35.2881C35.9031 34.9887 35.7749 34.6894 35.6297 34.3815C35.5101 34.1335 35.3307 33.8085 35.1769 33.5776C34.8694 33.073 34.5533 32.577 34.2201 32.0895C33.8954 31.602 33.5537 31.1145 33.2034 30.6441C32.8531 30.1652 32.4858 29.6948 32.1013 29.233C31.6998 28.7712 31.3154 28.3179 30.743 27.8817L30.8199 27.9416C30.5806 27.7107 30.3329 27.4712 30.1022 27.2232C29.8715 26.9752 29.6409 26.7186 29.4102 26.462C28.9574 25.9403 28.5046 25.4015 28.0689 24.8542L26.7276 23.195C26.2663 22.6477 25.7964 22.1003 25.3009 21.57C25.0532 21.3049 24.7969 21.0398 24.5406 20.7918C24.2757 20.5438 24.0023 20.2957 23.7204 20.0563C23.4385 19.8168 23.148 19.5945 22.849 19.3806L22.3962 19.0728L21.9178 18.7905L21.4308 18.534L20.9268 18.303C20.7559 18.2346 20.585 18.1662 20.4142 18.1063C20.2348 18.055 20.0639 17.9952 19.893 17.9524C19.5427 17.8583 19.1839 17.7899 18.8251 17.7386L18.2869 17.6873L17.7657 17.6702Z" fill="#F3981C"/>
<path d="M4.69448 6.29549C-0.0982873 12.5387 8.32536 19.2096 11.324 24.0331C13.2719 27.1633 14.767 30.379 17.6717 32.7737C20.0894 34.7664 23.5665 35.9038 26.6506 36.1176C26.8471 36.1347 26.9155 36.4426 26.7019 36.4768C23.3615 37.0413 20.3884 36.4597 17.4581 34.7664C13.6393 32.5684 11.8537 28.6258 9.74353 24.9653C7.64189 21.3135 4.38692 18.38 3.1396 14.2578C2.3109 11.5295 2.61846 8.35662 4.6603 6.26128C4.67739 6.23563 4.71157 6.26984 4.69448 6.29549Z" fill="#F3981C"/>
<path d="M2.91755 7.94619C-1.72998 18.9702 4.50659 30.1225 11.1191 38.7861C11.1789 38.8716 11.0422 38.9742 10.9738 38.8973C3.45577 30.7725 -2.87478 18.8248 2.87483 7.92909C2.89192 7.89488 2.92609 7.92053 2.91755 7.94619Z" fill="#F3981C"/>
<path d="M41.5502 40.9584C36.6378 46.5517 28.7609 46.6286 22.0459 44.9267C15.1173 43.1649 8.78678 38.5723 5.8479 31.9528C5.81372 31.8758 5.91624 31.8074 5.9675 31.8843C12.5458 43.0281 30.5892 49.3226 41.4989 40.8985C41.5416 40.8558 41.5843 40.9242 41.5502 40.9584Z" fill="#F3981C"/>
<path d="M16.2108 3.02854C17.6717 6.65475 19.6196 10.0671 22.0715 13.1118C23.2419 14.5657 24.5576 15.8828 25.9416 17.1229C26.1808 17.3367 27.411 18.6794 27.7955 18.3202C28.2226 17.9182 28.5558 17.9695 29.0769 18.0038C29.2564 18.0209 29.3845 18.2945 29.1795 18.3886C28.701 18.5682 28.2653 18.8333 27.8638 19.1583C27.7186 19.2866 27.5392 19.2866 27.3939 19.1669C22.174 14.9677 18.1758 9.44283 16.1595 3.02854C16.1595 3.01144 16.2023 2.99433 16.2108 3.02854Z" fill="#F3981C"/>
<path d="M28.2995 19.5345C28.1885 20.5523 28.0005 21.2706 29.0086 21.8608C29.5383 22.1686 30.0082 22.5364 30.4866 22.9042C31.8621 23.9732 33.0667 25.2475 34.1688 26.5988C36.0824 28.9421 37.8338 31.944 38.3293 34.963C38.3549 35.0998 38.1414 35.2196 38.0816 35.0656C37.0051 32.5341 36.0568 30.1138 34.4592 27.8474C32.6908 25.333 30.3328 23.3574 27.8297 21.5956C27.7613 21.5443 27.7271 21.4845 27.7442 21.3989C27.8809 20.7746 28.0262 20.1417 28.1628 19.5174C28.1799 19.4404 28.3081 19.4575 28.2995 19.5345Z" fill="#F3981C"/>
<path d="M4.36137 18.7307C2.84068 20.2189 2.52457 22.6221 2.79796 24.6319C2.82359 24.8029 2.59292 24.8713 2.53312 24.7003C1.65316 22.4254 2.6869 20.2702 4.33575 18.6965C4.35283 18.6965 4.37846 18.7222 4.36137 18.7307Z" fill="#F3981C"/>
<path d="M6.48863 21.7582C5.0021 24.1529 4.72872 26.8383 4.67746 29.5922C4.67746 29.7803 4.42117 29.806 4.36137 29.6349C3.33617 26.8298 4.45533 23.8193 6.34339 21.647C6.41174 21.57 6.53989 21.6641 6.48863 21.7582Z" fill="#F3981C"/>
<path d="M8.9235 24.5977C7.54803 27.8561 7.67618 31.1573 8.12043 34.5783C8.14606 34.775 7.86414 34.775 7.80433 34.621C6.42887 31.3284 7.06106 27.5397 8.76971 24.5036C8.82951 24.4009 8.97476 24.495 8.9235 24.5977Z" fill="#F3981C"/>
<path d="M12.4432 29.0277C10.914 32.7565 11.6999 36.7505 13.588 40.18C13.6649 40.3083 13.4855 40.4708 13.3744 40.3511C10.5039 37.238 10.3416 32.5855 12.3236 28.9593C12.3663 28.8823 12.4688 28.9507 12.4432 29.0277Z" fill="#F3981C"/>
<path d="M15.8692 33.4151C16.6466 37.2808 18.6201 40.6419 20.9011 43.8063C21.0122 43.9602 20.7815 44.1141 20.6534 44.003C17.5009 41.3688 15.9717 37.4689 15.741 33.4322C15.7325 33.3553 15.8606 33.3381 15.8692 33.4151Z" fill="#F3981C"/>
<path d="M20.6705 36.4255C21.9776 39.7267 24.0963 42.378 26.7704 44.67C26.907 44.7897 26.7362 45.0206 26.5824 44.9266C23.4385 43.0878 21.371 39.9747 20.5423 36.4597C20.5167 36.3742 20.6448 36.3485 20.6705 36.4255Z" fill="#F3981C"/>
<path d="M25.6256 40.9839C26.7277 42.5832 28.1971 43.8575 29.7349 45.0292C29.863 45.1318 29.7007 45.3114 29.5726 45.2516C27.693 44.3963 26.4372 42.8655 25.506 41.0524C25.4718 40.9754 25.5743 40.907 25.6256 40.9839Z" fill="#F3981C"/>
<path d="M2.14014 13.2571C5.72831 24.3154 11.7684 35.6644 23.5154 39.4873C23.6264 39.5215 23.5837 39.6925 23.4727 39.6669C11.3583 37.1952 4.78855 24.2213 2.11451 13.2657C2.10597 13.2486 2.1316 13.24 2.14014 13.2571Z" fill="#F3981C"/>
<path d="M1.37976 16.4901C4.72871 26.4964 9.76923 35.9724 19.5085 40.9072C19.6282 40.967 19.5513 41.1637 19.4231 41.121C9.43604 37.777 3.56683 26.0773 1.33704 16.4987C1.33704 16.473 1.37121 16.4644 1.37976 16.4901Z" fill="#F3981C"/>
<path d="M27.6161 21.3563C28.795 22.699 30.5037 25.4186 29.393 27.2146C29.3247 27.3258 29.1453 27.3515 29.077 27.2146C28.6412 26.4022 28.7438 25.4871 28.5729 24.5976C28.3593 23.4858 28.0518 22.4253 27.5477 21.4161C27.5221 21.3648 27.5819 21.3135 27.6161 21.3563Z" fill="#F3981C"/>
<path d="M29.7434 22.7675C30.9394 24.1444 32.0757 26.5648 30.9394 28.2838C30.8625 28.4035 30.6319 28.4121 30.5977 28.241C30.4525 27.3772 30.5892 26.5306 30.4696 25.6497C30.3243 24.6319 30.1278 23.7596 29.6323 22.8445C29.5981 22.7846 29.6921 22.7076 29.7434 22.7675Z" fill="#F3981C"/>
<path d="M31.563 24.2642C32.5712 25.701 33.5451 28.2239 32.3832 29.8318C32.2721 29.9857 32.0586 29.9344 32.0415 29.7463C31.9646 28.9252 32.1184 28.0871 32.1269 27.2661C32.144 26.2569 31.845 25.2648 31.4093 24.3583C31.3495 24.2471 31.4947 24.1701 31.563 24.2642Z" fill="#F3981C"/>
<path d="M33.3401 26.5646C34.4337 28.3179 35.4845 31.277 33.998 33.0901C33.904 33.2098 33.6733 33.15 33.6477 32.996C33.4768 32.0125 33.716 31.0803 33.7075 30.0797C33.6904 28.8909 33.5623 27.762 33.1778 26.633C33.1351 26.539 33.2889 26.4791 33.3401 26.5646Z" fill="#F3981C"/>
<path d="M35.6383 28.8397C36.0911 30.1226 36.3901 31.4397 36.484 32.7995C36.5524 33.7745 36.5524 35.331 35.9202 36.1178C35.8177 36.2461 35.6126 36.1691 35.5699 36.0323C35.288 35.0402 35.7237 33.8429 35.7408 32.808C35.7664 31.4653 35.7664 30.1996 35.5357 28.8654C35.5443 28.8055 35.6212 28.7799 35.6383 28.8397Z" fill="#F3981C"/>
<path d="M37.2528 32.5684C37.868 33.5006 38.167 34.6124 37.9961 35.7242C37.8423 36.7334 37.3212 38.0248 36.2789 38.307C36.1251 38.3498 35.9372 38.1958 35.997 38.0248C36.2874 37.2038 36.894 36.6051 37.1674 35.7498C37.492 34.715 37.5348 33.6289 37.1759 32.594C37.1503 32.5513 37.2272 32.5256 37.2528 32.5684Z" fill="#F3981C"/>
<path d="M26.0185 18.0209C26.3517 18.5853 26.5055 19.2011 26.4969 19.8511C26.4884 20.3471 26.3005 21.3221 25.7281 21.4504C25.5999 21.476 25.5145 21.3905 25.4974 21.2708C25.4718 21.0484 25.5572 20.9287 25.6597 20.732C25.7964 20.4839 25.8733 20.2017 25.9587 19.9366C26.1467 19.3208 26.0954 18.6623 25.8818 18.0722C25.8733 17.9952 25.9844 17.9524 26.0185 18.0209Z" fill="#F3981C"/>
<path d="M25.019 16.8749C25.3095 17.371 25.4205 17.9183 25.3693 18.4913C25.3265 18.9189 25.1471 19.7571 24.6345 19.8426C24.5491 19.8597 24.4551 19.8084 24.4637 19.7058C24.4637 19.5689 24.4893 19.4577 24.5833 19.338C24.7712 19.1071 24.8908 18.8505 24.9848 18.5597C25.1471 18.038 25.0873 17.465 24.8737 16.9604C24.8139 16.8664 24.9592 16.7723 25.019 16.8749Z" fill="#F3981C"/>
<path d="M24.1134 16.3789C24.1817 16.7723 24.1817 17.1657 24.1219 17.5591C24.0877 17.7558 24.045 17.9867 23.951 18.1578C23.8571 18.3288 23.6776 18.4485 23.5239 18.5597C23.3786 18.6623 23.1736 18.4913 23.2163 18.3288C23.259 18.192 23.2761 18.0466 23.3274 17.9097C23.3872 17.7472 23.5068 17.5933 23.5837 17.4394C23.746 17.1229 23.8229 16.7637 23.8485 16.4131C23.8571 16.2677 24.0877 16.2164 24.1134 16.3789Z" fill="#F3981C"/>
<path d="M22.7977 14.8736C23.0284 15.4979 23.0113 16.0709 22.8319 16.7038C22.6866 17.2255 22.4218 17.9866 21.8323 18.0807C21.7127 18.0978 21.5589 18.0294 21.5675 17.884C21.5931 17.388 21.9946 17.0459 22.1911 16.5926C22.4133 16.088 22.4987 15.4466 22.5158 14.9078C22.5329 14.7453 22.7464 14.7282 22.7977 14.8736Z" fill="#F3981C"/>
<path d="M21.465 13.163C21.9178 13.3255 21.8409 14.1979 21.7982 14.5656C21.7298 15.1301 21.4821 15.8314 20.884 16.0281C20.7473 16.0708 20.6277 15.934 20.6619 15.8057C20.7644 15.3524 21.0891 14.9419 21.2258 14.4886C21.3112 14.2235 21.3283 13.9413 21.3197 13.6676C21.3112 13.4795 21.277 13.3341 21.3966 13.1801C21.4137 13.163 21.4479 13.1545 21.465 13.163Z" fill="#F3981C"/>
<path d="M20.192 10.9139C20.3628 11.4869 20.4226 12.0514 20.3884 12.6415C20.3628 13.1547 20.2774 13.8474 19.9271 14.2408C19.8246 14.352 19.6708 14.2323 19.6964 14.1125C19.7733 13.6592 20.0296 13.2316 20.1236 12.7698C20.2518 12.1711 20.2261 11.5383 20.1065 10.9396C20.0894 10.8797 20.1749 10.8626 20.192 10.9139Z" fill="#F3981C"/>
<path d="M19.4231 9.74205C19.611 10.4177 19.705 11.1104 19.6794 11.8117C19.6623 12.342 19.5 13.1545 19.107 13.5393C19.0215 13.6248 18.8763 13.565 18.8678 13.4452C18.8421 12.8979 19.1412 12.3078 19.218 11.7519C19.3206 11.0762 19.4145 10.4348 19.3633 9.75061C19.3804 9.72495 19.4145 9.7164 19.4231 9.74205Z" fill="#F3981C"/>
<path d="M18.7567 8.54492C19.0045 9.92186 19.1241 11.7606 18.2527 12.9494C18.1843 13.0435 17.9793 13.0349 17.9964 12.881C18.0818 12.2053 18.3125 11.581 18.4663 10.9225C18.6542 10.1528 18.6969 9.34885 18.6627 8.56203C18.6627 8.50216 18.7482 8.49361 18.7567 8.54492Z" fill="#F3981C"/>
<path d="M17.9964 6.98836C18.21 8.25411 18.2954 9.86196 17.4325 10.9139C17.3556 11.008 17.1848 10.9396 17.1933 10.8198C17.3129 9.52842 17.8426 8.33108 17.8597 7.00546C17.8682 6.92849 17.9878 6.91139 17.9964 6.98836Z" fill="#F3981C"/>
<path d="M17.5693 5.88506C17.7487 6.63767 17.8256 7.41594 17.723 8.1942C17.6205 8.94681 17.4753 9.87902 16.8174 10.358C16.7491 10.4093 16.638 10.3409 16.6466 10.2553C16.7149 9.57969 17.125 8.95537 17.3215 8.29683C17.5522 7.51857 17.5778 6.69754 17.4924 5.89361C17.4753 5.8423 17.5607 5.83375 17.5693 5.88506Z" fill="#F3981C"/>
<path d="M17.2873 4.62784C17.3044 5.94491 17.3044 7.65538 16.6466 8.82706C16.5782 8.94679 16.3817 8.90403 16.3903 8.75864C16.433 8.15142 16.6295 7.58696 16.7577 6.99685C16.9285 6.21858 17.014 5.42321 17.0567 4.62784C17.0652 4.48245 17.2873 4.48245 17.2873 4.62784Z" fill="#F3981C"/>
<path d="M16.322 3.80686C16.6381 5.26932 16.8602 7.39886 15.8435 8.65606C15.7666 8.75014 15.5958 8.67317 15.6043 8.56199C15.647 7.84359 15.929 7.10808 16.0913 6.40679C16.2878 5.5601 16.3305 4.67921 16.2707 3.81542C16.2707 3.78121 16.3134 3.78121 16.322 3.80686Z" fill="#F3981C"/>
<path d="M15.8948 3.25957C16.0827 4.01218 16.0742 4.75624 15.8862 5.5003C15.7325 6.10751 15.3822 6.91999 14.75 7.14235C14.6731 7.16801 14.5877 7.08249 14.6047 7.00551C14.7671 6.47527 15.2028 6.01344 15.4505 5.50885C15.7923 4.81611 15.8862 4.02074 15.8008 3.26813C15.7923 3.21681 15.8777 3.20826 15.8948 3.25957Z" fill="#F3981C"/>
<path d="M16.433 3.49035C16.2707 4.89294 15.2369 6.41527 13.7333 6.47513C13.5796 6.48369 13.5027 6.24422 13.6479 6.1758C14.8867 5.58569 15.9375 4.91005 16.2536 3.47325C16.2792 3.37062 16.4501 3.38772 16.433 3.49035Z" fill="#F3981C"/>
<path d="M16.9456 8.24555C19.295 12.3935 22.4132 15.7631 25.7878 19.0729C25.8391 19.1242 25.7708 19.2268 25.7024 19.184C21.8323 16.4558 18.9618 12.4875 16.8687 8.29686C16.8431 8.237 16.9199 8.19424 16.9456 8.24555Z" fill="#F3981C"/>
<path d="M16.1938 5.34632C17.1336 7.15088 18.2186 8.89556 19.3634 10.5718C19.4488 10.7001 19.2523 10.8541 19.1498 10.7429C17.706 9.16924 16.7406 7.42455 16.1084 5.38908C16.0999 5.32922 16.1682 5.29501 16.1938 5.34632Z" fill="#F3981C"/>
<path d="M16.3732 2.01933C16.2963 3.11404 15.8093 3.88375 14.9038 4.49097C14.1861 4.96991 12.8107 5.40608 12.2639 4.47387C12.1955 4.35413 12.2041 4.18309 12.3066 4.08901C12.7765 3.66139 13.4172 3.70415 13.9982 3.55876C14.8098 3.35351 15.647 2.64366 16.0656 1.94236C16.1511 1.81408 16.3903 1.84829 16.3732 2.01933Z" fill="#F3981C"/>
<path d="M35.2452 14.8308C38.5685 18.8248 40.6018 23.4687 41.7893 28.5147C42.6693 32.2691 43.5151 38.3242 39.6279 40.7446C39.4997 40.8215 39.3118 40.659 39.4057 40.5307C40.6701 38.692 41.533 36.9473 41.721 34.6809C41.9175 32.2777 41.3365 29.7975 40.7641 27.4798C39.6535 23.0411 37.5348 18.7991 35.1427 14.9164C35.0999 14.8479 35.1939 14.771 35.2452 14.8308Z" fill="#F3981C"/>
<path d="M43.9935 35.5618C43.0452 32.6882 41.0204 31.2001 38.2609 30.2679C38.0644 30.1995 38.0901 29.9087 38.3036 29.9087C41.2938 29.9002 43.8055 32.7053 44.1301 35.5447C44.1387 35.6217 44.0191 35.6303 43.9935 35.5618Z" fill="#F3981C"/>
<path d="M44.8222 33.0304C44.0789 30.516 42.4728 28.5917 40.3882 27.0522C40.2772 26.9667 40.3284 26.7358 40.4907 26.7957C43.1306 27.7878 44.7026 30.2594 44.9076 33.0133C44.9161 33.0731 44.8393 33.0817 44.8222 33.0304Z" fill="#F3981C"/>
<path d="M43.8825 27.8391C42.2678 25.376 40.0295 23.6484 37.3811 22.4169C37.2358 22.3485 37.3384 22.1347 37.4836 22.1603C40.5164 22.7932 42.8487 24.9227 44.0363 27.745C44.0875 27.8562 43.9508 27.9417 43.8825 27.8391Z" fill="#F3981C"/>
<path d="M42.1823 22.5708C40.5762 20.8175 38.5685 19.6459 36.3045 18.9446C36.1849 18.9104 36.1935 18.7051 36.3302 18.7222C38.8504 18.936 40.9862 20.3472 42.3275 22.4596C42.3788 22.5451 42.2506 22.6477 42.1823 22.5708Z" fill="#F3981C"/>
<path d="M39.739 17.1229C38.1158 16.1479 36.3388 15.4808 34.5703 14.8309C34.4336 14.7795 34.4849 14.5828 34.6301 14.6085C36.578 14.9249 38.2525 15.8486 39.7902 17.0459C39.8415 17.0887 39.7902 17.1486 39.739 17.1229Z" fill="#F3981C"/>
<path d="M12.0417 1.34377C9.21388 3.13121 6.00162 3.75554 4.07939 6.76598C3.99395 6.90281 3.79746 6.81729 3.82309 6.66335C4.1819 4.90156 4.92516 3.73843 6.36897 2.68649C7.94948 1.52337 10.1707 1.63455 11.9819 1.22403C12.0588 1.19837 12.1015 1.301 12.0417 1.34377Z" fill="#F3981C"/>
</svg>
