<svg width="329" height="322" viewBox="0 0 329 322" fill="none" xmlns="http://www.w3.org/2000/svg">
<path d="M252.6 162.25L252.43 162.33C253.1 164.76 254.24 166.92 255.68 168.89C255.87 168.26 256.05 167.63 256.23 167C254.98 165.44 253.77 163.86 252.6 162.25Z" fill="#1F644D"/>
<path d="M245.25 184.45L245.09 184.55C245.96 186.42 246.76 188.3 247.62 190.18C247.84 189.67 248.05 189.16 248.27 188.64C247.33 187.22 246.34 185.81 245.25 184.45Z" fill="#1F644D"/>
<path d="M226.91 321.87C227.86 321.34 232.11 318.83 234.82 315.55C235.12 315.18 235.41 314.77 235.68 314.34C234.46 315.12 233.25 315.92 232.11 316.82C230.48 318.64 228.87 320.4 226.91 321.87Z" fill="#1F644D"/>
<path d="M182.3 234.66C182.3 234.66 181.76 234.72 180.97 234.78C180.46 235.73 179.93 236.72 179.4 237.79C177.6 241.38 176.24 245.2 174.9 249.03C175.27 249 175.63 248.96 176.01 248.95L182.3 234.66Z" fill="#1F644D"/>
<path d="M228.25 180.56C228.49 180.3 228.74 180.08 229 179.89C228.98 179.13 229.08 178.66 229.08 178.66L231.34 168.39C230.48 169.74 229.86 170.87 229.65 171.5C228.71 174.32 225.76 183.26 228.25 180.56Z" fill="#1F644D"/>
<path d="M229.76 162.73C228.82 166.56 228.54 168.97 229.48 166.1C230.07 164.31 232.31 161.7 234.68 159.28C235.23 158.23 235.63 157.54 235.63 157.54L230.24 162.67C230.09 162.72 229.92 162.73 229.76 162.73Z" fill="#1F644D"/>
<path d="M245.07 288.36C245.07 288.36 245.53 287.59 246.2 286.23L243.92 285.83L246.22 283.09L244.84 281.55L242.99 283.82C244.17 286.37 245.07 288.36 245.07 288.36Z" fill="#1F644D"/>
<path d="M122.93 257.72C123.34 256.72 123.87 255.75 124.51 254.88C119.49 256.97 114.51 259.13 109.69 261.59C109.26 262.2 108.86 262.83 108.53 263.25C106.95 265.68 104.91 267.75 103.07 269.97C101.18 272.54 100.05 275.7 99.11 278.69C98.75 280.36 98.29 282.01 97.59 283.57C104.04 282.78 111.42 282.91 119.34 282.75C120.16 280.08 120.69 277.28 121.24 274.56C122.29 268.97 120.57 263.1 122.93 257.72Z" fill="#1F644D"/>
<path d="M114.14 240.75C119.72 241.68 125.34 240.72 130.96 241.03C133.64 241.25 136.18 242.16 138.64 243.04C140.21 243.6 141.74 244.23 143.28 244.85C149.43 242.17 155.49 239.32 161.33 236.05C156.21 236.05 151.45 233.61 147.29 230.8C144.16 228.94 140.69 227.67 137.51 225.92C133.61 223.97 129.89 221.87 125.96 220.02C118.64 222.92 113.43 226.69 112.29 230.11C111.2 233.42 108.29 234.66 104.12 235.32C104.78 235.7 105.44 236.1 106.09 236.5C108.6 238.22 111.07 240.21 114.14 240.75Z" fill="#1F644D"/>
<path d="M112.95 258.11C122.64 253.38 132.7 249.45 142.56 245.17C138.63 244.38 134.82 243.16 130.92 242.95C129.42 242.97 127.81 243.04 126.32 243.03C124.26 243.03 122.19 242.98 120.1 242.87C115.86 242.52 112.03 240.67 108.06 239.27C105.74 238.36 103.64 237.08 101.63 235.66C98.5201 235.99 94.8801 236.19 90.8701 236.69C82.1401 237.78 75.62 242.97 70.54 253.21C75.31 251.72 80.43 251.82 85.32 252.81C94.74 253.58 103.96 255.17 112.95 258.11Z" fill="#1F644D"/>
<path d="M87.3101 274.58C83.7701 274.3 80.4001 273.83 76.9301 273.22C74.4101 272.9 71.8701 272.11 69.3001 272.31C66.2101 272.79 63.1801 273.48 60.0301 273.55C53.5801 279.61 45.8601 279.71 45.8601 279.71C45.8601 279.71 41.6001 279.19 42.0701 281.12C52.7501 285.38 65 285.39 75.59 281.16C79.78 279.46 83.6101 277.13 87.3101 274.58Z" fill="#1F644D"/>
<path d="M87.8901 274.19C94.4601 269.61 100.67 264.37 107.8 260.72C109.25 259.95 110.71 259.21 112.18 258.48C106.84 258.3 101.62 257.27 96.48 255.92C92.75 255.07 89.1101 253.67 85.2701 253.43C80.5101 253.36 75.79 253.9 71.04 254.12C70.71 254.15 70.3901 254.18 70.0601 254.2C68.8501 256.76 67.7301 259.62 66.6801 262.8C65.4001 266.67 63.5901 269.65 61.5801 271.95C64.0901 271.36 66.73 271.38 69.3 271.69C75.65 271.33 82.1201 270.98 87.8901 274.19Z" fill="#1F644D"/>
<path d="M95.45 283.87C96.14 282 96.65 280.06 97.33 278.18C98.39 274.92 100.9 272.53 102.53 269.62C103.63 267.44 104.89 265.21 106.48 263.31C104.41 264.45 102.37 265.65 100.38 266.95C92.4001 272.23 85.06 278.63 75.97 282.1C65.36 286.08 52.3801 286.03 42.1901 281.43C42.4601 282.05 43.1501 282.87 44.4601 283.98C50.6201 289.17 71.9 293.84 86.07 286.71C88.86 285.3 92.01 284.43 95.45 283.87Z" fill="#1F644D"/>
<path d="M75.5501 205.52C77.7901 201.97 78.61 197.88 78.96 193.75C79.98 187.63 80.59 181.32 82.72 175.4C82.98 174.78 83.2901 174.15 83.6301 173.55C77.8301 176.1 71.9701 178.8 66.1801 181.55C64.8101 183.64 63.5001 185.72 62.1801 187.82C60.7601 189.88 59.3301 192.01 58.5601 194.43C57.2001 199.4 56.24 204.51 55.35 209.63C61.45 210.66 67.1801 211.02 72.4001 210.54C73.6201 209.05 74.5701 207.32 75.5501 205.52Z" fill="#1F644D"/>
<path d="M63.5901 182.78C58.1301 185.39 52.74 188.01 47.55 190.56C47.28 190.69 47.0101 190.82 46.7401 190.94C45.9601 193.22 44.6701 195.24 42.9601 196.94C41.7401 198.31 39.98 199.16 38.79 200.55C37.82 201.96 36.8801 203.33 35.8301 204.63C39.0901 205.68 43.2801 207.07 49.3201 208.44C50.7601 208.77 52.1801 209.05 53.5901 209.32C53.8901 204.91 55.1 200.54 56.91 196.54C59.27 191.98 60.1201 186.7 63.5901 182.78Z" fill="#1F644D"/>
<path d="M34.35 204.15C35.21 202.45 36.72 201.12 38.35 200.11C40.31 198.26 41.4001 195.67 43.1301 193.62C43.6001 193.06 44.0801 192.5 44.5801 191.95C34.6501 196.45 23.93 199.63 12.97 199.44C9.73003 199.43 6.51007 199.11 3.32007 198.64C5.33007 200.23 15.5201 207.81 22.3101 204.4C26.7401 202.16 29.45 202.62 34.35 204.15Z" fill="#1F644D"/>
<path d="M112.41 180.89C112.51 177.56 111.75 174.26 111.8 170.9C111.89 167.86 111.77 164.33 113.55 161.7C109.77 162.92 106 164.22 102.33 165.66C100.73 170.58 99.5 175.34 98.6 180.4C97.95 186.26 99.6501 192.57 98.0201 198.26C100.37 197.38 102.66 197.37 111.05 193.15C111.83 192.76 112.58 192.31 113.31 191.84C112.99 189.91 112.57 187.97 112.47 186.01C112.38 184.3 112.39 182.59 112.41 180.89Z" fill="#1F644D"/>
<path d="M90.48 203.49C92.76 201.54 94.3001 200.34 95.5201 199.55C95.8501 198.53 96.11 197.49 96.33 196.43C97.36 191.17 97.88 185.73 97.82 180.34C97.48 175.31 98.7601 170.14 101.56 165.95C99.7901 166.66 98.04 167.39 96.34 168.18C92.64 169.67 88.8601 171.26 85.0601 172.92C84.6201 173.85 84.3001 174.84 84.0401 175.84C83.0001 179.84 82.89 183.95 81.83 188.01C80.39 194.07 78.5701 200.04 76.7601 206.04C76.3701 207.49 75.66 208.96 74.71 210.25C80.78 209.36 86.11 207.22 90.48 203.49Z" fill="#1F644D"/>
<path d="M159.58 273.94C160.07 270.55 159.87 267.06 159.84 263.61C159.97 259.88 159.61 256.14 159.34 252.42C159.14 247.37 160.32 242.47 161.24 237.57C155.74 240.89 149.89 243.78 144.24 246.45C143.3 251.01 141.84 255.37 140.13 259.65C138.36 265.21 138.74 271.18 138.77 276.94C138.79 278.36 138.84 279.8 138.89 281.23C141.84 280.75 144.82 280.13 147.81 279.31C152.63 277.98 156.45 276.14 159.58 273.94Z" fill="#1F644D"/>
<path d="M137.88 266.1C138.26 264.56 138.82 262.37 139.14 260.8C139.7 257.21 140.28 253.58 141.82 250.25C142.3 249.07 142.87 247.93 143.49 246.81C137.67 249.52 131.71 251.9 125.79 254.35C123.56 258.93 123.19 264.04 122.32 269.02C122.14 270.88 122.12 272.74 122.16 274.63C122.25 277.16 122.02 279.99 121.35 282.71C126.48 282.57 131.82 282.26 137.28 281.48C136.44 276.37 136.53 271.11 137.88 266.1Z" fill="#1F644D"/>
<path d="M165.26 89.11C165.75 91.53 167.16 93.67 168.09 95.92C169.61 99.14 170.88 102.31 171.99 105.74C173.32 100.6 175.09 95.57 177.25 90.72C174.46 86.59 173.19 81.73 172.51 76.86C171.84 73.56 170.51 70.42 169.94 67.09C169.29 63.88 168.96 60.58 169.06 57.3C163.78 66.56 165.35 71.99 163.83 80.01C164.63 83 164.93 86.03 165.26 89.11Z" fill="#1F644D"/>
<path d="M126.1 117.02C124.09 110.76 123.41 104.21 123.38 97.66C123.14 93.05 122.29 88.47 122.36 83.83C122.36 80.85 122.59 77.82 123.11 74.84C121.19 72.35 119.32 70.38 117.67 69.37C114.77 67.57 110.9 64.44 106.63 60.62C106.83 63.86 106.8 67.1 106.1 70.33C104.86 75.7 105.66 80.83 107.39 85.99C108.74 90.59 110.39 95.17 111.72 99.88C116.86 105.31 121.39 111.25 126.1 117.02Z" fill="#1F644D"/>
<path d="M69.0801 57.77C69.3401 61.99 70.74 65.91 72.19 69.83C72.8 71.5 73.5701 73.1101 74.2501 74.8C79.0701 77.41 83.8301 80.1201 88.5301 82.9301C86.7301 77.6701 86.0601 72.1101 85.9901 66.55C85.7301 62.18 84.9 57.8399 84.95 53.4399C84.91 49.1499 85.3401 44.83 86.2701 40.63C81.3501 35.62 73.1301 32.9301 64.7501 31.5601C67.9001 37.6501 69.7501 44.49 69.2601 51.36C69.1601 53.53 68.9601 55.66 69.0801 57.77Z" fill="#1F644D"/>
<path d="M104.51 70.1801C104.68 67.4401 104.97 65.01 104.69 62.3C104.63 61.13 104.54 59.9 104.45 58.65C98.99 53.64 93.0601 47.73 87.6801 42.11C87.0401 49.15 86.41 56.15 86.34 63.26C86.5 68.71 88.37 73.9 88.97 79.3C89.19 80.72 89.3901 82.1399 89.5601 83.5699C94.1901 86.3599 98.7601 89.25 103.29 92.25C105.93 94.19 108.31 96.4 110.56 98.71C107.96 93.56 105.65 88.14 105.24 82.36C105.18 78.27 104.3 74.2801 104.51 70.1801Z" fill="#1F644D"/>
<path d="M39.7401 188.29C36.43 187.43 33.5401 185.44 30.4301 184.15C27.9301 183.43 25.53 182.58 23.16 181.61C20.79 188 16.07 195.44 9.67004 194.97C3.09004 194.48 2.96008 198.06 2.96008 198.32C20.5701 200.44 33.3001 196.11 47.7801 189.08C45.0801 189.31 42.34 189.04 39.7401 188.29Z" fill="#1F644D"/>
<path d="M49.7801 58.75C50.0101 59.58 50.2401 60.4 50.4601 61.23C55.4101 64.64 60.54 67.78 65.97 70.44C68.41 71.69 70.8201 72.9701 73.2301 74.2601C71.0401 71.2901 69.3301 67.9201 68.6701 64.2801C68.3501 62.1201 68.4001 59.9401 68.4601 57.7801C68.6001 53.0201 67.9601 48.2901 66.9801 43.6501C66.5601 42.2001 66.2101 40.56 65.7301 39.12C65.0301 36.51 64.1401 33.94 63.2601 31.34C57.6201 30.52 52.0001 30.2701 47.3601 30.2801C47.3801 35.2101 47.0901 41.12 46.9201 45.58C46.5401 50.21 48.8001 54.36 49.7801 58.75Z" fill="#1F644D"/>
<path d="M34.7801 47.1801C35.1001 48.0701 35.3801 48.97 35.5901 49.92C39.8901 53.45 44.2801 56.87 48.8101 60.08C47.9801 58.41 47.3601 56.6301 47.0201 54.8101C46.6801 51.7301 46.5901 48.7 45.8701 45.67C44.9101 40.61 44.9301 35.3 46.2401 30.3C43.5501 30.33 41.2301 30.45 39.5201 30.59C36.3601 30.85 32.5701 30.48 28.5701 29.79C29.1901 32.46 29.7601 35.1301 30.3701 37.8101C30.9201 41.3601 33.7401 43.8301 34.7801 47.1801Z" fill="#1F644D"/>
<path d="M187.1 44.13C188.88 48.3 190.98 52.3 192.58 56.55C192.77 57 192.96 57.45 193.14 57.9C196.72 48.64 199.21 38.96 200.54 29.17C201.67 19.63 202.05 8.58003 195.95 0.660034C195.13 0.880034 194.84 1.63997 195.57 3.08997C197.89 7.70997 193.61 18.54 188.16 21.28C186.68 22.03 185.35 23.11 184.16 24.38C184.45 27.39 184.77 30.3901 185.12 33.4301C185.67 37.0101 185.87 40.7 187.1 44.13Z" fill="#1F644D"/>
<path d="M182.47 59.6C183.24 63.66 185.78 67.16 185.97 71.35C186.02 71.97 186.04 72.59 186.04 73.21C188.28 68.92 190.44 64.61 192.26 60.15C192.47 59.63 192.67 59.0999 192.88 58.5699C189.45 54.5099 187.6 49.4699 186.51 44.3199C185.55 40.7799 184.03 37.38 183.35 33.75C182.84 31.38 182.53 28.94 182.44 26.49C180.19 29.59 178.61 33.25 177.69 36.03C176.6 39.34 177.29 41.36 175.1 46.52C178.77 50.03 181.22 54.7 182.47 59.6Z" fill="#1F644D"/>
<path d="M176.43 86.12C176.81 87.46 177.18 88.81 177.47 90.2C177.63 89.85 177.77 89.49 177.94 89.14C180.23 84.16 182.82 79.34 185.36 74.51C184.62 72.28 184.06 69.9999 183.65 67.6899C183.4 65.6999 183.22 63.65 182.39 61.79C179.93 56.86 177.14 52.27 174.75 47.29C173.81 49.35 172.44 51.88 170.36 55.13C171.43 62.36 171.62 69.93 173.1 76.7C174.18 79.86 175.64 82.86 176.43 86.12Z" fill="#1F644D"/>
<path d="M33.85 48.49C32.43 46.32 31.56 43.85 30.92 41.33C29.57 38.09 27.4501 35.1201 26.9001 31.5601C26.7801 30.8601 26.71 30.15 26.67 29.44C19.38 28 11.67 25.59 6.10004 23.74C2.46004 22.54 0.960037 22.8401 0.600037 23.9201C10.37 31.6201 20.9401 38.2501 30.7801 45.9301C31.8001 46.7901 32.83 47.64 33.85 48.49Z" fill="#1F644D"/>
<path d="M44.7401 173.41C51.3501 175.57 57.7401 178.91 64.5301 180.57C70.8101 177.45 77.1401 174.4 83.5601 171.55C79.3101 171.78 75.01 171.19 70.97 169.84C67.54 168.81 64.4701 166.89 61.1901 165.5C57.8801 164.22 54.5201 162.93 51.6501 160.78C50.9201 160.27 50.2001 159.74 49.5001 159.18C48.3001 159.53 47.0301 159.89 45.6201 160.3C38.8001 162.28 34.2001 164.99 31.0001 167.97C32.2901 168.22 33.5701 168.59 34.7801 169.06C38.1001 170.58 41.2401 172.34 44.7401 173.41Z" fill="#1F644D"/>
<path d="M63.86 166.03C70.82 168.34 78.1501 169.48 85.3901 170.76C91.5301 168.07 97.75 165.56 104.09 163.35C107.01 162.39 109.96 161.52 112.92 160.68C109.74 159.29 106.65 157.9 103.46 156.92C98.12 155.2 92.16 154.2 86.95 151.71C83.01 150.21 79.6301 147.77 76.4301 145.1C74.7701 146.15 73.29 147.27 71.97 148.38C64.34 154.76 62.1801 155.54 50.9401 158.78C53.0101 159.79 55.0201 160.91 57.0001 162.12C59.1801 163.59 61.35 165.14 63.86 166.03Z" fill="#1F644D"/>
<path d="M49.1401 188.42C53.5201 186.26 58.0801 183.87 62.9901 181.34C63.2801 181.2 63.56 181.06 63.85 180.91C54.86 181.35 47.3301 175.46 39.4601 172.01C36.1801 171.06 32.96 170.1 29.67 169.32C26.33 172.93 24.79 176.81 23.67 180.17C24.89 180.49 26.0801 180.95 27.1901 181.52C29.5001 182.93 31.7701 184.38 34.4601 184.95C39.3201 186.2 44.2201 187.23 49.1401 188.42Z" fill="#1F644D"/>
<path d="M106.57 118.11C111.83 115.32 118.25 113.58 124.03 115.84C119.69 110.93 115.49 105.86 110.89 101.24C99.2401 98.65 88.3501 104 78.5201 109.64C74.6701 112.32 70.26 114.68 65.61 115.53C70.44 118.69 77.2201 118.95 90.2601 125.37C95.5601 122.68 100.98 120.25 106.57 118.11Z" fill="#1F644D"/>
<path d="M43.97 80.23C52.13 76.94 61.32 73.21 70.22 74.59C68.56 73.67 66.89 72.77 65.22 71.87C60.23 69.31 55.4701 66.36 50.8901 63.17C50.8401 63.2 50.7701 63.23 50.7701 63.23C50.7001 63.14 50.6401 63.04 50.5701 62.95C50.3801 62.81 50.1901 62.67 49.9901 62.54C46.1401 63.13 42.5201 63.77 38.7401 64.53C36.1301 65.2 33.33 65.55 30.92 66.88C29.62 67.74 28.3601 68.65 27.0801 69.55C29.1601 75.21 29.46 81.86 33.91 84.53C37.08 82.72 40.49 81.35 43.97 80.23Z" fill="#1F644D"/>
<path d="M90.2401 101.82C96.3801 98.5499 104.17 97.89 110.49 100.83C107.91 98.27 105.2 95.85 102.26 93.71C98.1001 91.09 93.9001 88.49 89.6701 85.92C81.4701 87.03 74.3001 91.05 66.7401 94.11C62.9401 95.7 58.9801 97.24 56.0001 100.04C55.6901 100.3 55.3901 100.57 55.0901 100.83C56.7901 103.14 58.3501 105.64 59.6801 108.29C61.0901 111.09 62.4901 112.98 64.0801 114.37C68.9701 113.2 73.65 111.28 78.22 109.11C82.37 106.92 85.9501 103.8 90.2401 101.82Z" fill="#1F644D"/>
<path d="M34.4001 64.4699C38.8201 62.1299 44.0601 60.9599 49.0201 61.8399C44.1701 58.3599 39.5001 54.64 34.9401 50.79C33.0601 50.99 31.23 50.9399 29.41 50.8399C25.9 50.7499 22.2101 49.11 18.8101 50.51C17.5201 51.15 16.0101 51.66 14.6801 52.18C14.4201 52.27 14.17 52.39 13.92 52.49C16.56 56.85 19.4301 60.7 22.2701 62.68C24.2601 64.07 25.5501 65.9599 26.4901 68.0699C26.5801 68.0199 26.6601 67.96 26.7501 67.91C29.3501 66.82 31.9601 65.8999 34.4001 64.4699Z" fill="#1F644D"/>
<path d="M20.2001 49.4301C24.6901 48.6701 29.3201 48.2299 33.6501 49.6899C32.4801 48.6999 31.3201 47.7 30.1701 46.7C20.8501 38.95 9.71006 32.02 0.540059 24.22C0.310059 25.95 2.24008 29.12 3.50008 31.62C4.88008 34.36 8.66011 43.49 13.2801 51.38C15.1501 49.83 17.7701 49.2901 20.2001 49.4301Z" fill="#1F644D"/>
<path d="M60.8101 96.1C69.6601 91.41 78.6901 84.4 89.2701 85.67C83.6501 82.26 77.96 78.9199 72.21 75.6999C66.79 75.5299 61.53 76.75 56.22 77.76C52.66 78.64 47.5301 79.41 44.1801 80.77C41.2401 82.02 38.5901 83.8 35.8101 85.36C41.9301 87.49 48.7001 92.6 54.1501 99.59C56.2001 98.14 58.4701 96.98 60.8101 96.1Z" fill="#1F644D"/>
<path d="M294.22 133.41C291.43 138.46 291.05 144.3 288.98 149.63C288.45 151.13 287.88 152.62 287.24 154.1C287.95 166.2 287.18 178.38 285.57 190.47C290.42 184.86 295.49 179.34 301.58 175.06C310.76 167.09 314.95 154.93 315.64 142.98C314.01 140.7 312.37 138.69 310.83 137.09C305.37 131.4 303.27 126.82 299.21 121.1C298.26 125.4 296.11 129.6 294.22 133.41Z" fill="#1F644D"/>
<path d="M304.39 196.52C299.83 199.37 296.08 203.29 291.94 206.67C288.2 209.84 284.23 212.8 281.03 216.5C280.73 217.94 280.43 219.39 280.12 220.83C279.56 223.32 278.97 225.81 278.38 228.3C278.41 228.37 278.44 228.44 278.47 228.51L278.32 228.59C277.14 233.59 275.93 238.58 274.68 243.56C274.54 244.07 274.41 244.59 274.28 245.1C276.95 241.31 280.34 238.05 284.08 235.31C288.22 232.59 292.63 230.4 297 228.06C303.82 224.44 313.11 223.98 318.23 218.33C320.76 205.65 323.82 193.11 326.94 183.69C327.01 183.47 327.07 183.24 327.14 183.01C326.54 183.53 325.92 184.02 325.25 184.44C318.13 188.43 311.25 192.2 304.39 196.52Z" fill="#1F644D"/>
<path d="M258.46 94.82C262.24 99.45 266.65 103.54 270.8 107.91C276.29 113.53 280.9 120.3 283.13 127.92C285.24 135.73 286.5 143.62 287.1 151.57C287.86 147.01 289.51 142.65 291.47 138.46C293.32 133.11 294.96 127.6 296.84 122.27C297.19 121.22 297.49 120.16 297.76 119.1C295.43 116.05 292.44 112.63 288.09 108.56C275.54 96.8501 259.45 91.64 258.46 94.82Z" fill="#1F644D"/>
<path d="M313.84 243.73C314 242.79 314.15 241.84 314.29 240.9C315.21 234.57 316.37 227.76 317.69 220.93C312.38 226.43 303.99 226.53 297.33 228.9C292.67 230.43 288.72 233.46 285.03 236.6C281.31 239.56 277.7 242.61 274.07 245.79C272.58 251.72 271.29 257.87 268.07 263.07C272.75 260.72 277.14 257.98 281.89 255.78C284.31 254.66 286.79 253.62 289.12 252.32C292.7 250.42 295.9 247.96 299.53 246.12C303.32 244.5 307.63 244.49 311.55 244.04C312.32 243.97 313.09 243.86 313.84 243.73Z" fill="#1F644D"/>
<path d="M269.81 108.81C266.06 104.55 261.99 100.44 258.57 95.87C258.61 95.97 258.64 96.06 258.69 96.16C261.5 101.75 263.27 105.26 259.51 116.61C258.85 118.62 258.39 120.41 258.08 122.09C259.35 124.63 260.11 127.42 262.06 129.54C267.2 134.83 274.29 138.82 279.77 143.95C281.93 146.21 283.79 148.77 285.2 151.56C285.03 149.53 284.83 147.51 284.58 145.49C282.77 131.03 280.16 119.73 269.81 108.81Z" fill="#1F644D"/>
<path d="M307.6 169.96C305.8 171.9 303.9 173.7 302.05 175.56L296.57 181.14C293.05 184.57 289.57 188.18 285.49 191.11C284.39 199.24 282.92 207.33 281.28 215.32C285.27 209.24 291.49 204.64 297.41 200.61C301.97 197.72 306.06 194.22 310.43 191.07C312.62 189.49 314.89 188.05 317.18 186.6C320.66 184.52 324.44 183.26 327.61 180.99C329.88 169.3 323.46 154.41 316.57 144.3C317.44 153.55 313.97 163.24 307.6 169.96Z" fill="#1F644D"/>
<path d="M183.45 89.62C181.74 90.35 179.92 90.8399 178.08 91.0699C176.03 95.4299 174.24 99.92 172.86 104.54C172.25 106.57 171.74 108.62 171.27 110.69C174.65 106.49 179.34 103.68 184.29 101.69C187.64 100.13 190.76 98.06 194.25 96.77C197.73 95.39 201.42 94.43 205.16 94.02C208.53 85.52 212.28 82.2101 215.59 72.1801C215.87 71.3301 216.07 70.56 216.22 69.84C208.37 73.85 200.7 78.01 193.4 82.95C190.32 85.46 187.24 88.18 183.45 89.62Z" fill="#1F644D"/>
<path d="M196.47 0.610007C197.72 1.99001 198.78 3.54998 199.63 5.20998C204.02 15.16 203.5 27.04 200.95 38.44C202.62 36.06 204.66 34 206.67 31.9C208.27 29.9 209.06 27.41 210.13 25.11C211.21 22.52 212.25 20.0401 213.13 17.4201C209.4 11.9901 204.95 8.17997 203.77 5.81997C202.19 2.65997 198.46 0.590007 196.47 0.610007Z" fill="#1F644D"/>
<path d="M197.6 59.99C196.17 60.69 194.71 61.3 193.18 61.75C188.92 71.35 183.28 80.18 178.78 89.54C178.62 89.88 178.47 90.2201 178.31 90.5601C183.41 88.1001 188.15 85.2299 193.06 82.45C197.97 79.04 202.28 74.75 207.68 72.05C210.45 70.62 213.39 69.46 216.43 68.73C217.48 61.02 211.41 60 217.21 42.45C217.31 42.13 217.39 41.83 217.49 41.52C215.1 45.29 211.93 48.61 208.47 51.36C204.94 54.38 201.91 58.03 197.6 59.99Z" fill="#1F644D"/>
<path d="M207.18 32.25C205.91 34.5 204.69 36.85 202.69 38.58C202.02 39.22 201.29 39.81 200.52 40.36C198.75 47.62 196.21 54.62 193.65 60.74C193.62 60.82 193.58 60.9 193.54 60.97C196.13 59.16 198.74 57.43 201.4 55.73C203.74 54.32 206.13 52.91 208.02 50.9C212.08 46.27 215.51 41.23 218.57 35.91C219.14 29.29 217.07 23.75 214.29 19.21C213.5 24.07 210.17 28.38 207.18 32.25Z" fill="#1F644D"/>
<path d="M160.14 255.2C160.88 261.1 162.52 266.85 161.62 272.38C164.39 270.06 166.51 267.4 168.26 264.54C165.48 263.46 161.14 261.57 160.92 260.27C160.62 258.44 166.54 249.78 174.89 249.02C176.23 245.19 177.59 241.37 179.39 237.78C179.93 236.71 180.45 235.72 180.96 234.77C178.96 234.93 175.28 235.15 173.98 234.72C173.02 234.4 173.11 231.51 174.18 228.09C170.52 231.47 166.33 234.45 161.91 237.16C162.49 243.24 160.41 249.19 160.14 255.2Z" fill="#1F644D"/>
<path d="M162.14 235.6C166.34 233.21 170.42 230.58 174.33 227.63C175.22 224.98 176.69 222.07 178.74 219.8C171.18 218.74 159.15 214.26 146.41 215.32C139.7 215.88 133.28 217.36 127.83 219.33C135.07 221.36 141.1 226.58 147.6 230.26C152.42 232.21 157.13 234.06 162.14 235.6Z" fill="#1F644D"/>
<path d="M219.7 184.46C218.71 187.46 217.47 190.59 216.12 193.67C216.04 197.29 215.71 200.71 214.85 201.9C214.85 201.9 218.24 200.81 221.2 201.71C223.95 192.47 224.39 186.77 226.57 185.67C227.57 185.17 228.9 184.5 230.12 183.88C229.25 182.31 229.03 180.86 229 179.89C228.74 180.09 228.49 180.3 228.25 180.56C225.76 183.25 228.71 174.31 229.64 171.5C229.85 170.87 230.48 169.74 231.33 168.39V168.38C231.47 165.78 233.45 161.62 234.67 159.28C232.3 161.69 230.06 164.31 229.47 166.1C228.52 168.97 228.81 166.56 229.75 162.73C228.63 162.72 227.2 161.83 226.27 161.14C225.26 165.43 222.98 174.52 219.7 184.46Z" fill="#1F644D"/>
<path d="M224.21 249.82C222.67 251.35 219.66 254.29 217.59 255.93C220.46 262.04 223.47 268.75 226.51 275.76C229.54 277.4 236.1 281.57 237.86 287.64L238.4 289.48L242.99 283.83C241.83 281.34 240.42 278.33 239.32 276.15C238.07 273.66 231.06 261.72 224.21 249.82Z" fill="#1F644D"/>
<path d="M92.6 153.01C96.41 153.48 100.36 153.76 104.08 154.99C107.62 156.15 110.78 158.14 113.55 160.51C119.03 158.98 124.55 157.61 130.09 156.34C125.03 158.12 119.55 159.76 114.04 161.53C112.99 164.5 113.5 167.74 113.5 170.86C113.68 174.18 113.29 177.57 113.02 180.92C112.94 184.24 114.35 187.35 115.11 190.57C126.63 181.68 131.61 163.61 136.72 161.04C142.39 158.19 158.57 160.57 158.57 160.57C173.34 165.45 183.7 182.69 189.98 196.99C192.2 197.45 195.7 198.45 197.33 200.33C197.33 200.33 197.42 197.89 197.63 195.85C193.39 187.21 188.42 178.65 182.65 172.38C168.75 157.29 168.88 149.12 168.88 149.12C168.09 132.76 171.19 127.65 171.19 127.65C193.99 128.54 200.35 108.25 204 97.21C204.17 96.69 204.35 96.21 204.52 95.72C199.42 97.15 193.8 98.7299 189.62 100.07C184.25 101.57 180.24 105.56 175.57 108.39C174.11 109.37 172.67 110.34 171.15 111.25C170.5 114.25 169.97 117.28 169.6 120.33L169.41 120.31C169.86 115.54 170.71 110.82 171.89 106.18C169.27 103.47 167.51 100.12 166.42 96.5601C165.6 94.1901 165.47 91.63 164.68 89.27C164 87.48 163.24 85.67 162.93 83.76C162.82 84.14 162.72 84.52 162.58 84.92C158.72 96.59 159.8 106.04 161.61 116.44C163.42 126.84 163.17 151.94 161.48 148.59C159.79 145.23 147.05 133.5 143.57 126.57C140.09 119.65 137.75 110.3 137.21 103.47C136.83 98.63 130.83 85.79 124.78 77.11C124.28 81.67 124.02 86.25 123.8 90.74C123.28 97.68 125.57 104.34 126.13 111.2C126.35 113.34 126.56 115.48 126.63 117.65C128.48 119.9 130.36 122.12 132.33 124.27C132.41 124.35 132.28 124.49 132.19 124.4C129.38 121.74 126.75 118.89 124.17 115.97C124.16 116.02 124.15 116.06 124.15 116.06C120.22 115.96 116.37 116.35 112.55 117.24C108.63 117.82 104.84 119.17 101.48 121.29C98.54 123.07 95.5601 124.82 92.5001 126.4C110.26 134.39 118.33 127.65 133.82 132.77C149.91 138.09 156.78 156.46 156.78 156.46C153.31 155.31 150.47 154.37 143.01 153.66C135.55 152.94 127.87 148.65 127.87 148.65C101.98 136.12 87.08 138.93 77.73 144.31C79.43 145.39 81.0501 146.57 82.6501 147.72C85.5801 150.09 88.76 152.48 92.6 153.01Z" fill="#1F644D"/>
<path d="M252.54 224.06C250.84 226.46 249.07 227.94 249.07 227.94C252.85 228.06 258.34 230.64 260.12 231.24C257.97 228.7 255.06 226.23 252.54 224.06Z" fill="#1F644D"/>
<path d="M297.67 277.26C306 271.1 310.98 258.82 313.49 245.69C307.8 246.75 301.75 246.21 296.6 249.31C289.06 252.24 282.87 257.59 275.49 260.83C273.05 261.92 270.52 262.9 267.87 263.41C267.45 264.06 267.01 264.7 266.53 265.32L266.38 265.2C268.41 262.53 269.77 259.54 270.81 256.41C269.29 252.26 268.01 248.08 266.53 243.98C265.12 244.46 263.12 244.77 260.76 245.28C257.07 246.06 249.09 242.92 246.29 241.73C247.44 244.97 248.62 248.4 249.72 252.11C253.08 263.38 250.9 273.89 248.52 280.66C250.34 279.31 255.41 275.76 260.98 276.66C260.98 276.66 267.3 264.75 277.79 265.47C287.74 266.15 295.35 272.01 297.67 277.26Z" fill="#1F644D"/>
<path d="M242.69 212.76L242.7 212.75C241.87 211.25 241.13 209.69 240.53 208.08C239.58 211.38 239.32 214.59 239.55 217.83C240.08 216.55 241.03 214.74 242.69 212.76Z" fill="#1F644D"/>
<path d="M278.54 145.12C276.05 142.29 273.56 139.33 270.33 137.3C265.53 134.31 258.89 131.85 257.79 125.53L257.68 125.04C257.28 129.54 257.85 133.8 258.31 140.31C277.58 144.57 278.51 155.37 277.66 161.97C277.54 162.87 277.33 163.78 277.05 164.67C279.35 167.05 281.56 169.51 283.28 172.36C284.07 173.6 284.8 174.89 285.47 176.21C285.9 168.44 285.88 160.66 285.29 152.89C283.06 150.22 280.88 147.61 278.54 145.12Z" fill="#1F644D"/>
<path d="M278.11 168.04C277.62 167.32 277.13 166.61 276.63 165.89C274.66 171.06 270.8 175.41 270.8 175.41C271.02 176.67 270.89 178.7 270.34 181.12C273.2 183.31 276.01 185.55 278.26 188.37C280.6 191.27 282.4 194.69 283.19 198.32C284.22 191.32 285 184.28 285.42 177.23C282.86 174.25 280.44 171.21 278.11 168.04Z" fill="#1F644D"/>
<path d="M268.76 241.98C268.68 242.51 268.41 242.91 267.99 243.25C268.66 244.9 269.23 246.6 269.61 248.37C270.24 250.86 270.68 253.38 270.95 255.93C272.26 251.85 273.06 247.55 274.1 243.42C275.32 238.19 276.5 232.95 277.64 227.71C273.7 222.43 270.45 216.74 266.55 211.46C262.47 206.38 256.25 203.91 252.36 198.7C249.31 198.41 246.47 197.54 244.74 196.92C243.23 200.5 241.9 203.8 240.93 206.67C241.67 208.37 242.6 209.96 243.63 211.48C246.25 207.55 247.75 201.84 248.11 200.75C248.51 199.54 250.27 199.66 253.13 201.48C255.99 203.3 256.61 214.35 254.94 219.39C254.56 220.55 254.04 221.62 253.46 222.6C254.84 224 256.2 225.42 257.48 226.87C258.93 228.68 260.37 230.53 261.74 232.42C264.49 234.84 269.02 240.32 268.76 241.98Z" fill="#1F644D"/>
<path d="M272.65 185.23C271.75 184.36 270.87 183.47 269.99 182.57C268.88 186.54 266.72 191.27 263.22 195.35C261.12 197.8 258.11 198.69 255.06 198.79C255.73 199.63 256.43 200.45 257.19 201.22C260.65 204.3 264 207.54 267.02 211.05C270.27 214.39 273.39 217.95 275.53 222.13C276.38 223.69 277.13 225.29 277.81 226.94C278.27 224.84 278.74 222.73 279.17 220.62C280.64 213.57 281.96 206.45 283.04 199.3C280.51 193.89 276.73 189.46 272.65 185.23Z" fill="#1F644D"/>
<path d="M207.11 208.47C208 207.92 208.81 207.15 209.53 206.27C206.4 208.03 204.82 209.88 207.11 208.47Z" fill="#1F644D"/>
<path d="M210.11 217.69C207.67 214.96 205.47 213.4 205.47 213.4C205.47 213.4 206.32 215.94 210.11 217.69Z" fill="#1F644D"/>
<path d="M200.49 217C201.44 215.32 201.99 214.19 201.99 214.19C201.99 214.19 201.16 215.03 200.49 217Z" fill="#1F644D"/>
<path d="M202.16 191.44C196.16 202.44 203.06 210.09 200.72 207.86C198.38 205.63 200.82 203.44 186.85 197.28C172.88 191.12 173.27 194.33 173.27 194.33C173.27 194.33 175.82 199.67 180.65 205.46C185.48 211.25 199.13 212.65 199.13 212.65C185.46 212.09 180.6 220.14 177.85 224.48C175.1 228.82 175.25 232.33 175.25 232.33C175.25 232.33 178.5 233.4 186.58 231.4C192.46 229.94 197.93 221.49 200.48 217C201.15 215.04 201.98 214.19 201.98 214.19C201.98 214.19 201.43 215.32 200.48 217C199.88 218.76 199.41 221.41 199.78 225.17C200.57 233.15 209.61 238.68 211.2 241.84C212.79 245 215.68 246.48 216.59 234.19C217.11 227.15 213.38 221.36 210.11 217.69C206.32 215.94 205.47 213.4 205.47 213.4C205.47 213.4 207.66 214.95 210.11 217.69C211.86 218.5 214.24 219.14 217.45 219.29C227.63 219.76 231.81 208.09 231.81 208.09C231.81 208.09 228.03 206.84 220.34 204.3C216.64 203.08 212.42 204.63 209.52 206.26C208.8 207.15 207.99 207.92 207.1 208.46C204.81 209.87 206.39 208.02 209.52 206.26C212.38 202.73 213.78 197.19 212.62 194.89C211.17 192.01 209.51 183.13 209.51 183.13C209.51 183.13 208.16 180.44 202.16 191.44ZM207.71 198.33C207.51 200.67 206.39 202.76 205.64 204.94C205.37 206.38 204.9 207.82 204.08 209.03C204.38 209.2 204.6 209.44 204.77 209.7C206.26 209.41 207.78 209.38 209.31 209.48C211.83 209.29 214.33 208.66 216.87 209.05C218.55 209.29 220.22 209.8 221.68 210.7L221.64 210.82C218.71 210.58 214.72 210.22 211.82 209.89C209.54 209.62 207.39 210.36 205.17 210.7C205.17 210.83 205.15 210.98 205.12 211.15C205.77 211.32 206.42 211.52 207.06 211.79C208.81 212.14 210.67 211.93 212.38 212.62C213.5 213.06 214.6 213.69 215.4 214.67L215.33 214.78C212.36 214.29 209.85 212.94 206.99 212.19C206.27 212.2 205.55 212.2 204.84 212.12C204.66 212.6 204.44 213.09 204.21 213.52C204.93 214.53 205.48 215.65 205.97 216.8C207.17 218.76 208.85 220.43 209.86 222.52C210.54 223.9 211.13 225.34 211.39 226.9L211.27 226.95C208.66 224.02 207.48 220.37 205.61 217.02C205.13 216.48 204.68 215.93 204.24 215.38C204.87 216.88 205.25 218.5 205.49 220.11C206.27 223.08 207.41 226 207.87 229.04C208.2 231.06 208.42 233.08 208.53 235.15L208.41 235.18C206.07 230.48 206.26 225.19 205.1 220.21C204.68 218.97 203.45 216.37 202.6 214.29C202.01 214.21 201.46 213.9 201.21 213.5C199.35 217.06 196.02 219.65 192.65 221.79C191.96 222.31 191.02 223.12 190.31 223.62C188.63 224.67 186.72 225.37 184.72 225.55L184.68 225.43C187.22 223.86 189.8 222.78 192.41 221.45C195.17 219.37 197.3 216.72 199.44 214.05C199.3 214.13 199.17 214.22 199.03 214.31C197.18 215.41 195.01 215.73 193.08 216.6C191.29 217.79 189.45 218.78 187.24 219.02L187.19 218.9C188.82 217.35 190.84 216.72 192.92 216.22C195.61 214.87 198.01 213.13 200.8 212.02C200.72 211.42 200.72 210.91 200.72 210.91C200.72 210.91 200.72 210.91 200.88 210.44C199.49 209.89 198.27 209.18 196.97 208.4C193.86 207.49 190.46 207.6 187.73 205.55L187.77 205.43C189.12 205.43 190.39 205.62 191.65 205.9C193.56 206.29 195.27 207.39 197.11 208.01C198.57 208.24 200.06 208.67 201.2 209.62C201.32 209.43 201.48 209.28 201.67 209.16C201.52 208.06 201.79 206.99 202.18 205.92C202.35 204.46 201.93 202.93 202.31 201.48C202.55 200.52 202.91 199.55 203.6 198.74L203.72 198.78C204.11 201.35 203.04 203.53 202.59 205.96C202.74 206.93 202.82 207.87 202.65 208.8C202.79 208.78 202.93 208.77 203.06 208.77C203.74 207.41 204.49 206.14 205.25 204.8C206.35 201.17 206.15 197.38 207.28 193.7H207.41C207.82 195.22 207.85 196.79 207.71 198.33Z" fill="#1F644D"/>
<path d="M189.66 260.63C188.71 260.81 186.66 261.32 184.68 262.53C186.29 262.13 187.85 261.6 189.33 260.94C189.44 260.83 189.55 260.74 189.66 260.63Z" fill="#1F644D"/>
<path d="M219.86 251.4L224.5 246.67C224.7 246.47 224.66 246.14 224.42 246C223.53 245.49 220.73 244.58 212.04 244.49C202.86 244.39 199.18 247.34 197.93 248.78C197.7 249.05 197.26 248.95 197.18 248.6C196.51 245.74 193.86 237.17 185.38 232.68C185.38 232.68 182.86 229.99 183.69 237.78C184.43 244.68 185.18 248.98 188.78 252.47C189.1 252.78 188.78 253.31 188.36 253.19C184.56 252.12 176.17 250.22 171.37 252.63C166.16 255.25 164 258.21 163.4 259.18C163.28 259.37 163.32 259.61 163.5 259.75C164.16 260.26 165.99 261.49 169.44 262.63C172.81 263.74 178.95 263.94 184.68 262.53C186.66 261.32 188.71 260.81 189.66 260.63C190.32 259.99 191.03 259.4 191.84 258.96C191.33 258.42 191.35 257.55 191.45 256.97C187.14 257.01 182.88 256.47 178.57 256.82C176.93 257.19 170.69 258.85 169.49 258.37C172.28 256.83 175.41 256.42 178.52 256.41C181.6 256.07 184.66 255.34 187.78 255.57C187.92 255.58 188.05 255.6 188.19 255.61C186.53 255.01 184.88 254.41 183.14 253.99C180.86 253.98 178.71 253.88 176.4 253.53L176.38 253.41C178.6 252.32 181.03 252.83 183.21 253.59C185.47 254.02 187.82 254 189.99 254.86C190.66 255.12 191.32 255.42 191.95 255.77C192.12 255.51 192.34 255.2 192.59 254.91C192.15 253.88 191.8 252.82 191.47 251.72C189.74 248.77 187.32 246.35 186.14 243.05L186.24 242.97C187.42 243.78 188.34 244.84 189.14 245.96C190.37 247.64 190.88 249.72 191.84 251.54C192.46 252.36 193.03 253.23 193.44 254.17C193.49 254.14 193.54 254.1 193.59 254.07C193.66 254.03 193.73 254.01 193.8 253.99C193.87 253.55 193.95 253.1 194.04 252.64C193.76 250 192.51 247.61 192.9 244.85L193.02 244.82C193.7 245.73 194.09 246.75 194.35 247.79C194.77 249.37 194.36 251.02 194.44 252.63C194.55 253.04 194.64 253.45 194.69 253.87C195.13 253.93 195.5 254.17 195.78 254.52C196.89 253.65 198.19 253.07 199.55 252.63C201.44 251.67 203.12 250.26 205.18 249.64C206.54 249.22 207.95 248.94 209.41 249L209.44 249.12C206.41 251.05 202.94 251.52 199.75 252.99C198.62 253.87 197.51 254.7 196.27 255.36C196.44 255.7 196.5 255.82 196.65 256.11C197.36 256.09 198.06 256.2 198.79 256.34C200.18 256.28 201.51 255.55 202.9 255.51C203.82 255.46 204.76 255.49 205.74 255.76L205.76 255.89C203.55 257.36 201.23 256.79 198.82 256.76C198.07 257.01 197.32 257.19 196.56 257.2C196.5 257.31 196.43 257.43 196.35 257.56C197.27 257.96 198.08 258.63 198.76 259.37C200.19 260.43 201.89 261.16 202.99 262.63C203.71 263.58 204.32 264.69 204.45 265.94L204.33 265.99C202.13 264.05 200.67 261.51 198.52 259.7C197.65 259.34 196.84 258.98 196.03 258.59C197.21 259.64 198.07 261.03 198.65 262.5C200.83 265.78 202.57 269.9 200.88 273.79L200.75 273.77C200.16 269.99 200.08 266.12 198.29 262.7C197.23 261.43 196.14 260.29 195.12 259.02C195.06 259.08 195.01 259.14 194.95 259.2C194.21 259.96 194.02 260.02 193.55 259.83C192.6 261.27 191.49 262.53 190.35 263.85C188.5 267.25 187.72 271 185.74 274.38L185.62 274.35C185.58 272.75 185.93 271.19 186.45 269.71C187.21 267.46 188.8 265.65 190 263.64C190.53 262.36 191.2 261.12 192.1 260.08C191.22 260.6 190.3 261.05 189.35 261.51C186.8 263.69 185.04 266.44 182.69 268.85L182.57 268.8C182.75 267.39 183.44 266.11 184.29 265.01C185.56 263.32 187.48 262.42 189.11 261.17C189.18 261.1 189.26 261.04 189.33 260.96C187.86 261.62 186.29 262.15 184.68 262.55C182.64 263.8 180.7 265.79 180.14 268.94C178.85 276.26 178.1 285.58 177.65 286.95C177.2 288.31 179.36 288.99 185.29 281.78C190.41 275.55 193.37 274.32 194.56 268.56C194.65 268.1 195.32 268.1 195.4 268.56C196.03 271.92 197.6 277.26 201.4 280.59C203.89 282.78 205.92 284.7 207.49 286.02C208.02 284.55 209.06 282.19 210.73 280.49C210.09 276.73 209.2 272.43 208.96 270.11C208.55 266.07 207.69 261.08 202.83 259.02C200.35 258.78 199.7 257.94 202.07 258.73C202.34 258.82 202.58 258.92 202.83 259.02C206.15 259.32 212.75 258.56 219.86 251.4Z" fill="#1F644D"/>
<path d="M202.83 259C202.59 258.9 202.34 258.79 202.07 258.71C199.7 257.92 200.35 258.76 202.83 259Z" fill="#1F644D"/>
<path d="M235.54 239.06C235.54 239.06 235.04 239.98 234.45 241.56C235.55 240.04 235.54 239.06 235.54 239.06Z" fill="#1F644D"/>
<path d="M243.85 228.81C243.74 228.8 243.65 228.79 243.54 228.78C243.54 228.78 243.66 228.81 243.85 228.81Z" fill="#1F644D"/>
<path d="M247.9 206.56C245.54 209.99 238.59 221.08 237.22 225.24C237.22 225.24 235.33 217.55 232.2 216.52C231.56 216.31 230.59 216 229.44 215.64C229.08 216.09 228.72 216.54 228.33 216.97C226.26 219.21 223.45 220.86 220.41 221.35C221.37 223.02 222.69 224.65 224.5 226L232.74 230.12C232.74 230.12 221.3 232.2 217.93 239.72C217.79 240.04 217.63 240.35 217.52 240.69C217.16 241.78 216.81 242.73 216.48 243.59C216.66 243.6 217.58 243.39 217.76 243.4C220.49 243.56 223.08 243.85 225.58 244.97C226.09 245.27 226.59 245.6 226.37 246.04C225.73 247.3 224.38 247.98 223.82 248.54C224.87 248.15 225.96 247.68 227.11 247.1C231.28 245 233.38 243.03 234.44 241.56C235.03 239.98 235.53 239.06 235.53 239.06C235.53 239.06 235.54 240.04 234.44 241.56C232.89 245.7 230.69 254.4 235.08 263.13C241.15 275.2 242.53 260.65 242.53 260.65C242.53 260.65 250.08 246.99 241.82 237.29C241.82 237.29 251.28 243.53 260.05 243.32C268.82 243.11 266.68 240.21 262.35 236.37C258.06 232.57 255.47 229.7 243.84 228.81C243.64 228.81 243.53 228.78 243.53 228.78C243.64 228.79 243.73 228.8 243.84 228.81C245.02 228.84 249.39 228.24 253.31 218.52C254.07 216.64 254.39 214.62 254.26 212.6C254.01 208.84 253.31 202.77 251.33 202.11C248.46 201.17 250.26 203.13 247.9 206.56ZM247.58 216.43C247.27 217.91 246.69 219.27 246 220.56C244.97 222.53 243.28 224.03 241.96 225.79C241.24 227.14 240.33 228.46 239.1 229.36C239.41 229.61 239.51 229.9 239.67 230.21C239.69 230.24 239.69 230.27 239.7 230.3C241.08 230.01 242.47 230.24 243.83 230.61C245.58 230.75 247.38 230.32 249.12 230.7C250.27 230.93 251.41 231.28 252.47 231.92L252.44 232.04C249.42 232.56 246.71 231.39 243.8 231.01C242.43 231.21 241.1 231.35 239.75 231.09C239.71 231.3 239.65 231.52 239.59 231.71C239.55 231.84 239.47 232.05 239.36 232.29C240.99 232.78 242.41 233.61 243.85 234.51C247.16 235.63 250.65 235.78 253.8 237.48L253.78 237.6C252.34 237.76 250.92 237.6 249.54 237.3C247.45 236.87 245.66 235.64 243.69 234.89C242.01 234.54 240.38 234 239.02 232.94C238.91 233.13 238.79 233.32 238.66 233.48C240.1 234.75 240.37 236.88 240.34 238.71C240.65 240.73 241.4 242.71 241.36 244.78C241.35 246.15 241.21 247.52 240.76 248.86H240.63C239.57 245.52 240.28 242.15 239.93 238.78C239.3 237.13 238.82 235.53 238.25 233.86C238.22 233.88 238.19 233.91 238.16 233.92C238 234 237.77 234.04 237.52 234.06C238.37 236.7 237.66 239.46 237.19 242.09C236.89 247.51 237.14 252.88 237.64 258.31L237.52 258.35C236.47 256.37 236 254.12 235.86 251.91C235.61 248.56 236.5 245.34 236.78 242.05C236.8 239.89 236.7 237.7 236.86 235.56C236.85 235.06 236.86 234.54 236.81 234.05C236.44 234.02 236.06 233.95 235.72 233.84C235.62 233.81 235.45 233.66 235.29 233.5C234.2 234.45 232.98 235.22 231.67 235.88C229.84 237.21 228.37 239.02 226.41 240.18C225.12 240.96 223.75 241.66 222.22 242.01L222.16 241.9C224.85 239.14 228.28 237.63 231.42 235.54C232.44 234.49 233.49 233.48 234.7 232.68C234.69 232.65 234.66 232.62 234.66 232.59C234.47 231.78 234.69 230.95 235.16 230.27C233.98 229.62 232.99 228.64 232.12 227.6C230.56 226.26 228.65 225.29 227.24 223.78C226.29 222.79 225.42 221.74 224.69 220.51L224.78 220.42C228.04 221.91 229.88 224.94 232.39 227.29C233.1 227.69 233.78 228.1 234.45 228.54C234.22 228.02 234.07 227.45 233.95 226.89C232.6 224.68 231.33 223.35 230.63 220.67L230.72 220.58C231.69 221.02 232.33 221.86 232.84 222.67C233.63 223.9 233.66 225.44 234.32 226.72C235.06 227.55 235.65 228.38 236.06 229.39C236.11 229.35 236.17 229.3 236.22 229.28C236.74 229.02 237.34 228.74 238.19 228.95C239.27 227.73 240.42 226.65 241.64 225.53C243.7 222.52 244.82 219.01 247.47 216.37C247.46 216.37 247.58 216.43 247.58 216.43Z" fill="#1F644D"/>
<path d="M190.2 260.54C190.2 260.54 190 260.57 189.66 260.63C189.55 260.73 189.44 260.83 189.33 260.94C189.62 260.81 189.92 260.68 190.2 260.54Z" fill="#1F644D"/>
<path d="M199.96 167.12C205.08 162.2 209.34 143.66 200.34 135.62C198.45 133.94 196.67 132.75 195.03 131.89C195.46 132.5 195.86 133.12 196.22 133.76L197.2 135.19C200.42 139.29 202.72 144.5 202.06 149.8L201.93 149.81C200.52 144.32 199.02 138.76 195.88 134.01C195.33 133.28 194.18 132.13 192.94 130.95C190.58 130.06 188.6 129.87 187.16 129.93C188.58 131.19 189.74 132.77 190.64 134.44C193.89 138.8 196.56 143.78 196.61 149.36L196.49 149.39C194.29 144.5 193.22 139.2 190.31 134.68C189.26 133.36 187.34 131.63 185.76 130.08C184.98 130.22 184.56 130.39 184.56 130.39C184.56 130.39 183.69 130.5 182.4 130.89C184.08 132.54 185 134.72 185.68 136.94C186.75 139.29 188.27 141.45 189.05 143.94C189.59 145.58 189.99 147.27 190.12 149.03L190 149.07C187.65 145.36 186.95 141.1 185.31 137.12C184.01 135.16 182.82 133.24 181.92 131.05C181.11 131.31 180.17 131.68 179.19 132.18C178.73 134.71 178.36 137.09 178.24 139.62C178.74 143.65 181.52 148.39 183 152.2L182.9 152.28C180.11 149.78 178.5 146.11 178.14 142.42C177.85 139.14 176.74 135.51 178.5 132.55C177.68 133.01 176.85 133.56 176.06 134.22C175.35 136.93 174.72 139.58 174.15 142.31C174.02 147.39 175.13 152.53 177.01 157.25L176.91 157.32C173.4 153.86 173.04 148.47 173.65 143.84C173.8 142.31 173.7 140.64 173.81 139.11C173.97 137.83 174.3 136.54 174.85 135.35C171.62 138.72 169.46 144.33 172.17 153.58C178.24 174.38 195.28 171.62 199.96 167.12ZM197.79 156.68C197.68 155.96 197.03 155.66 196.4 155.55C195.85 155.3 195.43 154.95 194.9 154.38L194.93 154.26C196.13 153.8 197.14 154.59 197.6 155.59C197.81 155.86 198.08 156.07 198.37 156.3C199.61 157.19 199.82 159.26 198.6 160.27L198.48 160.23C198.12 158.81 198.07 158.04 197.79 156.68ZM184.33 158.77C184.75 157.86 184.74 156.7 185.49 155.95C185.96 155.45 186.55 155.05 187.31 154.93L187.39 155.03C186.97 156.41 186.3 157.25 185.24 158.16C185 158.38 184.78 158.64 184.7 158.95C184.67 159.97 184.66 160.79 183.86 161.68L183.73 161.67C183.1 160.57 183.59 159.54 184.33 158.77ZM189.35 165.01C188.5 164.49 188.03 163.49 188.18 162.51C188.72 159.03 191 158.53 193.08 158.96C195.54 159.46 194.42 164.3 192.32 165.36C191.25 165.9 190.15 165.51 189.35 165.01Z" fill="#1F644D"/>
<path d="M157.27 174.31C155.14 176.05 153.15 177.78 150.71 179.19L150.62 179.1C152.08 176.62 154.5 175.08 157.05 173.96C160.6 171.64 164.49 169.2 168.86 169.41C168.01 168.27 167.04 167.3 165.96 166.51C161.63 166.74 157.33 167.53 153.42 169.43C152.07 170.35 148.11 173.92 146.85 174.22C148.19 171.67 150.64 170.12 153.22 169.07C156.71 166.95 160.94 164.76 165.05 165.88C159.35 162.26 151.67 162.72 147.84 165.24C147.84 165.24 125.69 176.63 134.66 194.47C143.64 212.31 162.89 203.45 167.94 193.4C171.45 186.41 173.14 181.74 172.27 176.98C171.23 181.23 168.64 185.02 165.93 188.44C164.19 191.37 161.77 194.13 158.39 195.15L158.33 195.04C161.57 191.99 165.38 189.4 167.37 185.35C168.95 182.03 170.44 178.62 171.81 175.17C171.59 174.46 171.31 173.74 170.97 173.01C168.47 177.25 164.63 180.46 160.67 183.33C158.26 185.62 155.21 187.67 151.72 187.47L151.7 187.34C155.67 185.59 159.88 184.04 162.84 180.79C165.08 178.27 168.03 174.89 170.62 172.31C170.32 171.71 169.99 171.1 169.6 170.48C169.46 170.25 169.3 170.06 169.16 169.84C165.14 171.22 161.03 172.27 157.27 174.31ZM149.37 196.84C148.92 197.8 147.84 198.11 147.03 198.64C146.78 198.84 146.58 199.17 146.27 199.36C145.65 199.69 144.81 199.62 144.28 199.07L144.3 198.95C145.5 198.3 145.71 198.46 146.8 198.29C147.55 197.87 147.71 196.76 148.19 196.15C148.52 195.7 148.87 195.28 149.4 194.8L149.52 194.83C149.8 195.53 149.66 196.24 149.37 196.84ZM146.55 188.25C148.45 192.03 144.65 194.01 141.83 193.08C139.01 192.15 140.56 186.27 140.56 186.27C140.97 182.91 144.65 184.47 146.55 188.25ZM141.79 181.49L141.76 181.61C140.58 182.11 139.96 182.25 138.76 182.47C138.1 182.58 137.94 183.17 137.94 183.73C137.81 184.22 137.57 184.58 137.11 185.12H136.98C136.55 184.53 136.61 183.77 137 183.25C137.51 182.81 138.03 182.56 138.34 181.92C139.04 180.75 140.85 180.4 141.79 181.49Z" fill="#1F644D"/>
<path d="M221.24 140.11C219.18 146.34 220.34 151.79 222.7 155.72C222.57 154.37 222.62 153 222.79 151.66C222.72 145.91 223.77 140.1 226.98 135.23L227.1 135.28C226.04 140.84 223.5 146.01 223.2 151.68C223.21 153.03 223.71 155.56 224.15 157.77C224.62 158.35 225.12 158.88 225.63 159.35C225.46 157.59 225.64 155.79 226.01 154.06C226.32 149.03 227.29 143.71 231.05 140.03L231.16 140.1C229.44 144.76 227.11 149.16 226.43 154.1C226.4 155.48 226.68 158.11 226.75 160.27C227.45 160.79 228.15 161.2 228.85 161.51C229.17 159.26 230.06 157.25 231.05 155.23C232.14 151.2 232.49 147.02 234.55 143.28L234.67 143.31C234.67 145.02 234.4 146.68 234.02 148.3C233.46 150.75 232.18 152.97 231.44 155.36C231.07 157.6 230.53 159.78 229.32 161.73C230.09 162.02 230.84 162.17 231.54 162.17C231.54 162.17 233.79 157.16 237.4 152.35C237.37 152.34 237.34 152.33 237.34 152.33C237.02 151.15 237.52 150.36 238.17 149.55C238.49 148.65 238.17 147.55 238.51 146.66C238.72 146.06 239.01 145.48 239.55 144.93L239.67 144.96C240.15 146.35 239.82 147.65 238.98 148.79C238.78 149.07 238.61 149.35 238.56 149.68C238.58 150.14 238.57 150.59 238.46 151C240.59 148.39 243.12 146 245.9 144.69C246.66 142.44 246.59 140.05 248.13 138.06L248.25 138.09C248.46 139.1 248.37 140.07 248.16 141C247.89 142.27 247.03 143.3 246.46 144.44C247.2 144.13 247.96 143.9 248.73 143.77L251.77 142.88C251.77 142.88 255.94 131.98 245.13 125.78C234.34 119.55 225.4 127.53 221.24 140.11Z" fill="#1F644D"/>
<path d="M248.7 161.03C244.11 160.78 240.43 161.9 237.58 163.79C238.23 163.71 238.89 163.68 239.53 163.7C243.98 163.22 249.01 161.98 252.98 164.75L252.93 164.87C251.12 164.53 249.41 164.44 247.64 164.39C245 164.41 242.23 163.8 239.58 164.11C238.16 164.48 236.81 164.92 235.48 165.45C234.86 166.03 234.29 166.65 233.78 167.31C235.13 167.18 236.5 167.3 237.84 167.55C241.99 167.55 246.4 167.79 249.73 170.6L249.68 170.72C248.03 170.39 246.48 169.98 244.92 169.59L240.25 168.31C237.82 167.65 235.42 168.29 232.97 168.44C232.73 168.8 232.51 169.16 232.31 169.53C233.57 169.74 234.81 170.14 236 170.64C238.36 171.26 240.85 171.45 243.08 172.52C244.56 173.21 245.97 174.07 247.19 175.2L247.13 175.31C243.14 174.39 239.76 172.21 235.89 171.04C234.49 170.91 233.13 170.77 231.78 170.52C231.43 171.24 231.12 171.97 230.87 172.71C231.94 173.21 232.93 173.87 233.89 174.58C235.79 175.56 237.98 175.96 239.85 177.01C241.1 177.7 242.32 178.46 243.41 179.46L243.35 179.57C239.67 179 236.83 176.7 233.7 174.94C232.61 174.61 231.54 174.25 230.54 173.74C230.27 174.69 230.09 175.63 229.97 176.56C231.68 178.17 232.88 180.16 235.03 181.13L238.98 182.91C240.27 183.54 241.57 184.14 242.9 184.89L242.87 185.01C238.91 185.2 235.73 182.74 232.92 180.29C231.78 179.66 230.71 178.89 229.86 177.93C229.79 179.45 229.93 180.9 230.26 182.18C230.26 182.18 237.62 195.37 250.45 196.24C263.28 197.11 267.73 185.98 268.59 179.05C269.45 172.1 263.91 161.85 248.7 161.03ZM252.47 189.19C250.91 188.94 250.11 187.53 249.93 186.13C249.42 184.84 248.6 183.59 248.84 182.12C248.98 181.18 249.4 180.25 250.17 179.63L250.28 179.69L250.19 182.25C250.18 183.41 249.79 184.83 250.31 185.98C251.17 187.01 251.95 187.76 252.55 189.1L252.47 189.19ZM261.53 189.68C260.88 190.32 260.21 190.03 259.53 190.33C258.97 190.94 258.42 191.3 257.6 190.6V190.47C258.32 189.66 258.58 189.85 259.39 189.95C259.6 189.92 259.76 189.76 259.88 189.57C260.41 188.71 260.86 188.38 261.92 188.21C262.28 188.51 261.77 189.48 261.53 189.68ZM259.88 177.58C260.49 178.79 260.73 182.01 259.34 184.23C257.95 186.45 255.54 186.39 254.89 185.81C254.89 185.81 251.28 183.28 253.85 179.48C256.43 175.68 259.27 176.37 259.88 177.58Z" fill="#1F644D"/>
<path d="M235.51 159.92C236.72 158.06 238.24 156.4 239.95 154.96C243.62 150.76 248.55 146.65 254.5 147.31L254.51 147.44C249.24 148.96 244.16 151.38 240.24 155.25C238.56 157.32 236.36 161.02 234.26 162.69C233.84 163.73 233.44 164.78 233.11 165.85C233.11 165.85 234.97 163.16 238.78 161.05C239.8 159.09 241.61 157.87 243.56 157.02C245.37 155.86 246.98 154.33 249.06 153.62C250.42 153.14 251.86 152.84 253.34 152.9L253.37 153.02C250.32 154.92 246.85 155.57 243.79 157.36C242.73 158.37 241.71 159.34 240.55 160.18C244.51 158.48 250.1 157.62 257.39 160.03C270.19 164.26 269.52 172.65 269.52 172.65C269.52 172.65 277.62 163.09 275.26 155.3C272.62 146.6 263.98 143.39 255.29 143.47C248.08 143.54 240.14 150.6 235.51 159.92ZM261.44 155.56C261.71 155.17 262.03 154.91 261.82 154.39C261.55 153.45 262 152.55 263.03 152.36C263.34 152.58 263.2 153.49 263.15 153.67C263.03 154.19 262.26 154.56 262.24 155.06C262.51 155.76 262.75 155.98 262.03 156.73L261.9 156.74C261.43 156.41 261.31 155.96 261.44 155.56ZM271.8 158.49C271.23 160.23 269.89 162.4 268.24 161.85C268.24 161.85 265.19 160.63 266 158.18C266.81 155.73 268.09 153.89 269.52 154.36C270.95 154.83 272.37 156.76 271.8 158.49Z" fill="#1F644D"/>
<path d="M216.99 316.36C217.84 317.13 218.8 317.76 219.82 318.25C218.69 317.02 217.84 315.54 217.15 314C215.83 311.87 214.12 309.95 213.2 307.58C212.58 306.02 212.13 304.38 212.01 302.67L212.13 302.63C214.43 306.15 215.43 310.17 217.5 313.77C218.9 315.38 220.25 316.94 221.3 318.8C222.07 319.04 222.87 319.19 223.68 319.24C222.86 317.79 222.31 316.23 221.85 314.62C220.86 312.41 219.3 310.46 218.39 308.2C217.77 306.71 217.24 305.17 216.93 303.54L217.05 303.49C219.75 306.68 220.7 310.68 222.23 314.45C223.23 315.97 224.14 317.53 224.69 319.25C224.87 319.24 225.06 319.25 225.24 319.23C225.74 319.18 226.23 319.09 226.72 318.96C225.98 317.4 225.58 315.74 225.26 314.02C224.5 311.75 223.14 309.69 222.45 307.39C221.98 305.86 221.6 304.3 221.45 302.65L221.57 302.6C223.94 305.98 224.5 310.03 225.65 313.88C226.47 315.42 227.19 316.99 227.58 318.68C228.15 318.48 228.71 318.23 229.25 317.91C228.39 316.36 228.31 314.75 228.39 313.06C228.13 311.36 227.25 309.76 227.08 308.04C226.95 306.9 226.91 305.74 227.12 304.52L227.24 304.49C228.82 307.11 228.5 310.1 228.8 312.99C229.39 314.49 229.85 316.03 229.59 317.68C230.54 317.08 231.45 316.28 232.34 315.28C232.25 314.14 232.28 312.99 232.32 311.82C231.66 308.11 230.11 304.67 230.14 300.82L230.26 300.78C231.08 302.1 231.61 303.53 232.01 305C232.63 307.2 232.42 309.53 232.74 311.77C232.97 312.55 233.17 313.33 233.3 314.12C233.94 313.26 234.57 312.31 235.18 311.21C235.42 310.77 235.63 310.33 235.84 309.87C235.32 308 235.2 306.12 235.14 304.18C234.2 300.33 232.36 296.82 232 292.79L232.12 292.74C233.07 294.07 233.74 295.53 234.26 297.04C235.08 299.31 235.06 301.76 235.54 304.09C236.02 305.41 236.39 306.77 236.52 308.16C239.15 300.68 237.59 291.91 235.14 287.04C232.35 281.5 226.53 275.81 220.9 276.56C215.27 277.31 212.24 280.52 210.1 283.31C207.95 286.1 205.88 296.08 207.76 303.53C209.04 308.59 213.94 313.62 216.99 316.36ZM225.73 285.22C225.66 285.63 225.46 286.02 225.06 286.24C224.87 286.36 224.71 286.46 224.65 286.63C224.57 286.79 224.61 287.07 224.52 287.27C224.35 287.66 223.47 287.82 223.29 287.4C223.42 286.86 223.51 286.64 223.78 286.52C223.93 286.48 224.19 286.5 224.32 286.4C224.45 286.3 224.47 286.12 224.44 285.93C224.26 285.07 224.38 284.86 224.97 284.13C225.46 284.05 225.77 284.9 225.73 285.22ZM219.72 281.86C220.67 281.38 222.1 283.44 221.7 284.64C221.3 285.84 218.22 287.63 216.63 287.1C215.04 286.57 215.81 284.46 215.81 284.46C216.34 282.85 218.77 282.33 219.72 281.86ZM212.38 286.94C212.19 286.23 211.75 285.39 212.27 284.67C212.39 284.43 212.96 283.71 213.26 283.93C213.26 284.69 213.29 285.24 213.02 285.9C212.63 286.48 212.68 287.28 213.25 287.69C214.28 288.41 215.56 288.69 216.57 289.69L216.54 289.81C214.49 290.34 212.22 289.23 212.38 286.94Z" fill="#1F644D"/>
<path d="M241.89 289.62C244 288.55 245.9 287.03 248.19 286.32C249.7 285.84 251.27 285.5 252.89 285.5L252.92 285.62C249.5 287.68 245.64 288.31 242.08 289.97C241.06 290.73 240.06 291.47 238.99 292.12C238.95 292.18 238.91 292.24 238.87 292.3C238.87 292.3 240.89 297.23 239.66 300.96C239.66 300.96 245.51 297.55 250.52 297.94C251.59 298.02 252.81 298.11 254.08 298.26C254.21 297.69 254.5 297.32 254.91 297.1C255.44 296.99 255.96 296.89 256.18 296.31C256.69 295.29 257.47 294.68 258.68 294.67L258.76 294.77C258.63 295.4 258.33 295.82 257.98 296.18C257.45 296.75 256.5 296.72 255.95 297.21C255.69 297.75 255.44 298.17 254.96 298.37C257.4 298.72 259.98 299.39 262.19 300.85C262.21 300.77 262.24 300.68 262.24 300.58C262.35 299.5 263.08 298.67 264.24 298.65L264.33 298.74C264.27 299.34 264.09 299.74 263.86 300.11C263.61 300.54 263.01 300.77 262.63 301.13C263.7 301.91 264.67 302.9 265.47 304.15C265.48 304.15 265.49 304.14 265.5 304.14C265.89 303.63 265.7 302.8 266.18 302.25C266.47 301.92 266.83 301.64 267.41 301.5L267.52 301.57C267.62 302.16 267.5 302.6 267.31 302.99C266.99 303.65 266.16 303.8 265.84 304.36C265.83 304.48 265.81 304.6 265.8 304.71C266.13 305.29 266.43 305.9 266.68 306.58C266.68 306.58 269.75 306.68 272.15 303.64C274.56 300.6 278.46 288.94 271.86 283.96C265.26 278.98 259.58 276.31 254.44 278.9C249.95 281.16 243.95 285.46 240.31 290.22C240.81 290.01 241.35 289.81 241.89 289.62ZM253.34 291.87C251.28 293.95 248.5 294.42 245.99 295.63C244.74 296.77 243.48 297.78 241.7 298.11L241.63 298C242.63 296.47 244.16 295.77 245.79 295.27C247.25 294.47 248.44 293.16 250 292.54C251.03 292.11 252.11 291.79 253.29 291.74L253.34 291.87ZM269.67 290.76C270.25 291.91 269.87 294.54 268.13 295.42C266.39 296.29 264.48 292.21 264.48 292.21C263.59 290.67 265.79 289.32 266.83 288.8C267.86 288.27 269.09 289.61 269.67 290.76ZM261.61 287.42C262.22 286.85 262.86 286.52 263.5 285.98C264.92 285.01 266.87 285.78 267.61 287.22L267.54 287.33C266.04 287.29 265.12 286.77 263.72 286.64C262.92 286.58 262.61 287.26 262.53 287.92C262.35 288.51 262.09 289 261.66 289.7L261.53 289.71C261.09 289 261.15 288.09 261.61 287.42Z" fill="#1F644D"/>
<path d="M264.27 274.03L262.25 277.31C262.25 277.31 263.94 277.83 266.1 278.72C266.57 278.12 267.24 277.69 267.96 277.34C268.9 276.52 269.48 275.26 270.58 274.61C271.3 274.17 272.09 273.83 273.01 273.75L273.08 273.86C272.1 275.34 270.83 276.23 269.25 276.94C268.87 277.12 268.51 277.33 268.24 277.64C267.91 278.2 267.57 278.72 267.15 279.16C268.3 279.67 269.52 280.27 270.67 280.95C270.81 280.78 270.98 280.63 271.17 280.51C271.75 280.35 272.32 280.22 272.6 279.61C273.23 278.53 274.21 277.88 275.52 277.96L275.59 278.07C275.33 278.71 274.96 279.12 274.54 279.48C273.93 280.03 272.9 280.03 272.28 280.56C272.08 280.94 271.88 281.28 271.61 281.54C273.12 282.54 274.4 283.67 275.02 284.89C275.18 285.21 275.33 285.52 275.47 285.82C275.74 285.25 275.76 284.5 276.18 284.02C276.49 283.64 276.87 283.3 277.48 283.08L277.59 283.14C277.69 283.78 277.55 284.29 277.32 284.75C276.99 285.46 276.14 285.72 275.7 286.31C276.91 289.11 276.95 290.74 276.61 292.19C277.07 291.78 277.61 291.45 278.18 291.1C279.45 289.44 279.61 287.58 281.5 285.99L281.62 286.04C281.7 286.96 281.46 287.81 281.09 288.58C280.54 289.78 279.31 290.43 278.49 291.38C278.16 292.06 277.73 292.69 277.15 293.14C278.08 293.21 279.79 293.38 281.92 293.79C282.14 293.23 282.6 292.87 283.14 292.5C283.64 291.8 283.58 290.74 284.12 290.06C284.47 289.6 284.88 289.18 285.52 288.88L285.63 288.94C285.7 289.65 285.53 290.23 285.28 290.76C284.92 291.58 283.94 291.99 283.48 292.73C283.39 293.21 283.26 293.66 283.02 294.02C284.28 294.3 285.65 294.66 287.07 295.12C287.32 294.74 287.69 294.46 288.11 294.17C288.59 293.47 288.49 292.42 288.97 291.73C289.28 291.26 289.65 290.82 290.26 290.46L290.38 290.51C290.62 291.84 290.06 292.94 289.04 293.73C288.8 293.92 288.58 294.13 288.46 294.4C288.39 294.8 288.29 295.17 288.12 295.49C289.32 295.92 290.55 296.42 291.77 297.02C291.77 297.02 297.88 285.57 296.67 280.27C295.46 274.97 289.91 269.36 278.53 266.85C278.51 266.86 269.65 267.83 264.27 274.03ZM291.47 281.71C291.35 283.54 288.98 284.31 287.52 283.54C287.15 283.37 286.81 283.2 286.44 283.13C285.25 283.12 284.12 282.68 283.57 281.47L283.64 281.36C284.96 281.35 285.68 282.04 286.57 282.74C287.49 283.13 288.65 282.57 289.49 282.36C290.08 282.2 290.63 282.03 291.35 281.64L291.47 281.71ZM286.1 279.92C284.57 280.69 282.06 275.26 282.06 275.26C281.19 273.53 283.34 273.23 285.08 273.81C286.82 274.39 287.62 279.15 286.1 279.92Z" fill="#1F644D"/>
</svg>
