<svg width="217" height="37" viewBox="0 0 217 37" fill="none" xmlns="http://www.w3.org/2000/svg">
<path d="M79.12 2.52002V17.35H91.82H97.25C99.56 17.35 101.43 16.6699 102.75 15.1899C104.08 13.7199 104.66 11.79 104.66 9.77002C104.66 5.45002 101.08 2.5 95.57 2.5L79.12 2.52002ZM79.12 36.4H77V0.410034H79.12L95.98 0.540039C102.51 0.540039 106.74 3.98005 106.74 9.43005C106.74 14.2401 103.67 17.82 100.38 18.35C104.95 18.5 108.85 21.21 108.85 26.42C108.85 32.26 104.58 36.3199 97.61 36.3199L79.12 36.4ZM97.36 34.36C100.26 34.36 102.46 33.83 104.18 32.22C105.9 30.6 106.74 28.58 106.74 26.17C106.74 22.05 103.67 19.4399 97.53 19.4399L91.83 19.47H79.13V34.29L97.36 34.36Z" fill="#F3981C"/>
<path d="M70.74 0.369995V20.49C70.74 20.88 70.73 21.27 70.7 21.66C70.1 29.88 63.24 36.36 54.87 36.36C46.46 36.36 39.57 29.82 39.03 21.55C39.01 21.2 39 20.85 39 20.49V0.369995H41.08V20.13C41.07 20.25 41.07 20.36 41.07 20.49C41.07 20.61 41.07 20.72 41.08 20.85C41.26 28.31 47.37 34.3 54.88 34.3C62.51 34.3 68.68 28.12 68.68 20.49V0.369995H70.74Z" fill="#F3981C"/>
<path d="M0.880005 36.37V0.540039L2.98999 0.380005V17.29H30.52V0.380005L32.63 0.540039V36.37L30.52 36.36V19.41H2.98999V36.37H0.880005Z" fill="#F3981C"/>
<path d="M166.5 15.34L165.67 15.27C158.39 14.63 156.35 13.27 156.35 9.73999C156.35 8.31999 156.86 5.31998 164.07 4.97998H164.86C169.21 4.77998 171.9 6.57003 175.26 9.91003L178.77 6.07996C175.01 2.53996 171.29 0.27002 165.1 0.27002H164.3C156.38 0.27002 151.18 3.64996 151.18 10.08C151.18 16.22 154.91 19.1501 164.86 20.1801L165.69 20.25C172.86 20.89 175.68 22.36 175.68 25.9C175.68 27.91 172.61 31.55 166.18 31.55H165.32C160.2 31.53 155.53 29.1801 152.52 25.8101L149.06 29.59C153.27 34.3 159.4 36.36 165.19 36.36H166C173.62 36.36 180.9 32.78 180.9 25.65C180.89 19.32 176.54 16.32 166.5 15.34Z" fill="#F3981C"/>
<path d="M113.08 36.36V0.410034H144.84V5.06995H118.13V16.1H140.61V20.71H118.13V31.6899H144.84V36.36H113.08Z" fill="#F3981C"/>
<path d="M203.27 0.349976L203.25 11.34C203.25 16.53 199.07 20.73 193.88 20.73H185.13V16.0699H193.85C196.49 16.0699 198.59 13.94 198.59 11.33V0.339966H203.27V0.349976Z" fill="#F3981C"/>
<path d="M216.88 15.98V20.64H207.97C205.36 20.64 203.24 22.77 203.24 25.38V36.37H198.58V25.38C198.58 20.19 202.78 15.99 207.97 15.99H216.88V15.98Z" fill="#F3981C"/>
</svg>
